<?xml version="1.0" encoding="UTF-8" standalone="no"?>
<!DOCTYPE svg PUBLIC "-//W3C//DTD SVG 1.1//EN" "http://www.w3.org/Graphics/SVG/1.1/DTD/svg11.dtd">
<svg width="100%" height="100%" viewBox="0 0 2778 2778" version="1.1" xmlns="http://www.w3.org/2000/svg" xmlns:xlink="http://www.w3.org/1999/xlink" xml:space="preserve" xmlns:serif="http://www.serif.com/" style="fill-rule:evenodd;clip-rule:evenodd;stroke-linejoin:round;stroke-miterlimit:2;">
    <g transform="matrix(1,0,0,1,-13417.8,-6764.63)">
        <g id="Artboard2" transform="matrix(1,0,0,1,-145.649,9950.41)">
            <rect x="13563.5" y="-3185.78" width="2777.78" height="2777.78" style="fill:none;"/>
            <g transform="matrix(5.55556,0,0,5.55556,13563.5,-2881.64)">
                <rect x="0" y="327.837" width="500" height="0.25" style="fill:rgb(229,229,228);fill-rule:nonzero;"/>
            </g>
            <g transform="matrix(5.55556,0,0,5.55556,13563.5,-2881.64)">
                <rect x="52.459" y="337.36" width="33.122" height="0.25" style="fill:rgb(229,229,228);fill-rule:nonzero;"/>
            </g>
            <g transform="matrix(5.55556,0,0,5.55556,13563.5,-2881.64)">
                <rect x="153.444" y="334.647" width="26.389" height="0.25" style="fill:rgb(229,229,228);fill-rule:nonzero;"/>
            </g>
            <g transform="matrix(5.55556,0,0,5.55556,13563.5,-2881.64)">
                <rect x="89.965" y="343.263" width="45.924" height="0.25" style="fill:rgb(229,229,228);fill-rule:nonzero;"/>
            </g>
            <g transform="matrix(5.55556,0,0,5.55556,13563.5,-2881.64)">
                <rect x="428.305" y="344.966" width="21.596" height="0.25" style="fill:rgb(229,229,228);fill-rule:nonzero;"/>
            </g>
            <g transform="matrix(5.55556,0,0,5.55556,13563.5,-2881.64)">
                <rect x="391.472" y="344.966" width="31.972" height="0.25" style="fill:rgb(229,229,228);fill-rule:nonzero;"/>
            </g>
            <g transform="matrix(5.55556,0,0,5.55556,13563.5,-2881.64)">
                <rect x="277.213" y="340.744" width="55.12" height="0.25" style="fill:rgb(229,229,228);fill-rule:nonzero;"/>
            </g>
            <g transform="matrix(5.55556,0,0,5.55556,13563.5,-2881.64)">
                <path d="M43.915,0.642C40.905,0.642 38.457,3.09 38.457,6.099L38.457,277.53C38.457,280.54 40.905,282.988 43.915,282.988L237.014,282.988C240.022,282.988 242.471,280.54 242.471,277.53L242.471,6.099C242.471,3.09 240.022,0.642 237.014,0.642L43.915,0.642ZM237.014,283.238L43.915,283.238C40.767,283.238 38.207,280.678 38.207,277.53L38.207,6.099C38.207,2.952 40.767,0.391 43.915,0.391L237.014,0.391C240.16,0.391 242.721,2.952 242.721,6.099L242.721,277.53C242.721,280.678 240.16,283.238 237.014,283.238Z" style="fill:rgb(229,229,228);fill-rule:nonzero;"/>
            </g>
            <g transform="matrix(5.55556,0,0,5.55556,13563.5,-2881.64)">
                <path d="M260.212,0.642C257.203,0.642 254.755,3.09 254.755,6.099L254.755,277.53C254.755,280.54 257.203,282.988 260.212,282.988L453.311,282.988C456.32,282.988 458.769,280.54 458.769,277.53L458.769,6.099C458.769,3.09 456.32,0.642 453.311,0.642L260.212,0.642ZM453.311,283.238L260.212,283.238C257.065,283.238 254.505,280.678 254.505,277.53L254.505,6.099C254.505,2.952 257.065,0.391 260.212,0.391L453.311,0.391C456.458,0.391 459.019,2.952 459.019,6.099L459.019,277.53C459.019,280.678 456.458,283.238 453.311,283.238Z" style="fill:rgb(229,229,228);fill-rule:nonzero;"/>
            </g>
            <g transform="matrix(5.55556,0,0,5.55556,13563.5,-2881.64)">
                <rect x="86.234" y="26.744" width="326.64" height="141.689" style="fill:rgb(224,224,223);fill-rule:nonzero;"/>
            </g>
            <g transform="matrix(5.55556,0,0,5.55556,13563.5,-2881.64)">
                <rect x="81.734" y="26.744" width="329.184" height="141.689" style="fill:rgb(240,240,240);fill-rule:nonzero;"/>
            </g>
            <g transform="matrix(5.55556,0,0,5.55556,13563.5,-2881.64)">
                <rect x="89.812" y="34.915" width="313.029" height="125.347" style="fill:rgb(249,249,249);fill-rule:nonzero;"/>
            </g>
            <g transform="matrix(5.55556,0,0,5.55556,13563.5,-2881.64)">
                <path d="M222.907,160.262L187.211,34.915L162.299,34.915L197.996,160.262L222.907,160.262Z" style="fill:white;fill-rule:nonzero;"/>
            </g>
            <g transform="matrix(5.55556,0,0,5.55556,13563.5,-2881.64)">
                <path d="M190.934,160.262L155.237,34.915L138.084,34.915L173.78,160.262L190.934,160.262Z" style="fill:white;fill-rule:nonzero;"/>
            </g>
            <g transform="matrix(5.55556,0,0,5.55556,13563.5,-2881.64)">
                <path d="M372.782,160.262L337.086,34.915L312.174,34.915L347.871,160.262L372.782,160.262Z" style="fill:white;fill-rule:nonzero;"/>
            </g>
            <g transform="matrix(5.55556,0,0,5.55556,13563.5,-2881.64)">
                <path d="M340.809,160.262L305.112,34.915L287.958,34.915L323.655,160.262L340.809,160.262Z" style="fill:white;fill-rule:nonzero;"/>
            </g>
            <g transform="matrix(5.55556,0,0,5.55556,13563.5,-2881.64)">
                <rect x="149.37" y="34.915" width="9.636" height="125.347" style="fill:rgb(224,224,223);fill-rule:nonzero;"/>
            </g>
            <g transform="matrix(5.55556,0,0,5.55556,13563.5,-2881.64)">
                <rect x="340.103" y="34.915" width="9.636" height="125.347" style="fill:rgb(224,224,223);fill-rule:nonzero;"/>
            </g>
            <g transform="matrix(5.55556,0,0,5.55556,13563.5,-2881.64)">
                <rect x="145.087" y="28.84" width="12.182" height="136.606" style="fill:rgb(240,240,240);fill-rule:nonzero;"/>
            </g>
            <g transform="matrix(5.55556,0,0,5.55556,13563.5,-2881.64)">
                <rect x="335.82" y="28.84" width="12.181" height="136.606" style="fill:rgb(240,240,240);fill-rule:nonzero;"/>
            </g>
            <g transform="matrix(5.55556,0,0,5.55556,13563.5,-2881.64)">
                <rect x="89.812" y="34.915" width="0.858" height="125.347" style="fill:rgb(224,224,223);fill-rule:nonzero;"/>
            </g>
            <g transform="matrix(5.55556,0,0,5.55556,13563.5,-2881.64)">
                <path d="M78.343,16.236L421.657,16.236C422.23,16.236 422.698,16.705 422.698,17.278C422.698,17.851 422.23,18.32 421.657,18.32L78.343,18.32C77.77,18.32 77.301,17.851 77.301,17.278C77.301,16.705 77.77,16.236 78.343,16.236Z" style="fill:rgb(224,224,223);fill-rule:nonzero;"/>
            </g>
            <g transform="matrix(5.55556,0,0,5.55556,13563.5,-2881.64)">
                <path d="M412.874,23.112C413.648,23.112 414.281,22.479 414.281,21.706L414.281,18.685C414.281,17.911 413.648,17.278 412.874,17.278C412.101,17.278 411.468,17.911 411.468,18.685L411.468,21.706C411.468,22.479 412.101,23.112 412.874,23.112Z" style="fill:rgb(224,224,223);fill-rule:nonzero;"/>
            </g>
            <g transform="matrix(5.55556,0,0,5.55556,13563.5,-2881.64)">
                <path d="M94.053,23.112C94.827,23.112 95.46,22.479 95.46,21.706L95.46,18.685C95.46,17.911 94.827,17.278 94.053,17.278C93.28,17.278 92.647,17.911 92.647,18.685L92.647,21.706C92.647,22.479 93.28,23.112 94.053,23.112Z" style="fill:rgb(224,224,223);fill-rule:nonzero;"/>
            </g>
            <g transform="matrix(5.55556,0,0,5.55556,13563.5,-2881.64)">
                <path d="M81.734,52.719L78.675,52.719L78.675,18.32L92.695,18.32C92.664,18.436 92.647,18.559 92.647,18.685L92.647,21.706C92.647,22.479 93.28,23.112 94.053,23.112C94.827,23.112 95.46,22.479 95.46,21.706L95.46,18.685C95.46,18.559 95.443,18.436 95.412,18.32L242.471,18.32L242.471,26.744L81.734,26.744L81.734,52.719ZM407.712,26.744L254.755,26.744L254.755,18.32L407.712,18.32L407.712,26.744ZM254.505,26.744L242.721,26.744L242.721,18.32L254.505,18.32L254.505,26.744Z" style="fill:rgb(230,231,229);fill-rule:nonzero;"/>
            </g>
            <g transform="matrix(5.55556,0,0,5.55556,13563.5,-2881.64)">
                <rect x="242.471" y="18.32" width="0.25" height="8.424" style="fill:rgb(220,221,221);fill-rule:nonzero;"/>
            </g>
            <g transform="matrix(5.55556,0,0,5.55556,13563.5,-2881.64)">
                <rect x="254.505" y="18.32" width="0.25" height="8.424" style="fill:rgb(220,221,221);fill-rule:nonzero;"/>
            </g>
            <g transform="matrix(5.55556,0,0,5.55556,13563.5,-2881.64)">
                <path d="M407.712,52.719L402.841,52.719L402.841,34.915L348.001,34.915L348.001,28.84L335.82,28.84L335.82,34.915L157.269,34.915L157.269,28.84L145.087,28.84L145.087,34.915L89.812,34.915L89.812,52.719L81.734,52.719L81.734,26.744L407.712,26.744L407.712,52.719Z" style="fill:rgb(225,226,226);fill-rule:nonzero;"/>
            </g>
            <g transform="matrix(5.55556,0,0,5.55556,13563.5,-2881.64)">
                <path d="M402.841,52.719L349.739,52.719L349.739,34.915L348.001,34.915L402.841,34.915L402.841,52.719ZM317.244,52.719L310.183,52.719L305.112,34.915L287.958,34.915L293.029,52.719L192.281,52.719L187.211,34.915L162.299,34.915L167.37,52.719L160.308,52.719L159.006,48.15L159.006,34.915L157.269,34.915L335.82,34.915L312.174,34.915L317.244,52.719ZM143.154,52.719L90.67,52.719L90.67,34.915L89.812,34.915L89.812,52.719L89.812,34.915L145.087,34.915L138.084,34.915L143.154,52.719Z" style="fill:rgb(228,228,228);fill-rule:nonzero;"/>
            </g>
            <g transform="matrix(5.55556,0,0,5.55556,13563.5,-2881.64)">
                <path d="M192.281,52.719L167.37,52.719L162.299,34.915L187.211,34.915L192.281,52.719Z" style="fill:rgb(230,231,229);fill-rule:nonzero;"/>
            </g>
            <g transform="matrix(5.55556,0,0,5.55556,13563.5,-2881.64)">
                <path d="M160.308,52.719L159.006,52.719L159.006,48.15L160.308,52.719ZM145.087,52.719L143.154,52.719L138.084,34.915L145.087,34.915L145.087,52.719Z" style="fill:rgb(230,231,229);fill-rule:nonzero;"/>
            </g>
            <g transform="matrix(5.55556,0,0,5.55556,13563.5,-2881.64)">
                <path d="M335.82,52.719L317.244,52.719L312.174,34.915L335.82,34.915L335.82,52.719Z" style="fill:rgb(230,231,229);fill-rule:nonzero;"/>
            </g>
            <g transform="matrix(5.55556,0,0,5.55556,13563.5,-2881.64)">
                <path d="M310.183,52.719L293.029,52.719L287.958,34.915L305.112,34.915L310.183,52.719Z" style="fill:rgb(230,231,229);fill-rule:nonzero;"/>
            </g>
            <g transform="matrix(5.55556,0,0,5.55556,13563.5,-2881.64)">
                <path d="M159.006,52.719L157.269,52.719L157.269,34.915L159.006,34.915L159.006,52.719Z" style="fill:rgb(218,219,219);fill-rule:nonzero;"/>
            </g>
            <g transform="matrix(5.55556,0,0,5.55556,13563.5,-2881.64)">
                <rect x="348.001" y="34.915" width="1.738" height="17.804" style="fill:rgb(218,219,219);fill-rule:nonzero;"/>
            </g>
            <g transform="matrix(5.55556,0,0,5.55556,13563.5,-2881.64)">
                <path d="M157.269,52.719L145.087,52.719L145.087,28.84L157.269,28.84L157.269,52.719Z" style="fill:rgb(225,226,226);fill-rule:nonzero;"/>
            </g>
            <g transform="matrix(5.55556,0,0,5.55556,13563.5,-2881.64)">
                <path d="M348.001,52.719L335.82,52.719L335.82,28.84L348.001,28.84L348.001,52.719Z" style="fill:rgb(225,226,226);fill-rule:nonzero;"/>
            </g>
            <g transform="matrix(5.55556,0,0,5.55556,13563.5,-2881.64)">
                <rect x="89.812" y="34.915" width="0.858" height="17.804" style="fill:rgb(218,219,219);fill-rule:nonzero;"/>
            </g>
            <g transform="matrix(5.55556,0,0,5.55556,13563.5,-2881.64)">
                <path d="M407.712,18.32L95.412,18.32C95.25,17.722 94.701,17.278 94.053,17.278L407.712,17.278L407.712,18.32ZM92.695,18.32L78.675,18.32L78.675,17.278L94.053,17.278C93.406,17.278 92.857,17.722 92.695,18.32Z" style="fill:rgb(218,219,219);fill-rule:nonzero;"/>
            </g>
            <g transform="matrix(5.55556,0,0,5.55556,13563.5,-2881.64)">
                <path d="M94.053,23.112C93.28,23.112 92.647,22.479 92.647,21.706L92.647,18.685C92.647,18.559 92.664,18.436 92.695,18.32C92.857,17.722 93.406,17.278 94.053,17.278C94.701,17.278 95.25,17.722 95.412,18.32C95.443,18.436 95.46,18.559 95.46,18.685L95.46,21.706C95.46,22.479 94.827,23.112 94.053,23.112Z" style="fill:rgb(218,219,219);fill-rule:nonzero;"/>
            </g>
            <g transform="matrix(5.55556,0,0,5.55556,13563.5,-2881.64)">
                <path d="M194.763,277.138C198.306,275.936 200.884,272.515 198.63,269.011C194.9,263.213 204.234,261.978 201.614,252.274C197.916,238.574 186.452,250.449 183.602,237.298C181.527,227.729 165.458,221.461 164.829,234.057C164.142,247.851 157.228,238.842 155.692,254.174C154.631,264.777 169.72,266.321 165.217,269.638C161.928,272.06 159.981,276.277 164.574,279.163C170.826,283.094 164.925,286.163 169.175,288.906C173.368,291.611 174.121,287.276 180.721,289.405C186.624,291.309 191.625,285.476 190.449,281.83C189.353,278.426 191.197,278.349 194.763,277.138Z" style="fill:rgb(224,224,223);fill-rule:nonzero;"/>
            </g>
            <g transform="matrix(5.55556,0,0,5.55556,13563.5,-2881.64)">
                <path d="M160.649,283.442C160.649,283.442 161.134,327.837 179.739,327.837C198.344,327.837 198.83,283.442 198.83,283.442L160.649,283.442Z" style="fill:rgb(234,235,234);fill-rule:nonzero;"/>
            </g>
            <g transform="matrix(5.55556,0,0,5.55556,13563.5,-2881.64)">
                <path d="M142.935,277.138C146.478,275.936 149.056,272.515 146.802,269.011C143.072,263.213 152.406,261.978 149.786,252.274C146.087,238.574 134.624,250.449 131.773,237.298C129.699,227.729 113.629,221.461 113.002,234.057C112.313,247.851 105.4,238.842 103.865,254.174C102.803,264.777 117.892,266.321 113.389,269.638C110.1,272.06 108.154,276.277 112.746,279.163C118.999,283.094 113.097,286.163 117.347,288.906C119.533,290.316 120.784,289.813 122.415,289.31C123.914,288.848 125.733,288.386 128.893,289.405C134.795,291.308 139.796,285.476 138.621,281.83C137.524,278.426 139.369,278.349 142.935,277.138Z" style="fill:rgb(224,224,223);fill-rule:nonzero;"/>
            </g>
            <g transform="matrix(5.55556,0,0,5.55556,13563.5,-2881.64)">
                <path d="M108.821,283.442C108.821,283.442 109.306,327.837 127.911,327.837C146.517,327.837 147.002,283.442 147.002,283.442L108.821,283.442Z" style="fill:rgb(234,235,234);fill-rule:nonzero;"/>
            </g>
            <g transform="matrix(5.55556,0,0,5.55556,13563.5,-2881.64)">
                <path d="M305.647,234.323C308.333,204.644 310.201,156.484 308.75,140.376C308.699,139.816 308.421,139.313 307.996,138.982C306.745,138.008 304.992,138.991 305.044,140.642C305.301,148.623 305.594,168.571 304.002,202.985C303.209,220.116 302.066,231.848 302.851,234.323L305.647,234.323Z" style="fill:rgb(234,235,234);fill-rule:nonzero;"/>
            </g>
            <g transform="matrix(5.55556,0,0,5.55556,13563.5,-2881.64)">
                <path d="M313.914,172.876C320.327,164.837 333.428,159.121 346.777,159.151C352.018,159.163 330.832,168.503 322.022,178.809C315.177,186.816 307.46,200.285 304.836,207.761C306.533,192.031 307.5,180.915 313.914,172.876Z" style="fill:rgb(234,235,234);fill-rule:nonzero;"/>
            </g>
            <g transform="matrix(5.55556,0,0,5.55556,13563.5,-2881.64)">
                <path d="M300.503,172.795C294.156,163.954 279.502,157.156 263.648,156.388C257.424,156.086 281.105,167.18 289.942,178.55C296.807,187.383 303.847,202.014 305.784,210.036C306.248,193.387 306.851,181.636 300.503,172.795Z" style="fill:rgb(234,235,234);fill-rule:nonzero;"/>
            </g>
            <g transform="matrix(5.55556,0,0,5.55556,13563.5,-2881.64)">
                <path d="M313.914,185.787C320.327,177.748 333.428,172.031 346.777,172.061C352.018,172.073 330.832,181.413 322.022,191.72C315.177,199.726 307.46,213.196 304.836,220.672C306.533,204.941 307.5,193.826 313.914,185.787Z" style="fill:rgb(234,235,234);fill-rule:nonzero;"/>
            </g>
            <g transform="matrix(5.55556,0,0,5.55556,13563.5,-2881.64)">
                <path d="M300.503,186.427C294.156,177.586 279.502,170.788 263.648,170.019C257.424,169.718 281.105,180.812 289.942,192.182C296.807,201.015 303.847,215.646 305.784,223.668C306.248,207.019 306.851,195.268 300.503,186.427Z" style="fill:rgb(234,235,234);fill-rule:nonzero;"/>
            </g>
            <g transform="matrix(5.55556,0,0,5.55556,13563.5,-2881.64)">
                <path d="M312.756,142.507C316.957,136.537 325.952,131.872 335.343,131.237C339.03,130.988 324.488,138.598 318.688,146.281C314.182,152.25 309.273,162.103 307.716,167.491C308.303,156.343 308.555,148.476 312.756,142.507Z" style="fill:rgb(234,235,234);fill-rule:nonzero;"/>
            </g>
            <g transform="matrix(5.55556,0,0,5.55556,13563.5,-2881.64)">
                <path d="M304.403,145.032C299.929,138.801 289.602,134.01 278.429,133.469C274.042,133.256 290.732,141.075 296.96,149.088C301.798,155.313 306.759,165.625 308.124,171.278C308.451,159.544 308.876,151.263 304.403,145.032Z" style="fill:rgb(234,235,234);fill-rule:nonzero;"/>
            </g>
            <g transform="matrix(5.55556,0,0,5.55556,13563.5,-2881.64)">
                <path d="M314.2,150.256C319.631,143.448 330.725,138.608 342.028,138.633C346.466,138.643 328.526,146.552 321.066,155.279C315.27,162.06 308.735,173.465 306.514,179.795C307.951,166.475 308.77,157.063 314.2,150.256Z" style="fill:rgb(234,235,234);fill-rule:nonzero;"/>
            </g>
            <g transform="matrix(5.55556,0,0,5.55556,13563.5,-2881.64)">
                <path d="M303.166,153.879C297.792,146.393 285.383,140.636 271.958,139.986C266.687,139.73 286.741,149.124 294.224,158.752C300.037,166.232 305.998,178.621 307.638,185.413C308.031,171.316 308.541,161.365 303.166,153.879Z" style="fill:rgb(234,235,234);fill-rule:nonzero;"/>
            </g>
            <g transform="matrix(5.55556,0,0,5.55556,13563.5,-2881.64)">
                <path d="M314.561,159.699C320.42,152.355 332.389,147.133 344.584,147.16C349.372,147.171 330.018,155.703 321.968,165.119C315.715,172.434 308.665,184.739 306.268,191.569C307.819,177.198 308.703,167.043 314.561,159.699Z" style="fill:rgb(234,235,234);fill-rule:nonzero;"/>
            </g>
            <g transform="matrix(5.55556,0,0,5.55556,13563.5,-2881.64)">
                <path d="M302.322,163.721C296.354,155.409 282.576,149.017 267.669,148.294C261.816,148.011 284.083,158.442 292.392,169.132C298.846,177.437 305.465,191.194 307.287,198.736C307.723,183.082 308.29,172.034 302.322,163.721Z" style="fill:rgb(234,235,234);fill-rule:nonzero;"/>
            </g>
            <g transform="matrix(5.55556,0,0,5.55556,13563.5,-2881.64)">
                <path d="M287.615,229.308L288.603,237.639C288.711,239.507 290.257,240.966 292.128,240.966L317.013,240.966C318.884,240.966 320.43,239.507 320.538,237.639L321.525,229.308C321.643,227.281 320.031,225.574 318,225.574L291.14,225.574C289.109,225.574 287.498,227.282 287.615,229.308Z" style="fill:rgb(224,224,223);fill-rule:nonzero;"/>
            </g>
            <g transform="matrix(5.55556,0,0,5.55556,13563.5,-2881.64)">
                <path d="M286.127,231.07L323.013,231.07C323.555,231.07 324.01,230.663 324.069,230.124L324.945,222.186C325.015,221.557 324.522,221.007 323.89,221.007L285.25,221.007C284.618,221.007 284.125,221.557 284.195,222.186L285.071,230.124C285.13,230.663 285.585,231.07 286.127,231.07Z" style="fill:rgb(240,240,240);fill-rule:nonzero;"/>
            </g>
            <g transform="matrix(5.55556,0,0,5.55556,13563.5,-2881.64)">
                <rect x="230.935" y="240.966" width="16.019" height="86.871" style="fill:rgb(224,224,223);fill-rule:nonzero;"/>
            </g>
            <g transform="matrix(5.55556,0,0,5.55556,13563.5,-2881.64)">
                <path d="M235.737,327.837L230.935,327.837L230.935,311.213L240.772,311.213L235.737,327.837Z" style="fill:rgb(234,235,234);fill-rule:nonzero;"/>
            </g>
            <g transform="matrix(5.55556,0,0,5.55556,13563.5,-2881.64)">
                <rect x="430.513" y="240.966" width="16.019" height="86.871" style="fill:rgb(224,224,223);fill-rule:nonzero;"/>
            </g>
            <g transform="matrix(5.55556,0,0,5.55556,13563.5,-2881.64)">
                <rect x="230.935" y="240.966" width="203.769" height="76.67" style="fill:rgb(234,235,234);fill-rule:nonzero;"/>
            </g>
            <g transform="matrix(5.55556,0,0,5.55556,13563.5,-2881.64)">
                <path d="M429.901,327.837L434.704,327.837L434.704,311.213L424.866,311.213L429.901,327.837Z" style="fill:rgb(234,235,234);fill-rule:nonzero;"/>
            </g>
            <g transform="matrix(5.55556,0,0,5.55556,13563.5,-2881.64)">
                <rect x="234.66" y="246.362" width="196.319" height="30.679" style="fill:rgb(224,224,223);fill-rule:nonzero;"/>
            </g>
            <g transform="matrix(5.55556,0,0,5.55556,13563.5,-2881.64)">
                <path d="M263.433,255.896L398.979,255.896C403.665,255.896 408.145,252.111 411.367,245.43L251.045,245.43C254.268,252.111 258.747,255.896 263.433,255.896Z" style="fill:rgb(234,235,234);fill-rule:nonzero;"/>
            </g>
            <g transform="matrix(5.55556,0,0,5.55556,13563.5,-2881.64)">
                <rect x="234.66" y="281.999" width="196.319" height="30.679" style="fill:rgb(224,224,223);fill-rule:nonzero;"/>
            </g>
            <g transform="matrix(5.55556,0,0,5.55556,13563.5,-2881.64)">
                <path d="M263.433,291.533L398.979,291.533C403.665,291.533 408.145,287.748 411.367,281.066L251.045,281.066C254.268,287.748 258.747,291.533 263.433,291.533Z" style="fill:rgb(234,235,234);fill-rule:nonzero;"/>
            </g>
            <g transform="matrix(5.55556,0,0,5.55556,13563.5,-2881.64)">
                <path d="M432.236,220.608C432.236,220.608 431.36,240.967 397.784,240.967C364.207,240.967 363.332,220.608 363.332,220.608L432.236,220.608Z" style="fill:rgb(240,240,240);fill-rule:nonzero;"/>
            </g>
            <g transform="matrix(5.55556,0,0,5.55556,13563.5,-2881.64)">
                <path d="M432.236,210.04C432.236,210.04 431.36,230.399 397.784,230.399C364.207,230.399 363.332,210.04 363.332,210.04L432.236,210.04Z" style="fill:rgb(240,240,240);fill-rule:nonzero;"/>
            </g>
            <g transform="matrix(5.55556,0,0,5.55556,13563.5,-2881.64)">
                <path d="M443.889,361.676C443.889,367.93 357.083,373 250,373C142.918,373 56.11,367.93 56.11,361.676C56.11,355.423 142.918,350.353 250,350.353C357.083,350.353 443.889,355.423 443.889,361.676Z" style="fill:rgb(240,240,240);fill-rule:nonzero;"/>
            </g>
            <g transform="matrix(5.55556,0,0,5.55556,13563.5,-2881.64)">
                <path d="M367.896,80.809C361.92,84.087 359.854,93.845 362.714,98.037C352.307,101.162 357.709,119.006 374.727,120.022C391.745,121.038 404.669,114.808 396.324,101.543C404.582,90.414 400.776,77.988 393.539,79.36C385.753,63.809 359.732,64.267 367.896,80.809Z" style="fill:rgb(12,43,52);fill-rule:nonzero;"/>
            </g>
            <g transform="matrix(5.55556,0,0,5.55556,13563.5,-2881.64)">
                <path d="M385.959,121.236C383.521,121.236 380.975,120.611 378.521,119.153C378.402,119.083 378.363,118.93 378.434,118.811C378.504,118.691 378.658,118.653 378.776,118.723C385.635,122.796 393.242,120.146 396.915,115.583C399.64,112.198 400.867,106.777 396.141,101.714C396.046,101.613 396.052,101.455 396.152,101.361C396.254,101.267 396.412,101.271 396.506,101.373C401.451,106.669 400.161,112.348 397.305,115.896C394.814,118.99 390.579,121.236 385.959,121.236Z" style="fill:rgb(12,43,52);fill-rule:nonzero;"/>
            </g>
            <g transform="matrix(5.55556,0,0,5.55556,13563.5,-2881.64)">
                <path d="M360.833,101.355C360.729,101.355 360.633,101.291 360.597,101.188C357.936,93.566 361.497,83.34 367.786,80.544C367.913,80.488 368.061,80.544 368.116,80.671C368.172,80.797 368.115,80.944 367.989,81.001C361.912,83.703 358.484,93.62 361.069,101.023C361.114,101.153 361.046,101.296 360.915,101.341L360.833,101.355Z" style="fill:rgb(12,43,52);fill-rule:nonzero;"/>
            </g>
            <g transform="matrix(5.55556,0,0,5.55556,13563.5,-2881.64)">
                <path d="M359.198,90.347L359.11,90.33C358.98,90.282 358.916,90.137 358.965,90.008C360.765,85.244 364.156,81.612 367.817,80.532C367.949,80.492 368.089,80.569 368.128,80.701C368.167,80.834 368.091,80.973 367.958,81.012C364.445,82.049 361.178,85.564 359.432,90.185C359.395,90.285 359.299,90.347 359.198,90.347Z" style="fill:rgb(12,43,52);fill-rule:nonzero;"/>
            </g>
            <g transform="matrix(5.55556,0,0,5.55556,13563.5,-2881.64)">
                <path d="M373.199,356.35L367.423,356.358L366.45,334.653L376.175,334.892L373.199,356.35Z" style="fill:rgb(250,171,118);fill-rule:nonzero;"/>
            </g>
            <g transform="matrix(5.55556,0,0,5.55556,13563.5,-2881.64)">
                <path d="M363.153,169.008C363.153,169.008 362.644,229.26 361.365,255.489C361.327,256.273 361.334,257.046 361.391,257.829C363.29,284.118 366.441,334.647 366.441,334.647L376.23,334.897C376.23,334.897 384.762,294.549 379.478,257.994C387.965,216.656 392.54,179.772 384.851,169.008L363.153,169.008Z" style="fill:rgb(48,115,186);fill-rule:nonzero;"/>
            </g>
            <g transform="matrix(5.55556,0,0,5.55556,13563.5,-2881.64)">
                <path d="M381.024,250.258C380.461,244.838 379.721,237.118 379.149,229.004L383.91,228.524C384.093,229.476 384.276,230.424 384.456,231.363C383.447,237.456 382.291,243.783 381.024,250.258Z" style="fill:rgb(31,104,179);fill-rule:nonzero;"/>
            </g>
            <g transform="matrix(5.55556,0,0,5.55556,13563.5,-2881.64)">
                <path d="M366.774,353.544L374.276,353.535C374.621,353.535 374.889,353.767 374.92,354.094L375.678,360.247C375.75,361.003 375.044,361.719 374.249,361.707C370.945,361.656 369.361,361.469 365.19,361.475C362.625,361.478 361.067,361.738 357.523,361.743C354.058,361.747 353.97,358.343 355.461,358.033C362.15,356.642 363.013,355.872 365.337,354.05C365.756,353.722 366.27,353.545 366.774,353.544Z" style="fill:rgb(12,43,52);fill-rule:nonzero;"/>
            </g>
            <g transform="matrix(5.55556,0,0,5.55556,13563.5,-2881.64)">
                <path d="M369.24,124.673C368.868,126.735 368.446,128.705 367.999,130.707C367.556,132.702 367.093,134.694 366.564,136.674C365.511,140.637 364.417,144.601 362.975,148.555C362.248,150.534 361.485,152.515 360.465,154.535C359.962,155.542 359.39,156.566 358.627,157.647C358.431,157.919 358.252,158.182 357.993,158.475C357.74,158.765 357.552,159.023 357.162,159.359C356.502,159.978 355.561,160.605 354.46,160.928C353.365,161.266 352.164,161.275 351.199,161.057C350.232,160.84 349.454,160.472 348.798,160.067C347.507,159.248 346.622,158.34 345.859,157.412C344.347,155.546 343.354,153.665 342.513,151.551C342.085,150.476 342.61,149.258 343.685,148.83C344.493,148.508 345.382,148.725 345.956,149.309L346.08,149.437C347.355,150.74 348.79,152.103 350.124,153.082C350.796,153.558 351.468,153.957 351.955,154.089C352.19,154.146 352.357,154.15 352.382,154.113C352.408,154.068 352.241,154.008 352.095,154.017C352.054,154.017 352.018,154.022 351.989,154.026C351.911,154.038 351.879,154.049 351.907,153.975C351.897,153.978 352.004,153.826 352.075,153.731C352.15,153.647 352.242,153.484 352.331,153.343C352.694,152.757 353.08,152.005 353.426,151.19C354.133,149.575 354.772,147.777 355.348,145.953C356.492,142.286 357.525,138.483 358.429,134.644C359.338,130.815 360.22,126.908 361.02,123.092L361.024,123.07C361.499,120.808 363.717,119.358 365.98,119.832C368.202,120.298 369.639,122.453 369.24,124.673Z" style="fill:rgb(250,171,118);fill-rule:nonzero;"/>
            </g>
            <g transform="matrix(5.55556,0,0,5.55556,13563.5,-2881.64)">
                <path d="M360.152,160.827C360.171,163.288 398.489,163.772 398.489,160.522L378.902,155.522L360.152,160.827Z" style="fill:rgb(12,43,52);fill-rule:nonzero;"/>
            </g>
            <g transform="matrix(5.55556,0,0,5.55556,13563.5,-2881.64)">
                <path d="M367.191,118.217C377.379,116.473 387.547,116.685 397.699,118.519C400.195,118.913 401.84,121.331 401.29,123.797C395.87,148.07 396.178,156.224 396.705,169.008L363.157,169.008C361.477,147.688 360.593,135.521 360.365,128.605C360.192,123.34 361.979,118.985 367.191,118.217Z" style="fill:rgb(250,171,118);fill-rule:nonzero;"/>
            </g>
            <g transform="matrix(5.55556,0,0,5.55556,13563.5,-2881.64)">
                <path d="M399.243,133.576C399.544,132.011 399.876,130.367 400.24,128.632C399.878,130.37 399.546,132.012 399.243,133.576Z" style="fill:rgb(192,193,193);fill-rule:nonzero;"/>
            </g>
            <g transform="matrix(5.55556,0,0,5.55556,13563.5,-2881.64)">
                <path d="M398.921,135.268C397.881,132.508 397.251,127.438 397.602,125.268L400.421,127.769C400.36,128.059 400.3,128.347 400.24,128.632C399.876,130.367 399.544,132.011 399.243,133.576C399.132,134.15 399.025,134.714 398.921,135.268Z" style="fill:rgb(220,144,93);fill-rule:nonzero;"/>
            </g>
            <g transform="matrix(5.55556,0,0,5.55556,13563.5,-2881.64)">
                <path d="M386.687,100.495C385.734,105.353 384.784,114.254 388.183,117.496C388.183,117.496 386.855,122.424 377.828,122.424C367.901,122.424 373.084,117.496 373.084,117.496C378.501,116.203 378.362,112.183 377.418,108.409L386.687,100.495Z" style="fill:rgb(250,171,118);fill-rule:nonzero;"/>
            </g>
            <g transform="matrix(5.55556,0,0,5.55556,13563.5,-2881.64)">
                <path d="M377.888,111.084C377.882,111.01 377.876,110.935 377.869,110.86C377.877,110.935 377.883,111.01 377.889,111.084L377.888,111.084ZM377.422,108.405L377.422,108.404L378.084,107.84L377.422,108.405Z" style="fill:rgb(2,30,39);fill-rule:nonzero;"/>
            </g>
            <g transform="matrix(5.55556,0,0,5.55556,13563.5,-2881.64)">
                <path d="M377.889,111.084C377.883,111.01 377.877,110.935 377.869,110.86C377.794,110.05 377.629,109.222 377.422,108.405L378.084,107.84L382.908,103.724C383.084,104.227 383.13,105.266 383.02,106.347C382.8,108.513 379.959,110.784 377.889,111.084Z" style="fill:rgb(220,144,93);fill-rule:nonzero;"/>
            </g>
            <g transform="matrix(5.55556,0,0,5.55556,13563.5,-2881.64)">
                <path d="M391.927,92.077C390.075,99.988 389.459,103.376 384.723,106.792C377.598,111.931 368.285,107.926 367.736,99.62C367.242,92.145 370.354,80.462 378.722,78.613C386.966,76.791 393.779,84.165 391.927,92.077Z" style="fill:rgb(250,171,118);fill-rule:nonzero;"/>
            </g>
            <g transform="matrix(5.55556,0,0,5.55556,13563.5,-2881.64)">
                <path d="M388.905,80.177C380.533,81.106 383.079,96.731 389.375,98.243C396.764,94.632 401.311,80.914 388.905,80.177Z" style="fill:rgb(12,43,52);fill-rule:nonzero;"/>
            </g>
            <g transform="matrix(5.55556,0,0,5.55556,13563.5,-2881.64)">
                <path d="M429.93,342.045L424.136,343.813L415.693,326.11L424.599,323.673L429.93,342.045Z" style="fill:rgb(250,171,118);fill-rule:nonzero;"/>
            </g>
            <g transform="matrix(5.55556,0,0,5.55556,13563.5,-2881.64)">
                <path d="M422.474,342.035L429.913,339.159C430.183,339.055 430.482,339.16 430.631,339.412L433.956,345.032C434.3,345.615 434.019,346.402 433.39,346.633C430.777,347.59 429.524,348.141 426.253,349.406C424.241,350.184 421.114,352.784 418.334,353.858C415.616,354.909 414.365,352.393 415.303,351.513C419.095,347.961 420.754,344.908 421.539,342.874C421.694,342.47 422.078,342.188 422.474,342.035Z" style="fill:rgb(12,43,52);fill-rule:nonzero;"/>
            </g>
            <g transform="matrix(5.55556,0,0,5.55556,13563.5,-2881.64)">
                <path d="M372.355,169.008C372.355,169.008 384.689,232.076 389.338,257.045C394.173,283.013 415.688,326.112 415.688,326.112L424.622,323.666C424.622,323.666 412.39,277.605 406.686,254.777C405.574,213.438 406.893,179.772 396.705,169.008L372.355,169.008Z" style="fill:rgb(48,115,186);fill-rule:nonzero;"/>
            </g>
            <g transform="matrix(5.55556,0,0,5.55556,13563.5,-2881.64)">
                <path d="M378.814,92.029C378.704,92.68 378.269,93.149 377.843,93.076C377.417,93.004 377.163,92.417 377.273,91.766C377.384,91.115 377.819,90.646 378.245,90.719C378.67,90.791 378.925,91.378 378.814,92.029Z" style="fill:rgb(12,43,52);fill-rule:nonzero;"/>
            </g>
            <g transform="matrix(5.55556,0,0,5.55556,13563.5,-2881.64)">
                <path d="M371.456,90.776C371.345,91.427 370.91,91.896 370.485,91.823C370.059,91.751 369.804,91.164 369.915,90.514C370.026,89.862 370.46,89.393 370.886,89.466C371.312,89.538 371.567,90.125 371.456,90.776Z" style="fill:rgb(12,43,52);fill-rule:nonzero;"/>
            </g>
            <g transform="matrix(5.55556,0,0,5.55556,13563.5,-2881.64)">
                <path d="M371.068,89.534L369.581,88.817C369.581,88.817 370.175,90.175 371.068,89.534Z" style="fill:rgb(12,43,52);fill-rule:nonzero;"/>
            </g>
            <g transform="matrix(5.55556,0,0,5.55556,13563.5,-2881.64)">
                <path d="M373.525,92.335C373.525,92.335 371.943,94.949 370.497,96.095C371.22,97.043 372.743,96.925 372.743,96.925L373.525,92.335Z" style="fill:rgb(246,137,73);fill-rule:nonzero;"/>
            </g>
            <g transform="matrix(5.55556,0,0,5.55556,13563.5,-2881.64)">
                <path d="M375.86,100.079C375.552,100.074 375.229,100.046 374.889,99.988C374.783,99.97 374.711,99.87 374.73,99.764C374.748,99.658 374.856,99.589 374.953,99.606C377.819,100.093 379.484,98.324 379.501,98.306L379.775,98.295L379.786,98.569C379.72,98.64 378.321,100.118 375.86,100.079Z" style="fill:rgb(12,43,52);fill-rule:nonzero;"/>
            </g>
            <g transform="matrix(5.55556,0,0,5.55556,13563.5,-2881.64)">
                <path d="M393.067,98.895C392.233,100.359 390.801,101.3 389.46,101.644C387.443,102.162 386.479,100.348 387.076,98.467C387.614,96.775 389.312,94.466 391.318,94.782C393.295,95.093 394.021,97.222 393.067,98.895Z" style="fill:rgb(250,171,118);fill-rule:nonzero;"/>
            </g>
            <g transform="matrix(5.55556,0,0,5.55556,13563.5,-2881.64)">
                <path d="M382.023,91.033C381.86,91.03 381.709,90.924 381.659,90.759C381.13,89.045 378.938,88.313 378.917,88.306C378.713,88.239 378.602,88.02 378.668,87.817C378.733,87.613 378.952,87.501 379.157,87.568C379.263,87.603 381.754,88.436 382.4,90.53C382.463,90.735 382.348,90.952 382.144,91.016L382.023,91.033Z" style="fill:rgb(12,43,52);fill-rule:nonzero;"/>
            </g>
            <g transform="matrix(5.55556,0,0,5.55556,13563.5,-2881.64)">
                <path d="M369.824,87C369.691,86.998 369.563,86.928 369.493,86.805C369.386,86.62 369.451,86.382 369.636,86.276C371.497,85.209 373.102,86.005 373.168,86.039C373.359,86.137 373.435,86.37 373.337,86.561C373.241,86.751 373.008,86.827 372.817,86.731C372.764,86.705 371.508,86.097 370.022,86.949L369.824,87Z" style="fill:rgb(12,43,52);fill-rule:nonzero;"/>
            </g>
            <g transform="matrix(5.55556,0,0,5.55556,13563.5,-2881.64)">
                <path d="M400.444,119.906C403.294,123.635 405.877,127.406 408.336,131.387C409.564,133.371 410.76,135.39 411.856,137.516C412.957,139.655 414.012,141.806 414.814,144.431C414.919,144.747 415.004,145.117 415.095,145.464L415.165,145.755L415.246,146.177C415.287,146.448 415.318,146.717 415.332,146.966C415.386,147.966 415.284,148.804 415.142,149.559C414.838,151.062 414.371,152.305 413.873,153.489C412.87,155.841 411.649,157.901 410.394,159.911C407.832,163.899 405.008,167.528 401.883,171.015C401.115,171.871 399.799,171.942 398.943,171.175C398.198,170.507 398.047,169.424 398.526,168.59L398.555,168.541C400.765,164.69 402.951,160.733 404.836,156.809C405.783,154.855 406.63,152.863 407.253,150.976C407.556,150.04 407.78,149.109 407.851,148.372C407.894,148.01 407.878,147.709 407.848,147.578L407.827,147.522L407.821,147.528L407.779,147.409C407.709,147.212 407.661,147.03 407.57,146.813C406.925,145.132 405.894,143.229 404.826,141.389C403.729,139.542 402.563,137.684 401.355,135.842C398.919,132.181 396.317,128.498 393.757,124.942L393.722,124.893C392.372,123.018 392.797,120.402 394.673,119.051C396.515,117.725 399.073,118.117 400.444,119.906Z" style="fill:rgb(250,171,118);fill-rule:nonzero;"/>
            </g>
            <g transform="matrix(5.55556,0,0,5.55556,13563.5,-2881.64)">
                <path d="M378.426,90.787L376.939,90.07C376.939,90.07 377.534,91.428 378.426,90.787Z" style="fill:rgb(12,43,52);fill-rule:nonzero;"/>
            </g>
            <g transform="matrix(5.55556,0,0,5.55556,13563.5,-2881.64)">
                <path d="M361.307,126.216C362.389,121.879 363.688,118.807 363.688,118.807C363.688,118.807 366.316,118.022 368.384,117.813C369.328,118.661 373.525,122.424 376.217,127.994C380.512,123.661 388.717,119.272 393.717,117.669C396.246,117.418 398.767,118.3 398.767,118.3C395.36,129.059 391.879,139.883 398.046,142.661C397.943,147.772 398.235,154.105 398.489,160.522C392.655,159.883 369.537,158.772 360.152,160.827C359.67,154.33 359.495,148.791 359.528,144.078C355.106,138.494 359.49,130.915 361.307,126.216Z" style="fill:rgb(12,43,52);fill-rule:nonzero;"/>
                <clipPath id="_clip1">
                    <path d="M361.307,126.216C362.389,121.879 363.688,118.807 363.688,118.807C363.688,118.807 366.316,118.022 368.384,117.813C369.328,118.661 373.525,122.424 376.217,127.994C380.512,123.661 388.717,119.272 393.717,117.669C396.246,117.418 398.767,118.3 398.767,118.3C395.36,129.059 391.879,139.883 398.046,142.661C397.943,147.772 398.235,154.105 398.489,160.522C392.655,159.883 369.537,158.772 360.152,160.827C359.67,154.33 359.495,148.791 359.528,144.078C355.106,138.494 359.49,130.915 361.307,126.216Z" clip-rule="nonzero"/>
                </clipPath>
                <g clip-path="url(#_clip1)">
                    <path d="M359.582,149.677C359.572,149.265 359.563,148.858 359.555,148.456C360.321,148.243 361.253,148.109 362.227,148.109C363.112,148.109 364.03,148.22 364.886,148.482C364.256,147.873 363.658,147.275 363.096,146.695C362.801,146.78 362.141,146.937 361.28,146.937C360.758,146.937 360.163,146.879 359.531,146.713C359.526,146.199 359.524,145.694 359.524,145.198C359.524,144.832 359.525,144.47 359.528,144.114C360.085,144.237 360.65,144.415 361.192,144.652C360.566,143.949 360.017,143.295 359.553,142.705C359.365,142.674 358.966,142.589 358.47,142.381C357.877,141.128 357.628,139.806 357.616,138.464C358.664,139.39 359.612,140.705 359.963,142.258C360.806,143.336 361.949,144.641 363.32,146.065C362.388,143.87 362.575,141.122 363.188,139.756C363.232,139.659 363.323,139.592 363.429,139.581C363.44,139.58 363.451,139.579 363.462,139.579C363.556,139.579 363.645,139.623 363.702,139.699C366.579,143.537 364.534,147.23 364.512,147.267L364.508,147.273C365.076,147.838 365.674,148.416 366.298,149L359.582,149.677ZM366.786,148.951C366.173,146.913 366.382,144.609 366.926,143.396C366.969,143.299 367.061,143.232 367.166,143.221C367.178,143.219 367.189,143.219 367.2,143.219C367.293,143.219 367.383,143.263 367.439,143.338C368.944,145.346 369.103,147.312 368.909,148.737L366.786,148.951ZM369.767,148.651C369.829,147.759 370.009,146.967 370.261,146.407C370.304,146.31 370.395,146.243 370.501,146.231C370.512,146.23 370.523,146.229 370.534,146.229C370.628,146.229 370.717,146.273 370.774,146.349C371.304,147.057 371.667,147.76 371.907,148.435L369.767,148.651Z" style="fill:rgb(69,87,93);fill-rule:nonzero;"/>
                    <path d="M376.113,139.926C376.093,139.926 376.073,139.924 376.052,139.919C374.449,139.586 371.819,137.545 371.177,134.709C370.334,133.63 369.191,132.325 367.82,130.901C368.752,133.097 368.564,135.845 367.951,137.21C367.908,137.307 367.816,137.374 367.711,137.386C367.7,137.387 367.689,137.387 367.678,137.387C367.585,137.387 367.495,137.344 367.438,137.268C364.561,133.429 366.606,129.736 366.627,129.699L366.632,129.693C365.837,128.904 364.984,128.088 364.083,127.264C365.015,129.459 364.827,132.206 364.214,133.571C364.17,133.667 364.079,133.734 363.973,133.746C363.962,133.747 363.951,133.748 363.94,133.748C363.846,133.748 363.757,133.704 363.701,133.628C361.07,130.119 362.553,126.733 362.843,126.149C362.437,125.792 362.024,125.434 361.603,125.077C361.752,124.526 361.903,124.002 362.051,123.508C362.581,123.339 363.375,123.155 364.324,123.155C365.659,123.155 367.301,123.519 368.945,124.8C369.03,124.865 369.073,124.971 369.058,125.077C369.043,125.183 368.973,125.274 368.874,125.314C368.222,125.58 367.267,125.745 366.211,125.745C364.958,125.745 363.563,125.512 362.363,124.937C363.285,125.728 364.169,126.522 365.011,127.305C365.426,127.076 366.783,126.416 368.608,126.416C369.806,126.416 371.207,126.701 372.674,127.58C372.767,127.636 372.823,127.738 372.819,127.847C372.816,127.955 372.754,128.054 372.658,128.103C371.817,128.54 370.413,128.858 368.913,128.858C368.028,128.858 367.109,128.747 366.254,128.484C366.883,129.094 367.481,129.692 368.044,130.271C368.339,130.186 368.999,130.03 369.86,130.03C371.302,130.03 373.305,130.469 375.097,132.421C375.168,132.498 375.194,132.607 375.165,132.707C375.135,132.808 375.055,132.886 374.954,132.913C374.567,133.016 374.087,133.072 373.553,133.072C372.462,133.072 371.148,132.84 369.948,132.314C370.574,133.017 371.123,133.672 371.587,134.261C372.245,134.371 375.511,135.139 376.407,139.567C376.427,139.665 376.392,139.775 376.325,139.838C376.268,139.895 376.192,139.926 376.113,139.926ZM360.606,130.737C360.512,130.737 360.423,130.693 360.366,130.617C360.157,130.338 359.974,130.06 359.814,129.784C360.351,128.497 360.887,127.299 361.296,126.245C361.538,127.918 361.315,129.589 360.879,130.56C360.836,130.656 360.744,130.724 360.639,130.735C360.628,130.736 360.617,130.737 360.606,130.737Z" style="fill:rgb(69,87,93);fill-rule:nonzero;"/>
                    <path d="M377.122,147.91C376.516,147.145 375.99,146.105 375.705,144.695C375.685,144.596 375.72,144.487 375.787,144.423C375.844,144.367 375.92,144.336 375.999,144.336C376.019,144.336 376.039,144.338 376.06,144.342C377.266,144.593 379.053,145.81 380.138,147.606L377.122,147.91ZM384.095,147.207C384.116,147.153 384.138,147.101 384.161,147.051C384.204,146.955 384.295,146.887 384.4,146.876C384.412,146.875 384.423,146.874 384.434,146.874C384.528,146.874 384.617,146.918 384.674,146.994C384.71,147.042 384.745,147.09 384.779,147.138L384.095,147.207Z" style="fill:rgb(69,87,93);fill-rule:nonzero;"/>
                    <path d="M398.488,160.492C397.738,160.126 396.972,159.582 396.24,158.785C396.169,158.708 396.144,158.599 396.173,158.498C396.203,158.398 396.283,158.32 396.384,158.293C396.771,158.19 397.251,158.134 397.784,158.134C397.981,158.134 398.185,158.142 398.394,158.157C398.425,158.933 398.457,159.712 398.488,160.492ZM398.326,156.464C397.107,155.857 395.515,154.526 394.931,151.639C394.911,151.54 394.946,151.431 395.013,151.367C395.07,151.311 395.146,151.28 395.224,151.28C395.245,151.28 395.265,151.282 395.286,151.287C396.12,151.46 397.233,152.096 398.198,153.066C398.237,154.184 398.281,155.318 398.326,156.464Z" style="fill:rgb(69,87,93);fill-rule:nonzero;"/>
                    <path d="M393.557,128.772C393.494,128.772 393.431,128.752 393.377,128.712C392.758,128.248 392.148,127.776 391.548,127.297L391.415,127.198L391.405,127.183C391.024,126.878 390.647,126.571 390.275,126.263L390.208,126.376L390.135,126.43C390.113,126.441 388.892,127.061 387.148,127.061C385.812,127.061 384.17,126.697 382.526,125.417C382.442,125.351 382.399,125.245 382.414,125.139C382.428,125.033 382.499,124.943 382.597,124.903C383.25,124.637 384.205,124.471 385.261,124.471C386.514,124.471 387.909,124.704 389.108,125.279C388.187,124.488 387.302,123.694 386.46,122.911C386.045,123.14 384.688,123.8 382.863,123.8C382.471,123.8 382.057,123.77 381.626,123.698C382.705,122.985 383.83,122.3 384.963,121.659C385.049,121.682 385.133,121.706 385.218,121.732C385.17,121.687 385.123,121.641 385.076,121.595C385.258,121.493 385.441,121.391 385.623,121.291C386.187,121.837 386.776,122.393 387.388,122.952C387.079,122.225 386.894,121.436 386.806,120.658C387.595,120.246 388.379,119.859 389.142,119.504C389.652,121.804 388.836,123.65 388.628,124.067C389.282,124.644 389.957,125.221 390.648,125.794C389.797,123.629 389.996,120.986 390.592,119.657C390.636,119.56 390.727,119.493 390.832,119.481C390.844,119.48 390.855,119.48 390.866,119.48C390.959,119.48 391.049,119.524 391.105,119.6C393.557,122.869 392.436,126.032 392.037,126.921C392.595,127.363 393.162,127.802 393.737,128.232C393.869,128.331 393.896,128.519 393.797,128.652L393.769,128.684C393.711,128.742 393.634,128.772 393.557,128.772Z" style="fill:rgb(69,87,93);fill-rule:nonzero;"/>
                    <path d="M396.807,147.592C396.787,147.592 396.766,147.59 396.746,147.586C395.143,147.253 392.513,145.211 391.871,142.375C391.028,141.297 389.885,139.992 388.514,138.568C389.446,140.764 389.259,143.511 388.645,144.877C388.602,144.974 388.511,145.041 388.405,145.052C388.394,145.053 388.383,145.054 388.372,145.054C388.278,145.054 388.189,145.01 388.132,144.934C385.255,141.096 387.301,137.403 387.322,137.366L387.326,137.36C386.532,136.57 385.678,135.755 384.778,134.931C385.708,137.126 385.521,139.872 384.908,141.237C384.865,141.334 384.773,141.401 384.667,141.413C384.656,141.414 384.645,141.414 384.634,141.414C384.54,141.414 384.451,141.37 384.394,141.294C381.764,137.786 383.247,134.4 383.537,133.816C382.883,133.239 382.208,132.662 381.518,132.089C382.368,134.254 382.17,136.896 381.573,138.226C381.53,138.323 381.438,138.39 381.333,138.402C381.322,138.403 381.311,138.403 381.3,138.403C381.206,138.403 381.117,138.359 381.06,138.284C378.609,135.014 379.73,131.851 380.129,130.963C379.57,130.519 379.003,130.081 378.429,129.651C378.297,129.552 378.27,129.364 378.369,129.231L378.397,129.199C378.455,129.141 378.531,129.111 378.609,129.111C378.672,129.111 378.735,129.131 378.789,129.171C379.407,129.635 380.017,130.108 380.617,130.586L380.751,130.685L380.761,130.7C381.142,131.005 381.519,131.312 381.891,131.62L381.958,131.507L382.031,131.454C382.052,131.442 383.273,130.822 385.018,130.822C386.353,130.822 387.996,131.186 389.64,132.467C389.724,132.532 389.767,132.638 389.752,132.744C389.737,132.85 389.667,132.94 389.568,132.98C388.916,133.246 387.961,133.412 386.905,133.412C385.652,133.412 384.257,133.179 383.058,132.604C383.979,133.395 384.864,134.189 385.705,134.972C386.12,134.743 387.478,134.083 389.302,134.083C390.501,134.083 391.901,134.368 393.368,135.247C393.461,135.303 393.517,135.405 393.514,135.513C393.51,135.622 393.448,135.721 393.352,135.77C392.511,136.206 391.107,136.524 389.607,136.524C388.722,136.524 387.803,136.413 386.948,136.151C387.578,136.76 388.176,137.358 388.738,137.938C389.033,137.853 389.693,137.696 390.554,137.696C391.832,137.696 393.55,138.041 395.172,139.478C395.31,139.867 395.479,140.232 395.68,140.569C395.669,140.573 395.659,140.577 395.648,140.58C395.261,140.683 394.781,140.738 394.248,140.738C393.157,140.738 391.842,140.507 390.642,139.981C391.268,140.684 391.817,141.338 392.281,141.928C392.939,142.038 396.205,142.805 397.101,147.233C397.121,147.332 397.085,147.441 397.019,147.505C396.962,147.562 396.886,147.592 396.807,147.592Z" style="fill:rgb(69,87,93);fill-rule:nonzero;"/>
                </g>
            </g>
            <g transform="matrix(5.55556,0,0,5.55556,13563.5,-2881.64)">
                <path d="M385.723,147.043L318.729,153.795C315.02,154.169 312.291,157.509 312.665,161.218L314.974,184.128C316.638,182.952 318.614,182.172 320.785,181.953C327.501,181.276 333.495,186.172 334.171,192.888C334.848,199.604 329.953,205.597 323.236,206.274C321.065,206.493 318.973,206.122 317.108,205.303L319.417,228.212C319.791,231.921 323.131,234.65 326.84,234.276L393.834,227.524C397.543,227.15 400.272,223.81 399.898,220.101L393.146,153.107C392.772,149.397 389.432,146.669 385.723,147.043Z" style="fill:rgb(48,115,186);fill-rule:nonzero;"/>
            </g>
            <g transform="matrix(5.55556,0,0,5.55556,13563.5,-2881.64)">
                <path d="M326.16,234.31C324.228,234.31 322.443,233.479 321.191,232.13C320.889,231.805 320.618,231.45 320.384,231.07C319.864,230.227 319.522,229.259 319.417,228.212L317.108,205.303C318.619,205.967 320.279,206.336 322.009,206.336C322.415,206.336 322.824,206.315 323.236,206.274C329.533,205.639 334.229,200.332 334.234,194.137C334.234,193.724 334.214,193.307 334.171,192.888C333.836,189.56 332.195,186.679 329.808,184.701C327.676,182.935 324.95,181.89 322.026,181.89C321.616,181.89 321.202,181.911 320.785,181.953C319.048,182.128 317.436,182.663 316.009,183.471C315.652,183.673 315.307,183.893 314.974,184.128L314.161,176.057L312.772,162.275L312.665,161.218C312.642,160.986 312.63,160.756 312.631,160.528C312.636,157.103 315.252,154.145 318.729,153.795L385.723,147.043C385.952,147.02 386.178,147.008 386.403,147.008C389.832,147.008 392.796,149.626 393.146,153.107L399.898,220.101C399.922,220.333 399.933,220.563 399.933,220.791C399.927,224.215 397.312,227.173 393.834,227.524L383.91,228.524L379.149,229.004L362.189,230.713L326.84,234.276C326.612,234.299 326.385,234.31 326.16,234.31Z" style="fill:rgb(13,96,174);fill-rule:nonzero;"/>
            </g>
            <g transform="matrix(5.55556,0,0,5.55556,13563.5,-2881.64)">
                <path d="M404.019,167.586L400.922,166.234L393.645,168.1C392.808,168.315 392.068,168.803 391.542,169.487L390.003,171.487C389.3,172.402 389.354,173.689 390.131,174.541L391.875,176.454C392.742,177.404 394.207,177.493 395.183,176.656L399.133,173.265C399.133,173.265 403.871,170.987 404.019,167.586Z" style="fill:rgb(250,171,118);fill-rule:nonzero;"/>
            </g>
            <g transform="matrix(5.55556,0,0,5.55556,13563.5,-2881.64)">
                <path d="M340.886,155.099L344.109,154.692C344.997,154.58 345.707,153.901 345.858,153.019L346.298,150.463C346.522,149.161 345.465,147.995 344.148,148.089L340.39,148.359C339.298,148.438 338.465,149.366 338.503,150.46L338.599,153.154C338.641,154.349 339.7,155.249 340.886,155.099Z" style="fill:rgb(250,171,118);fill-rule:nonzero;"/>
            </g>
            <g transform="matrix(5.55556,0,0,5.55556,13563.5,-2881.64)">
                <path d="M391,81.606C383.056,85.606 369.111,83.772 369.111,83.772C369.111,83.772 376.889,71.05 391,81.606Z" style="fill:rgb(12,43,52);fill-rule:nonzero;"/>
            </g>
            <g transform="matrix(5.55556,0,0,5.55556,13563.5,-2881.64)">
                <path d="M251.284,335.332L247.287,356.098L237.186,353.654L241.183,332.888L251.284,335.332Z" style="fill:rgb(139,61,62);fill-rule:nonzero;"/>
            </g>
            <g transform="matrix(5.55556,0,0,5.55556,13563.5,-2881.64)">
                <path d="M237.505,349.417L248.737,351.854C249.105,351.934 249.343,352.255 249.308,352.625L248.532,360.874C248.452,361.729 247.57,362.363 246.725,362.163C243.194,361.327 242.136,360.81 237.674,359.833C232.458,358.691 230.609,358.999 224.492,357.66C220.793,356.85 220.959,352.973 222.616,352.962C227.857,352.928 232.411,351.307 235.111,349.63C235.818,349.191 236.728,349.246 237.505,349.417Z" style="fill:rgb(12,43,52);fill-rule:nonzero;"/>
            </g>
            <g transform="matrix(5.55556,0,0,5.55556,13563.5,-2881.64)">
                <path d="M249.227,346.042L249.222,346.041L249.749,343.303L249.754,343.304L249.227,346.042Z" style="fill:rgb(195,197,197);fill-rule:nonzero;"/>
            </g>
            <g transform="matrix(5.55556,0,0,5.55556,13563.5,-2881.64)">
                <path d="M249.222,346.041L239.122,343.598L239.606,341.082L249.749,343.303L249.222,346.041Z" style="fill:rgb(109,44,45);fill-rule:nonzero;"/>
            </g>
            <g transform="matrix(5.55556,0,0,5.55556,13563.5,-2881.64)">
                <path d="M268.856,255.338C280.706,220.481 290.091,179.365 290.091,179.365L256.288,177.232C256.288,177.232 251.308,230.608 248.712,255.215C246.012,280.8 237.616,338.553 237.616,338.553L252.865,341.642C252.865,341.642 267.172,287.236 268.856,255.338Z" style="fill:rgb(12,43,52);fill-rule:nonzero;"/>
            </g>
            <g transform="matrix(5.55556,0,0,5.55556,13563.5,-2881.64)">
                <path d="M275.487,234.501C275.486,234.496 275.486,234.492 275.485,234.487C276.27,231.864 277.033,229.258 277.774,226.687L277.774,226.69C277.034,229.264 276.271,231.874 275.487,234.501Z" style="fill:rgb(202,208,209);fill-rule:nonzero;"/>
            </g>
            <g transform="matrix(5.55556,0,0,5.55556,13563.5,-2881.64)">
                <path d="M275.485,234.487C274.922,230.304 274.559,226.23 274.335,222.418C274.871,221.635 275.249,220.728 275.416,219.736L275.912,216.794C276.523,220.071 277.148,223.391 277.774,226.687C277.033,229.258 276.27,231.864 275.485,234.487Z" style="fill:rgb(12,43,52);fill-rule:nonzero;"/>
            </g>
            <g transform="matrix(5.55556,0,0,5.55556,13563.5,-2881.64)">
                <path d="M237.843,340.696L251.824,343.758C252.399,343.883 252.977,343.558 253.168,343.002L254.714,338.492C254.936,337.844 254.55,337.145 253.883,336.989L238.708,333.421C238.013,333.257 237.337,333.755 237.287,334.467L236.935,339.483C236.896,340.057 237.282,340.573 237.843,340.696Z" style="fill:rgb(12,43,52);fill-rule:nonzero;"/>
            </g>
            <g transform="matrix(5.55556,0,0,5.55556,13563.5,-2881.64)">
                <path d="M252.073,343.785C251.991,343.785 251.907,343.776 251.824,343.758L249.749,343.303L239.606,341.082L237.843,340.696C237.308,340.578 236.932,340.104 236.933,339.563C236.933,339.537 236.934,339.51 236.935,339.483L237.287,334.467C237.33,333.847 237.849,333.389 238.441,333.389C238.528,333.389 238.618,333.399 238.708,333.421L253.883,336.989C254.422,337.115 254.778,337.596 254.777,338.118C254.777,338.242 254.756,338.368 254.714,338.492L253.168,343.002C253.005,343.478 252.558,343.785 252.073,343.785Z" style="fill:rgb(44,66,72);fill-rule:nonzero;"/>
            </g>
            <g transform="matrix(5.55556,0,0,5.55556,13563.5,-2881.64)">
                <path d="M306.879,334.611L307.507,356.04L297.257,355.895L296.63,334.466L306.879,334.611Z" style="fill:rgb(139,61,62);fill-rule:nonzero;"/>
            </g>
            <g transform="matrix(5.55556,0,0,5.55556,13563.5,-2881.64)">
                <path d="M297.013,351.501L307.91,351.659C308.287,351.665 308.583,351.933 308.623,352.302L309.5,360.541C309.591,361.395 308.853,362.192 307.984,362.163C304.358,362.044 303.218,361.748 298.651,361.677C293.313,361.593 292.157,362.262 285.896,362.164C282.109,362.104 281.503,358.272 283.125,357.932C288.255,356.858 292.396,354.365 294.709,352.186C295.315,351.615 296.217,351.489 297.013,351.501Z" style="fill:rgb(12,43,52);fill-rule:nonzero;"/>
            </g>
            <g transform="matrix(5.55556,0,0,5.55556,13563.5,-2881.64)">
                <path d="M307.207,345.663L307.203,345.662L307.12,342.85L307.125,342.85L307.207,345.663Z" style="fill:rgb(195,197,197);fill-rule:nonzero;"/>
            </g>
            <g transform="matrix(5.55556,0,0,5.55556,13563.5,-2881.64)">
                <path d="M307.203,345.662L296.954,345.518L296.872,342.689L307.12,342.85L307.203,345.662Z" style="fill:rgb(109,44,45);fill-rule:nonzero;"/>
            </g>
            <g transform="matrix(5.55556,0,0,5.55556,13563.5,-2881.64)">
                <path d="M304.327,254.633C301.433,217.956 303.882,198.177 299.62,179.966L268.856,178.059C268.856,178.059 278.406,231.956 283.681,256.343C288.977,280.825 294.619,339.941 294.619,339.941L309.741,340.127C309.741,340.127 311.591,283.243 304.327,254.633Z" style="fill:rgb(12,43,52);fill-rule:nonzero;"/>
            </g>
            <g transform="matrix(5.55556,0,0,5.55556,13563.5,-2881.64)">
                <path d="M294.664,342.654L308.966,342.879C309.583,342.888 310.099,342.413 310.14,341.798L310.454,337.074C310.497,336.42 309.989,335.86 309.334,335.839L293.759,335.356C293.017,335.333 292.445,336.004 292.585,336.732L293.545,341.715C293.648,342.253 294.116,342.645 294.664,342.654Z" style="fill:rgb(12,43,52);fill-rule:nonzero;"/>
            </g>
            <g transform="matrix(5.55556,0,0,5.55556,13563.5,-2881.64)">
                <path d="M308.984,342.879L308.966,342.879L307.12,342.85L296.872,342.689L294.664,342.654C294.116,342.645 293.648,342.253 293.545,341.715L292.585,336.732C292.571,336.657 292.564,336.582 292.564,336.508C292.566,335.884 293.074,335.355 293.722,335.355C293.734,335.355 293.746,335.355 293.759,335.356L309.334,335.839C309.964,335.859 310.457,336.377 310.456,336.998C310.456,337.023 310.455,337.048 310.454,337.074L310.21,340.744L310.193,340.994L310.14,341.798C310.099,342.407 309.593,342.879 308.984,342.879Z" style="fill:rgb(44,66,72);fill-rule:nonzero;"/>
            </g>
            <g transform="matrix(5.55556,0,0,5.55556,13563.5,-2881.64)">
                <path d="M267.871,121.643C266.686,124.196 265.465,126.456 264.123,128.792C262.782,131.097 261.368,133.375 259.806,135.599C258.254,137.832 256.577,140.023 254.651,142.151C252.686,144.278 250.605,146.381 247.475,148.225L247.129,148.429C245.889,149.16 244.438,149.272 243.166,148.867C241.223,148.24 239.329,147.529 237.484,146.765C235.635,146.008 233.834,145.164 232.061,144.293C230.295,143.403 228.557,142.476 226.856,141.482C225.151,140.475 223.505,139.457 221.845,138.27C220.455,137.276 220.134,135.343 221.128,133.953C221.885,132.896 223.184,132.457 224.374,132.746L224.484,132.773C226.272,133.211 228.115,133.727 229.921,134.202L235.334,135.628C237.123,136.117 238.921,136.528 240.69,136.967C242.463,137.399 244.23,137.751 245.968,138.113L241.66,138.755C242.862,137.887 244.344,136.253 245.703,134.542C247.066,132.781 248.385,130.843 249.659,128.84C250.917,126.822 252.16,124.752 253.343,122.633C254.522,120.544 255.719,118.318 256.781,116.3L256.842,116.185C258.424,113.177 262.147,112.022 265.155,113.605C268.067,115.138 269.236,118.69 267.871,121.643Z" style="fill:rgb(139,61,62);fill-rule:nonzero;"/>
            </g>
            <g transform="matrix(5.55556,0,0,5.55556,13563.5,-2881.64)">
                <path d="M270.33,104.169C258.388,105.528 249.353,124.018 249.353,124.018L261.674,137.131C261.674,137.131 267.161,130.584 273.058,122.316C279.481,113.31 279.776,103.094 270.33,104.169Z" style="fill:rgb(48,115,186);fill-rule:nonzero;"/>
            </g>
            <g transform="matrix(5.55556,0,0,5.55556,13563.5,-2881.64)">
                <path d="M268.856,106.936C273.448,105.306 294.007,107.938 294.007,107.938C289.987,113.098 286.668,155.823 286.298,180.386C281.933,180.985 265.175,179.84 261.289,178.938C261.802,169.296 265.822,124.083 268.856,106.936Z" style="fill:white;fill-rule:nonzero;"/>
            </g>
            <g transform="matrix(5.55556,0,0,5.55556,13563.5,-2881.64)">
                <path d="M255.586,119.901C256.664,110.698 264.53,103.85 273.795,103.84C281.902,103.831 291.239,104.913 299.354,106.658C304.847,107.839 308.286,113.322 306.982,118.788C300.649,145.342 302.321,170.533 300.628,182.244C300.628,182.244 292.495,185.651 281.79,185.291C281.79,185.291 281.936,175.176 283.345,158.105C284.465,144.536 286.484,112.63 290.619,107.324C290.619,107.324 275.783,105.306 271.191,106.936C267.785,126.189 265.278,184.5 265.278,184.511C258.021,183.993 254.603,179.953 254.707,178.747C253.258,155.116 253.969,133.725 255.586,119.901Z" style="fill:rgb(48,115,186);fill-rule:nonzero;"/>
            </g>
            <g transform="matrix(5.55556,0,0,5.55556,13563.5,-2881.64)">
                <path d="M291.166,90.367C289.782,94.376 288.17,101.454 290.742,105.441C291.268,106.257 291.043,107.21 290.113,107.722C286.834,109.527 282.618,111.165 276.464,110.662C270.015,110.134 270.488,107.231 272.117,105.336C272.461,104.935 273.003,104.651 273.635,104.575C279.731,103.844 279.795,100.174 278.913,96.616L291.166,90.367Z" style="fill:rgb(139,61,62);fill-rule:nonzero;"/>
            </g>
            <g transform="matrix(5.55556,0,0,5.55556,13563.5,-2881.64)">
                <path d="M279.314,99.221C279.313,99.166 279.312,99.11 279.309,99.054C279.312,99.11 279.315,99.165 279.316,99.221L279.314,99.221ZM278.918,96.613L278.918,96.612L279.891,96.117L278.918,96.613Z" style="fill:rgb(192,193,193);fill-rule:nonzero;"/>
            </g>
            <g transform="matrix(5.55556,0,0,5.55556,13563.5,-2881.64)">
                <path d="M279.316,99.221C279.315,99.165 279.312,99.11 279.309,99.054C279.277,98.26 279.126,97.434 278.918,96.613L279.891,96.117L286.17,92.917C286.356,93.419 286.339,94.412 286.124,95.423C285.693,97.451 281.947,99.219 279.316,99.221Z" style="fill:rgb(109,44,45);fill-rule:nonzero;"/>
            </g>
            <g transform="matrix(5.55556,0,0,5.55556,13563.5,-2881.64)">
                <path d="M281.496,76.465C281.223,80.074 278.818,82.834 276.125,82.631C273.43,82.427 271.467,79.337 271.74,75.729C272.012,72.12 274.417,69.36 277.111,69.564C279.805,69.767 281.768,72.857 281.496,76.465Z" style="fill:rgb(12,43,52);fill-rule:nonzero;"/>
            </g>
            <g transform="matrix(5.55556,0,0,5.55556,13563.5,-2881.64)">
                <path d="M295.088,79.435C293.75,87.333 293.362,92.022 288.979,95.687C282.386,101.198 273.144,96.544 272.137,88.413C271.231,81.095 273.571,69.409 281.553,67.05C289.417,64.727 296.425,71.537 295.088,79.435Z" style="fill:rgb(139,61,62);fill-rule:nonzero;"/>
            </g>
            <g transform="matrix(5.55556,0,0,5.55556,13563.5,-2881.64)">
                <path d="M293.373,86.106C293.274,86.082 293.15,85.98 293.042,86.04C289.456,88.035 288.303,83.739 288.525,80.883C288.664,79.091 289.6,77.106 291.166,75.994C287.29,76.439 283.533,73.939 283.467,71.606C279.178,73.495 274.012,73.661 271.678,69.606C269.345,65.55 272.677,60.383 277.122,61.772C275.319,58.55 282.928,52.106 290.9,61.606C291.15,54.717 302.29,61.564 300.456,68.383C305.623,70.161 310.04,79.958 301.29,82.05C300.706,91.133 293.373,86.106 293.373,86.106Z" style="fill:rgb(12,43,52);fill-rule:nonzero;"/>
            </g>
            <g transform="matrix(5.55556,0,0,5.55556,13563.5,-2881.64)">
                <path d="M297.587,88.586C296.22,90.244 294.344,91.141 292.749,91.314C290.349,91.574 289.821,89.141 291.05,86.922C292.157,84.925 294.738,82.383 296.876,83.154C298.982,83.914 299.151,86.692 297.587,88.586Z" style="fill:rgb(139,61,62);fill-rule:nonzero;"/>
            </g>
            <g transform="matrix(5.55556,0,0,5.55556,13563.5,-2881.64)">
                <path d="M283.646,80.033C283.588,80.685 283.196,81.18 282.77,81.139C282.343,81.098 282.044,80.536 282.101,79.883C282.159,79.231 282.551,78.736 282.977,78.777C283.403,78.819 283.703,79.381 283.646,80.033Z" style="fill:rgb(12,43,52);fill-rule:nonzero;"/>
            </g>
            <g transform="matrix(5.55556,0,0,5.55556,13563.5,-2881.64)">
                <path d="M275.897,79.166C275.84,79.818 275.448,80.313 275.021,80.272C274.595,80.231 274.295,79.668 274.353,79.016C274.41,78.364 274.802,77.869 275.229,77.91C275.655,77.952 275.955,78.514 275.897,79.166Z" style="fill:rgb(12,43,52);fill-rule:nonzero;"/>
            </g>
            <g transform="matrix(5.55556,0,0,5.55556,13563.5,-2881.64)">
                <path d="M278.925,79.543C278.925,79.543 277.111,83.162 275.319,84.818C276.378,86.007 278.384,85.705 278.384,85.705L278.925,79.543Z" style="fill:rgb(110,13,15);fill-rule:nonzero;"/>
            </g>
            <g transform="matrix(5.55556,0,0,5.55556,13563.5,-2881.64)">
                <path d="M280.395,88.886C282.903,89.042 284.359,87.569 284.426,87.5L284.421,87.228L284.149,87.23C284.132,87.248 282.433,88.956 279.62,88.397C279.515,88.377 279.415,88.444 279.395,88.548C279.375,88.652 279.444,88.754 279.548,88.775C279.842,88.833 280.125,88.869 280.395,88.886Z" style="fill:rgb(12,43,52);fill-rule:nonzero;"/>
            </g>
            <g transform="matrix(5.55556,0,0,5.55556,13563.5,-2881.64)">
                <path d="M286.206,78.467L286.398,78.437C286.592,78.353 286.68,78.126 286.594,77.931C285.734,75.975 283.986,75.655 283.913,75.642C283.703,75.606 283.506,75.748 283.472,75.957C283.438,76.166 283.579,76.365 283.788,76.401C283.845,76.412 285.205,76.676 285.892,78.237C285.95,78.369 286.073,78.453 286.206,78.467Z" style="fill:rgb(12,43,52);fill-rule:nonzero;"/>
            </g>
            <g transform="matrix(5.55556,0,0,5.55556,13563.5,-2881.64)">
                <path d="M272.652,75.979C272.772,76.014 272.906,75.989 273.007,75.901C274.286,74.795 275.623,75.157 275.679,75.172C275.883,75.23 276.095,75.112 276.151,74.909C276.208,74.705 276.091,74.492 275.888,74.432C275.813,74.412 274.105,73.93 272.503,75.316C272.343,75.454 272.326,75.698 272.465,75.859L272.652,75.979Z" style="fill:rgb(12,43,52);fill-rule:nonzero;"/>
            </g>
            <g transform="matrix(5.55556,0,0,5.55556,13563.5,-2881.64)">
                <path d="M309.385,118.249C310.028,119.517 310.561,120.614 311.084,121.808C311.608,122.979 312.113,124.152 312.601,125.333C313.589,127.69 314.467,130.09 315.288,132.52C316.92,137.379 318.236,142.394 319.105,147.59L319.384,149.559L319.519,150.544L319.552,150.79L319.593,151.229C319.618,151.548 319.637,151.873 319.645,152.186C319.598,154.487 319.085,156.047 318.57,157.504C317.512,160.355 316.193,162.664 314.794,164.896C313.392,167.112 311.898,169.194 310.317,171.19C308.733,173.197 307.112,175.093 305.299,176.957C304.112,178.178 302.161,178.205 300.941,177.018C299.968,176.072 299.753,174.639 300.309,173.479L300.35,173.395C302.418,169.088 304.611,164.728 306.361,160.476C306.806,159.416 307.212,158.36 307.56,157.327C307.924,156.306 308.234,155.295 308.428,154.389C308.624,153.507 308.67,152.647 308.604,152.489L308.576,152.531L308.569,152.513L308.522,152.306L308.334,151.48L307.955,149.831C306.834,145.423 305.406,140.997 303.734,136.623C302.931,134.426 302.021,132.258 301.14,130.082C300.695,128.996 300.232,127.915 299.758,126.848L298.364,123.733L298.282,123.551C296.894,120.449 298.282,116.809 301.384,115.42C304.389,114.075 307.905,115.351 309.385,118.249Z" style="fill:rgb(139,61,62);fill-rule:nonzero;"/>
            </g>
            <g transform="matrix(5.55556,0,0,5.55556,13563.5,-2881.64)">
                <path d="M300.381,106.936C313.697,110.295 317.396,127.325 317.396,127.325L300.858,139.191C300.858,139.191 296.759,134.901 295.524,124.821C294.934,120.007 297.684,106.81 300.381,106.936Z" style="fill:rgb(48,115,186);fill-rule:nonzero;"/>
            </g>
            <g transform="matrix(5.55556,0,0,5.55556,13563.5,-2881.64)">
                <path d="M302.433,171.473L294.734,174.346L300.628,182.244C300.628,182.244 307.284,178.797 306.024,174.965L302.433,171.473Z" style="fill:rgb(139,61,62);fill-rule:nonzero;"/>
            </g>
            <g transform="matrix(5.55556,0,0,5.55556,13563.5,-2881.64)">
                <path d="M288.955,175.481C286.803,175.118 284.691,175.349 282.776,176.043L286.601,153.338C287.22,149.662 284.719,146.147 281.043,145.528L214.645,134.344C210.969,133.724 207.455,136.225 206.835,139.902L203.011,162.607C204.926,161.913 207.038,161.682 209.19,162.045C215.847,163.166 220.333,169.471 219.212,176.127C218.091,182.784 211.786,187.271 205.13,186.15C202.978,185.787 201.058,184.877 199.476,183.594L195.651,206.3C195.032,209.976 197.533,213.49 201.209,214.109L267.607,225.293C271.283,225.912 274.797,223.412 275.416,219.736L279.241,197.03C280.823,198.313 282.743,199.223 284.895,199.586C291.551,200.707 297.856,196.22 298.978,189.563C300.099,182.907 295.612,176.602 288.955,175.481Z" style="fill:rgb(48,115,186);fill-rule:nonzero;"/>
            </g>
            <g transform="matrix(5.55556,0,0,5.55556,13563.5,-2881.64)">
                <path d="M268.729,225.387C268.359,225.387 267.984,225.357 267.607,225.293L242.721,221.101L242.471,221.059L201.209,214.109C197.906,213.553 195.552,210.659 195.557,207.412C195.557,207.045 195.588,206.673 195.651,206.3L199.476,183.594C201.058,184.877 202.978,185.787 205.13,186.15C205.817,186.265 206.5,186.321 207.175,186.321C213.032,186.321 218.207,182.096 219.212,176.127C219.328,175.438 219.384,174.753 219.384,174.077C219.381,168.221 215.158,163.05 209.19,162.045C208.509,161.93 207.832,161.875 207.164,161.875C205.721,161.875 204.32,162.133 203.011,162.607L206.835,139.902C207.391,136.602 210.278,134.25 213.522,134.25C213.893,134.25 214.268,134.28 214.645,134.344L281.043,145.528C284.345,146.084 286.7,148.978 286.695,152.226C286.694,152.593 286.663,152.964 286.601,153.338L282.776,176.043C284.085,175.569 285.486,175.311 286.929,175.311C287.597,175.311 288.274,175.366 288.955,175.481C294.923,176.486 299.146,181.657 299.149,187.513C299.15,188.189 299.094,188.874 298.978,189.563C297.972,195.533 292.798,199.757 286.94,199.757C286.265,199.757 285.582,199.701 284.895,199.586C282.743,199.223 280.823,198.313 279.241,197.03L275.912,216.794L275.416,219.736C275.249,220.728 274.871,221.635 274.335,222.418C273.091,224.237 270.997,225.387 268.729,225.387Z" style="fill:rgb(158,193,230);fill-rule:nonzero;"/>
            </g>
            <g transform="matrix(5.55556,0,0,5.55556,13563.5,-2881.64)">
                <path d="M291.128,182.083L293.661,184.503C294.669,185.466 296.227,185.557 297.341,184.719L300.628,182.244L294.734,174.346L291.079,178.013C289.952,179.144 289.974,180.98 291.128,182.083Z" style="fill:rgb(139,61,62);fill-rule:nonzero;"/>
            </g>
            <g transform="matrix(5.55556,0,0,5.55556,13563.5,-2881.64)">
                <path d="M217.038,136.433L217.965,133.017C218.163,132.288 219,131.722 219.924,131.694C221.274,131.652 222.582,131.854 223.747,132.285L228.948,134.208L228.702,136.324C228.489,138.149 226.459,139.67 224.157,139.739C221.83,139.809 219.566,139.244 219.566,139.244L219.011,139.128C217.538,138.819 216.701,137.675 217.038,136.433Z" style="fill:rgb(139,61,62);fill-rule:nonzero;"/>
            </g>
            <g transform="matrix(5.55556,0,0,5.55556,13563.5,-2881.64)">
                <path d="M135.087,89.374C138.42,85.495 143.432,75.448 134.006,71.606C127.056,68.772 112.309,70.217 103.837,83.411C98.045,85.369 96.336,98.288 109.712,100.995C123.087,103.702 135.087,89.374 135.087,89.374Z" style="fill:rgb(12,43,52);fill-rule:nonzero;"/>
            </g>
            <g transform="matrix(5.55556,0,0,5.55556,13563.5,-2881.64)">
                <path d="M165.303,337.52L150.019,338.789L152.611,356.751L165.384,355.71L165.303,337.52Z" style="fill:rgb(249,182,182);fill-rule:nonzero;"/>
            </g>
            <g transform="matrix(5.55556,0,0,5.55556,13563.5,-2881.64)">
                <path d="M151.465,348.854L150.888,344.858L150.895,344.857L151.472,348.853L151.465,348.854Z" style="fill:rgb(195,197,197);fill-rule:nonzero;"/>
            </g>
            <g transform="matrix(5.55556,0,0,5.55556,13563.5,-2881.64)">
                <path d="M151.472,348.853L150.895,344.857L165.329,343.762L165.348,347.713L151.472,348.853Z" style="fill:rgb(216,151,147);fill-rule:nonzero;"/>
            </g>
            <g transform="matrix(5.55556,0,0,5.55556,13563.5,-2881.64)">
                <path d="M136.094,284.645C130.131,261.665 114.55,234.271 124.402,212.142L167.211,212.007C167.211,212.007 168.27,257.558 168.565,279.052C168.875,301.401 166.95,343.639 166.95,343.639L149.439,344.967C149.439,344.967 137.491,310.438 136.094,284.645Z" style="fill:rgb(48,115,186);fill-rule:nonzero;"/>
            </g>
            <g transform="matrix(5.55556,0,0,5.55556,13563.5,-2881.64)">
                <path d="M148.616,345.654L167.542,344.266C167.874,344.241 168.136,343.975 168.155,343.643L168.564,336.624C168.588,336.208 168.228,335.874 167.815,335.928L146.818,338.717C146.415,338.771 146.154,339.172 146.27,339.563L147.932,345.182C148.02,345.48 148.305,345.677 148.616,345.654Z" style="fill:rgb(12,43,52);fill-rule:nonzero;"/>
            </g>
            <g transform="matrix(5.55556,0,0,5.55556,13563.5,-2881.64)">
                <path d="M132.074,271.668C131.115,268.865 130.114,266.027 129.123,263.168C130.114,266.024 131.116,268.861 132.075,271.662C132.074,271.665 132.074,271.666 132.074,271.668Z" style="fill:rgb(173,176,177);fill-rule:nonzero;"/>
            </g>
            <g transform="matrix(5.55556,0,0,5.55556,13563.5,-2881.64)">
                <path d="M132.075,271.662C131.116,268.861 130.114,266.024 129.123,263.168C130.483,256.654 131.974,249.65 133.406,242.982C134.456,250.615 133.669,261.563 132.075,271.662Z" style="fill:rgb(31,104,179);fill-rule:nonzero;"/>
            </g>
            <g transform="matrix(5.55556,0,0,5.55556,13563.5,-2881.64)">
                <path d="M108.743,338.639L93.397,338.786L93.379,356.889L106.201,356.787L108.743,338.639Z" style="fill:rgb(249,182,182);fill-rule:nonzero;"/>
            </g>
            <g transform="matrix(5.55556,0,0,5.55556,13563.5,-2881.64)">
                <path d="M92.171,354.11C92.218,353.687 92.708,353.367 93.074,353.513C96.919,355.04 104.215,353.87 106.979,353.34C107.655,353.211 108.272,353.364 108.751,353.705C111.693,355.791 116.023,357.064 116.023,357.064C116.023,357.064 117.013,359.675 116.415,361.676L90.556,361.663C90.556,361.663 91.778,357.604 92.171,354.11Z" style="fill:rgb(12,43,52);fill-rule:nonzero;"/>
            </g>
            <g transform="matrix(5.55556,0,0,5.55556,13563.5,-2881.64)">
                <path d="M150.921,354.11C150.969,353.687 151.458,353.367 151.824,353.513C155.669,355.04 162.965,353.87 165.729,353.34C166.405,353.211 167.022,353.364 167.501,353.705C170.443,355.791 178.278,357.064 178.278,357.064C178.278,357.064 179.268,359.675 178.67,361.676L149.306,361.663C149.306,361.663 150.528,357.604 150.921,354.11Z" style="fill:rgb(12,43,52);fill-rule:nonzero;"/>
            </g>
            <g transform="matrix(5.55556,0,0,5.55556,13563.5,-2881.64)">
                <path d="M93.38,348.929L93.383,344.903L93.391,344.903L93.387,348.929L93.38,348.929Z" style="fill:rgb(195,197,197);fill-rule:nonzero;"/>
            </g>
            <g transform="matrix(5.55556,0,0,5.55556,13563.5,-2881.64)">
                <path d="M93.387,348.929L93.391,344.903L107.87,344.864L107.318,348.808L93.387,348.929Z" style="fill:rgb(216,151,147);fill-rule:nonzero;"/>
            </g>
            <g transform="matrix(5.55556,0,0,5.55556,13563.5,-2881.64)">
                <path d="M91.236,277.209C89.159,253.974 82.64,222.691 90.042,212.007L140.137,212.007C140.137,212.007 129.932,258.329 125.743,279.766C121.391,302.056 108.883,344.862 108.883,344.862L92.29,344.905C92.29,344.905 85.956,303.724 91.236,277.209Z" style="fill:rgb(48,115,186);fill-rule:nonzero;"/>
            </g>
            <g transform="matrix(5.55556,0,0,5.55556,13563.5,-2881.64)">
                <path d="M94.253,340.161C94.037,340.161 93.838,340.02 93.773,339.803C92.578,335.78 92.748,289.851 95.752,277.272C95.72,275.613 95.4,272.346 94.998,268.223C93.68,254.737 91.267,230.041 94.504,215.062C94.818,215.139 95.141,215.218 95.476,215.3C92.278,230.119 94.681,254.7 95.993,268.125C96.403,272.324 96.727,275.64 96.753,277.32L96.739,277.445C93.861,289.353 93.582,335.647 94.732,339.518C94.811,339.783 94.66,340.061 94.396,340.14L94.253,340.161Z" style="fill:rgb(86,138,199);fill-rule:nonzero;"/>
            </g>
            <g transform="matrix(5.55556,0,0,5.55556,13563.5,-2881.64)">
                <path d="M91.139,345.53L109.935,345.53C110.246,345.53 110.507,345.314 110.563,345.011L111.801,338.338C111.88,337.912 111.53,337.513 111.096,337.532L90.637,338.438C90.273,338.454 90.002,338.761 90.029,339.125L90.453,344.892C90.48,345.248 90.782,345.53 91.139,345.53Z" style="fill:rgb(12,43,52);fill-rule:nonzero;"/>
            </g>
            <g transform="matrix(5.55556,0,0,5.55556,13563.5,-2881.64)">
                <path d="M157.159,131.095C158.174,135.061 159.081,139.051 159.966,143.047C160.83,147.047 161.7,151.045 162.48,155.064L163.675,161.087L164.797,167.126C165.566,171.147 166.251,175.187 166.949,179.224L165.32,175.575C165.538,176.132 165.713,176.742 166.651,177.422C167.535,178.089 169.063,178.768 170.887,179.173C172.716,179.624 174.833,179.868 177.05,179.98C178.158,180.034 179.3,180.075 180.447,180.061C181.024,180.069 181.602,180.061 182.176,180.046C182.728,180.05 183.389,180.015 183.793,180.041L185.211,180.136C188.256,180.339 190.56,182.972 190.356,186.017C190.227,187.959 189.076,189.617 187.492,190.498C186.686,190.938 186.123,191.273 185.443,191.623C184.786,191.953 184.126,192.272 183.459,192.575C182.119,193.159 180.751,193.706 179.334,194.165C177.916,194.614 176.459,195.034 174.943,195.347C173.424,195.646 171.851,195.876 170.209,196.008C168.573,196.137 166.85,196.096 165.06,195.93C163.271,195.764 161.391,195.419 159.479,194.748C157.571,194.094 155.616,193.194 153.773,191.929C151.925,190.675 150.269,189.064 148.854,187.302C148.23,186.526 147.792,185.661 147.535,184.76L147.225,183.652C146.115,179.713 144.992,175.777 143.954,171.822L142.365,165.896L140.849,159.955C139.822,155.997 138.884,152.019 137.94,148.043C137.019,144.062 136.117,140.076 135.326,136.065L135.321,136.043C134.124,129.975 138.072,124.084 144.141,122.887C149.992,121.732 155.686,125.393 157.159,131.095Z" style="fill:rgb(249,182,182);fill-rule:nonzero;"/>
            </g>
            <g transform="matrix(5.55556,0,0,5.55556,13563.5,-2881.64)">
                <path d="M183.085,181.018L183.298,187.478C185.911,193.746 193.389,188.992 193.389,188.992L197.909,188.159C199.44,187.876 200.531,186.349 200.486,184.55L200.372,180.033C200.32,177.974 198.812,176.309 197.027,176.341L193.018,176.414C191.851,176.436 190.708,176.746 189.69,177.316L183.085,181.018Z" style="fill:rgb(249,182,182);fill-rule:nonzero;"/>
            </g>
            <g transform="matrix(5.55556,0,0,5.55556,13563.5,-2881.64)">
                <path d="M149.503,119.961C158.701,124.796 164.708,141.882 164.708,141.882C162.767,149.843 154.953,164.472 147.711,164.377C147.711,164.377 137.077,150.668 135.925,140.748C134.533,128.758 130.897,110.18 149.503,119.961Z" style="fill:rgb(12,43,52);fill-rule:nonzero;"/>
            </g>
            <g transform="matrix(5.55556,0,0,5.55556,13563.5,-2881.64)">
                <path d="M140.994,117.121C128.343,115.801 111.45,115.96 98.341,117.798C90.159,118.946 84.383,124.038 85.375,140.796C87.386,174.788 84.276,201.295 88.603,213.517C88.603,213.517 151.517,231.548 169.458,214.269C173.82,173.359 159.145,139.395 152.445,125.255C150.302,120.734 145.971,117.639 140.994,117.121Z" style="fill:rgb(12,43,52);fill-rule:nonzero;"/>
            </g>
            <g transform="matrix(5.55556,0,0,5.55556,13563.5,-2881.64)">
                <path d="M136.268,120.837C134.635,119.238 132.933,120.169 132.141,117.762C131.789,116.03 132.041,114.216 133.039,112.224L113.628,101.75C114.01,108.892 114.298,114.532 111.135,117.369C110.214,122.692 120.084,128.002 133.337,128.077C141.753,128.125 138.618,123.139 136.268,120.837Z" style="fill:rgb(249,182,182);fill-rule:nonzero;"/>
            </g>
            <g transform="matrix(5.55556,0,0,5.55556,13563.5,-2881.64)">
                <path d="M131.994,116.461L131.993,116.461C131.975,115.731 132.064,114.983 132.271,114.21C132.065,114.982 131.976,115.73 131.994,116.461Z" style="fill:rgb(192,193,193);fill-rule:nonzero;"/>
            </g>
            <g transform="matrix(5.55556,0,0,5.55556,13563.5,-2881.64)">
                <path d="M132.021,116.949C132.007,116.787 131.997,116.625 131.993,116.461L131.994,116.461C131.998,116.625 132.007,116.787 132.022,116.949L132.021,116.949Z" style="fill:rgb(2,30,39);fill-rule:nonzero;"/>
            </g>
            <g transform="matrix(5.55556,0,0,5.55556,13563.5,-2881.64)">
                <path d="M130.02,117.295C126.945,117.295 122.88,115.302 119.705,111.924C123.111,113.553 126.039,114.28 128.514,114.28C129.996,114.28 131.315,114.019 132.479,113.536C132.399,113.763 132.33,113.987 132.271,114.21C132.064,114.983 131.975,115.731 131.993,116.461C131.997,116.625 132.007,116.787 132.021,116.949C131.427,117.183 130.752,117.296 130.02,117.295Z" style="fill:rgb(216,151,147);fill-rule:nonzero;"/>
            </g>
            <g transform="matrix(5.55556,0,0,5.55556,13563.5,-2881.64)">
                <path d="M126.409,77.885C116.266,75.642 107.51,84.059 109.473,93.241C111.436,102.423 112.982,108.616 119.332,111.743C131.95,117.955 138.112,111.963 139.142,102.365C140.069,93.726 136.703,80.162 126.409,77.885Z" style="fill:rgb(249,182,182);fill-rule:nonzero;"/>
            </g>
            <g transform="matrix(5.55556,0,0,5.55556,13563.5,-2881.64)">
                <path d="M121.362,94.715C121.215,94.715 121.065,94.712 120.913,94.703C121.621,94.184 122.482,94.052 123.174,94.052C123.887,94.052 124.421,94.192 124.421,94.192C124.421,94.192 123.103,94.715 121.362,94.715Z" style="fill:rgb(216,151,147);fill-rule:nonzero;"/>
            </g>
            <g transform="matrix(5.55556,0,0,5.55556,13563.5,-2881.64)">
                <path d="M121.523,96.279C122.412,95.106 124.023,95.035 124.404,95.035C124.457,95.035 124.486,95.036 124.486,95.036C124.486,95.036 123.271,95.965 121.523,96.279Z" style="fill:rgb(216,151,147);fill-rule:nonzero;"/>
            </g>
            <g transform="matrix(5.55556,0,0,5.55556,13563.5,-2881.64)">
                <path d="M110.753,100.995C116.42,102.272 118.776,99.431 118.776,96.245C118.776,92.869 115.587,87.161 112.087,86.106C113.336,78.612 134.006,89.106 132.042,78.717C132.042,78.717 131.476,76.939 126.143,75.939C120.809,74.939 106.531,78.161 107.531,88.828C108.531,99.495 110.753,100.995 110.753,100.995Z" style="fill:rgb(12,43,52);fill-rule:nonzero;"/>
            </g>
            <g transform="matrix(5.55556,0,0,5.55556,13563.5,-2881.64)">
                <path d="M103.531,83.939C105.865,79.772 104.643,74.939 104.643,74.939C104.643,74.939 110.865,79.05 103.531,83.939Z" style="fill:rgb(12,43,52);fill-rule:nonzero;"/>
            </g>
            <g transform="matrix(5.55556,0,0,5.55556,13563.5,-2881.64)">
                <path d="M129.61,103.846C130.011,103.818 130.433,103.758 130.871,103.658C131.009,103.627 131.095,103.491 131.063,103.355C131.033,103.218 130.896,103.126 130.761,103.164C127.062,103.995 124.755,101.809 124.732,101.787C124.631,101.689 124.471,101.691 124.373,101.792C124.276,101.892 124.278,102.053 124.378,102.151C124.469,102.238 126.4,104.07 129.61,103.846Z" style="fill:rgb(12,43,52);fill-rule:nonzero;"/>
            </g>
            <g transform="matrix(5.55556,0,0,5.55556,13563.5,-2881.64)">
                <path d="M107.164,101.446C108.547,103.364 110.693,104.456 112.623,104.726C115.527,105.131 116.614,102.436 115.502,99.897C114.501,97.611 111.784,94.646 109.017,95.406C106.29,96.156 105.583,99.254 107.164,101.446Z" style="fill:rgb(249,182,182);fill-rule:nonzero;"/>
            </g>
            <g transform="matrix(5.55556,0,0,5.55556,13563.5,-2881.64)">
                <path d="M126.074,94.29C126.188,95.101 126.71,95.694 127.241,95.615C127.771,95.535 128.108,94.813 127.994,94.002C127.88,93.19 127.357,92.597 126.827,92.677C126.297,92.756 125.959,93.478 126.074,94.29Z" style="fill:rgb(12,43,52);fill-rule:nonzero;"/>
            </g>
            <g transform="matrix(5.55556,0,0,5.55556,13563.5,-2881.64)">
                <path d="M135.604,93.013C135.718,93.824 136.241,94.417 136.771,94.338C137.301,94.258 137.639,93.536 137.524,92.725C137.41,91.914 136.888,91.32 136.357,91.4C135.827,91.479 135.49,92.202 135.604,93.013Z" style="fill:rgb(12,43,52);fill-rule:nonzero;"/>
            </g>
            <g transform="matrix(5.55556,0,0,5.55556,13563.5,-2881.64)">
                <path d="M132.042,94.075L132.499,100.941C132.499,100.941 134.748,101.326 135.97,100.03C134.972,96.571 132.042,94.075 132.042,94.075Z" style="fill:rgb(244,130,127);fill-rule:nonzero;"/>
            </g>
            <g transform="matrix(5.55556,0,0,5.55556,13563.5,-2881.64)">
                <path d="M122.935,92.427L122.691,92.424C122.436,92.354 122.287,92.089 122.359,91.831C123.079,89.256 125.188,88.55 125.277,88.522C125.53,88.44 125.799,88.58 125.878,88.834C125.957,89.087 125.817,89.358 125.565,89.44C125.496,89.463 123.858,90.031 123.283,92.086C123.234,92.26 123.097,92.386 122.935,92.427Z" style="fill:rgb(12,43,52);fill-rule:nonzero;"/>
            </g>
            <g transform="matrix(5.55556,0,0,5.55556,13563.5,-2881.64)">
                <path d="M138.729,89.373C138.573,89.381 138.417,89.314 138.318,89.18C137.065,87.474 135.333,87.543 135.259,87.547C134.995,87.561 134.77,87.358 134.757,87.094C134.744,86.829 134.946,86.602 135.211,86.586C135.307,86.582 137.526,86.468 139.096,88.605C139.253,88.818 139.206,89.12 138.991,89.279C138.912,89.337 138.82,89.368 138.729,89.373Z" style="fill:rgb(12,43,52);fill-rule:nonzero;"/>
            </g>
            <g transform="matrix(5.55556,0,0,5.55556,13563.5,-2881.64)">
                <path d="M197.026,154.764C194.851,154.935 192.858,155.673 191.169,156.812L189.357,133.858C189.064,130.141 185.784,127.341 182.067,127.634L114.943,132.933C111.227,133.226 108.426,136.507 108.72,140.223L114.018,207.348C114.312,211.064 117.592,213.864 121.308,213.571L188.433,208.272C192.149,207.979 194.95,204.698 194.656,200.983L192.844,178.028C194.691,178.888 196.774,179.304 198.95,179.132C205.679,178.601 210.704,172.715 210.173,165.986C209.642,159.257 203.756,154.232 197.026,154.764Z" style="fill:rgb(48,115,186);fill-rule:nonzero;"/>
            </g>
            <g transform="matrix(5.55556,0,0,5.55556,13563.5,-2881.64)">
                <path d="M99.662,145.584L98.606,147.428L97.46,149.492C96.716,150.891 95.957,152.289 95.268,153.711C93.854,156.536 92.612,159.403 91.554,162.204C91.022,163.608 90.575,165.001 90.198,166.365C89.79,167.726 89.474,169.059 89.261,170.328C88.816,172.893 88.77,175.148 89.05,176.929L86.749,172.916C87.35,173.844 88.628,175.149 90.192,176.391C91.754,177.643 93.572,178.927 95.515,180.123C97.445,181.36 99.501,182.544 101.599,183.735L104.783,185.513C105.83,186.108 106.978,186.71 107.929,187.286L108.41,187.577C111.085,189.197 111.94,192.679 110.32,195.354C109.242,197.135 107.33,198.108 105.388,198.082C103.869,198.059 102.567,197.982 101.173,197.867C99.806,197.733 98.438,197.584 97.076,197.373C94.35,196.96 91.633,196.377 88.889,195.613C86.161,194.807 83.391,193.871 80.585,192.52C77.782,191.172 74.892,189.478 71.98,186.721C71.028,185.819 70.355,184.733 69.963,183.57L69.678,182.708C67.978,177.59 67.65,172.549 68.022,168.01C68.341,163.424 69.288,159.215 70.503,155.224C71.695,151.223 73.242,147.475 74.947,143.853C75.82,142.051 76.713,140.271 77.707,138.538C78.197,137.668 78.701,136.801 79.229,135.939L80.048,134.64L80.481,133.976L80.999,133.213C84.466,128.099 91.423,126.765 96.537,130.232C101.403,133.532 102.848,139.99 99.989,145.015L99.662,145.584Z" style="fill:rgb(249,182,182);fill-rule:nonzero;"/>
            </g>
            <g transform="matrix(5.55556,0,0,5.55556,13563.5,-2881.64)">
                <path d="M91.847,119.962C75.273,128.821 69.094,148.609 69.094,148.609C72.374,154.857 92.149,161.631 99.586,159.772C99.586,159.772 106.718,146.792 108.187,135.152C109.547,124.376 101.56,114.771 91.847,119.962Z" style="fill:rgb(12,43,52);fill-rule:nonzero;"/>
            </g>
            <g transform="matrix(5.55556,0,0,5.55556,13563.5,-2881.64)">
                <path d="M103.454,188.393L103.794,194.848C106.531,201.064 113.914,196.163 113.914,196.163L118.416,195.24C119.942,194.927 121.002,193.379 120.921,191.581L120.718,187.067C120.625,185.009 119.084,183.374 117.301,183.442L113.293,183.595C112.127,183.639 110.991,183.971 109.984,184.562L103.454,188.393Z" style="fill:rgb(249,182,182);fill-rule:nonzero;"/>
            </g>
        </g>
    </g>
</svg>
