<?xml version="1.0" encoding="UTF-8" standalone="no"?>
<!DOCTYPE svg PUBLIC "-//W3C//DTD SVG 1.1//EN" "http://www.w3.org/Graphics/SVG/1.1/DTD/svg11.dtd">
<svg width="100%" height="100%" viewBox="0 0 2778 2778" version="1.1" xmlns="http://www.w3.org/2000/svg" xmlns:xlink="http://www.w3.org/1999/xlink" xml:space="preserve" xmlns:serif="http://www.serif.com/" style="fill-rule:evenodd;clip-rule:evenodd;stroke-linejoin:round;stroke-miterlimit:2;">
    <g transform="matrix(1,0,0,1,-13417.8,-3521.73)">
        <g id="Artboard2" transform="matrix(1,0,0,1,-145.649,6707.51)">
            <rect x="13563.5" y="-3185.78" width="2777.78" height="2777.78" style="fill:none;"/>
            <g transform="matrix(5.55556,0,0,5.55556,13563.5,-2834.09)">
                <rect x="0" y="327.837" width="500" height="0.25" style="fill:rgb(229,229,228);fill-rule:nonzero;"/>
            </g>
            <g transform="matrix(5.55556,0,0,5.55556,13563.5,-2834.09)">
                <path d="M43.915,0.641C40.905,0.641 38.457,3.09 38.457,6.099L38.457,277.53C38.457,280.54 40.905,282.988 43.915,282.988L237.014,282.988C240.022,282.988 242.471,280.54 242.471,277.53L242.471,6.099C242.471,3.09 240.022,0.641 237.014,0.641L43.915,0.641ZM237.014,283.238L43.915,283.238C40.767,283.238 38.207,280.678 38.207,277.53L38.207,6.099C38.207,2.953 40.767,0.391 43.915,0.391L237.014,0.391C240.16,0.391 242.721,2.953 242.721,6.099L242.721,277.53C242.721,280.678 240.16,283.238 237.014,283.238Z" style="fill:rgb(229,229,228);fill-rule:nonzero;"/>
            </g>
            <g transform="matrix(5.55556,0,0,5.55556,13563.5,-2834.09)">
                <path d="M260.212,0.641C257.203,0.641 254.755,3.09 254.755,6.099L254.755,277.53C254.755,280.54 257.203,282.988 260.212,282.988L453.311,282.988C456.32,282.988 458.769,280.54 458.769,277.53L458.769,6.099C458.769,3.09 456.32,0.641 453.311,0.641L260.212,0.641ZM453.311,283.238L260.212,283.238C257.065,283.238 254.505,280.678 254.505,277.53L254.505,6.099C254.505,2.953 257.065,0.391 260.212,0.391L453.311,0.391C456.458,0.391 459.019,2.953 459.019,6.099L459.019,277.53C459.019,280.678 456.458,283.238 453.311,283.238Z" style="fill:rgb(229,229,228);fill-rule:nonzero;"/>
            </g>
            <g transform="matrix(5.55556,0,0,5.55556,13563.5,-2834.09)">
                <rect x="51.278" y="337.36" width="25.998" height="0.25" style="fill:rgb(229,229,228);fill-rule:nonzero;"/>
            </g>
            <g transform="matrix(5.55556,0,0,5.55556,13563.5,-2834.09)">
                <rect x="145.153" y="334.646" width="45.027" height="0.25" style="fill:rgb(229,229,228);fill-rule:nonzero;"/>
            </g>
            <g transform="matrix(5.55556,0,0,5.55556,13563.5,-2834.09)">
                <rect x="78.276" y="346.646" width="60.793" height="0.25" style="fill:rgb(229,229,228);fill-rule:nonzero;"/>
            </g>
            <g transform="matrix(5.55556,0,0,5.55556,13563.5,-2834.09)">
                <rect x="429.486" y="344.966" width="19.235" height="0.25" style="fill:rgb(229,229,228);fill-rule:nonzero;"/>
            </g>
            <g transform="matrix(5.55556,0,0,5.55556,13563.5,-2834.09)">
                <rect x="365.291" y="344.966" width="55.292" height="0.25" style="fill:rgb(229,229,228);fill-rule:nonzero;"/>
            </g>
            <g transform="matrix(5.55556,0,0,5.55556,13563.5,-2834.09)">
                <rect x="257.045" y="340.744" width="74.469" height="0.25" style="fill:rgb(229,229,228);fill-rule:nonzero;"/>
            </g>
            <g transform="matrix(5.55556,0,0,5.55556,13563.5,-2834.09)">
                <rect x="222.815" y="219.948" width="42.049" height="107.889" style="fill:rgb(234,235,234);fill-rule:nonzero;"/>
            </g>
            <g transform="matrix(5.55556,0,0,5.55556,13563.5,-2834.09)">
                <rect x="72.35" y="219.948" width="150.465" height="107.889" style="fill:rgb(240,240,240);fill-rule:nonzero;"/>
            </g>
            <g transform="matrix(5.55556,0,0,5.55556,13563.5,-2834.09)">
                <rect x="81.57" y="295.359" width="25.116" height="21.968" style="fill:white;fill-rule:nonzero;"/>
            </g>
            <g transform="matrix(5.55556,0,0,5.55556,13563.5,-2834.09)">
                <rect x="81.57" y="265.327" width="25.116" height="21.968" style="fill:rgb(229,229,228);fill-rule:nonzero;"/>
            </g>
            <g transform="matrix(5.55556,0,0,5.55556,13563.5,-2834.09)">
                <rect x="71.911" y="235.331" width="0.439" height="2.877" style="fill:rgb(232,232,231);fill-rule:nonzero;"/>
            </g>
            <g transform="matrix(5.55556,0,0,5.55556,13563.5,-2834.09)">
                <path d="M219.108,238.208L150.998,238.208C151.19,237.3 151.387,236.34 151.589,235.331L219.286,235.331L219.108,238.208ZM128.188,238.208L72.35,238.208L72.35,235.331L128.556,235.331C128.429,236.317 128.308,237.278 128.188,238.208Z" style="fill:rgb(220,221,221);fill-rule:nonzero;"/>
            </g>
            <g transform="matrix(5.55556,0,0,5.55556,13563.5,-2834.09)">
                <rect x="222.815" y="217.856" width="44.37" height="17.475" style="fill:rgb(234,235,234);fill-rule:nonzero;"/>
            </g>
            <g transform="matrix(5.55556,0,0,5.55556,13563.5,-2834.09)">
                <rect x="70.029" y="217.856" width="152.786" height="17.475" style="fill:rgb(240,240,240);fill-rule:nonzero;"/>
            </g>
            <g transform="matrix(5.55556,0,0,5.55556,13563.5,-2834.09)">
                <rect x="216.246" y="184.874" width="32.677" height="33.253" style="fill:rgb(234,235,234);fill-rule:nonzero;"/>
            </g>
            <g transform="matrix(5.55556,0,0,5.55556,13563.5,-2834.09)">
                <rect x="102.458" y="184.874" width="113.788" height="33.253" style="fill:rgb(240,240,240);fill-rule:nonzero;"/>
            </g>
            <g transform="matrix(5.55556,0,0,5.55556,13563.5,-2834.09)">
                <path d="M221.939,192.574L216.246,192.574L216.246,191.018L222.036,191.018L221.939,192.574Z" style="fill:rgb(215,217,216);fill-rule:nonzero;"/>
            </g>
            <g transform="matrix(5.55556,0,0,5.55556,13563.5,-2834.09)">
                <rect x="102.117" y="191.018" width="0.341" height="1.556" style="fill:rgb(232,232,231);fill-rule:nonzero;"/>
            </g>
            <g transform="matrix(5.55556,0,0,5.55556,13563.5,-2834.09)">
                <path d="M216.246,192.574L158.996,192.574C159.079,192.054 159.163,191.534 159.245,191.018L216.246,191.018L216.246,192.574ZM133.781,192.574L102.458,192.574L102.458,191.018L133.967,191.018C133.905,191.535 133.844,192.053 133.781,192.574Z" style="fill:rgb(220,221,221);fill-rule:nonzero;"/>
            </g>
            <g transform="matrix(5.55556,0,0,5.55556,13563.5,-2834.09)">
                <rect x="216.246" y="183.249" width="34.481" height="7.769" style="fill:rgb(234,235,234);fill-rule:nonzero;"/>
            </g>
            <g transform="matrix(5.55556,0,0,5.55556,13563.5,-2834.09)">
                <rect x="100.655" y="183.249" width="115.591" height="7.769" style="fill:rgb(240,240,240);fill-rule:nonzero;"/>
            </g>
            <g transform="matrix(5.55556,0,0,5.55556,13563.5,-2834.09)">
                <rect x="287.409" y="165.961" width="31.991" height="161.876" style="fill:rgb(224,224,223);fill-rule:nonzero;"/>
            </g>
            <g transform="matrix(5.55556,0,0,5.55556,13563.5,-2834.09)">
                <path d="M294.258,327.837L287.409,327.837L287.409,316.358L301.44,316.358L294.258,327.837Z" style="fill:rgb(234,235,234);fill-rule:nonzero;"/>
            </g>
            <g transform="matrix(5.55556,0,0,5.55556,13563.5,-2834.09)">
                <rect x="394.123" y="165.961" width="31.992" height="161.876" style="fill:rgb(224,224,223);fill-rule:nonzero;"/>
            </g>
            <g transform="matrix(5.55556,0,0,5.55556,13563.5,-2834.09)">
                <rect x="287.409" y="165.961" width="112.692" height="159.557" style="fill:rgb(234,235,234);fill-rule:nonzero;"/>
            </g>
            <g transform="matrix(5.55556,0,0,5.55556,13563.5,-2834.09)">
                <rect x="292.722" y="173.033" width="102.065" height="43.757" style="fill:rgb(224,224,223);fill-rule:nonzero;"/>
            </g>
            <g transform="matrix(5.55556,0,0,5.55556,13563.5,-2834.09)">
                <path d="M350.463,193.979C350.463,197.684 347.46,200.687 343.755,200.687C340.05,200.687 337.047,197.684 337.047,193.979C337.047,190.275 340.05,187.271 343.755,187.271C347.46,187.271 350.463,190.275 350.463,193.979Z" style="fill:rgb(249,249,249);fill-rule:nonzero;"/>
            </g>
            <g transform="matrix(5.55556,0,0,5.55556,13563.5,-2834.09)">
                <path d="M393.251,327.837L400.101,327.837L400.101,316.358L386.069,316.358L393.251,327.837Z" style="fill:rgb(234,235,234);fill-rule:nonzero;"/>
            </g>
            <g transform="matrix(5.55556,0,0,5.55556,13563.5,-2834.09)">
                <rect x="292.722" y="223.861" width="102.065" height="94.586" style="fill:rgb(224,224,223);fill-rule:nonzero;"/>
            </g>
            <g transform="matrix(5.55556,0,0,5.55556,13563.5,-2834.09)">
                <path d="M387.398,237.958C387.398,241.663 384.395,244.666 380.69,244.666C376.986,244.666 373.982,241.663 373.982,237.958C373.982,234.254 376.986,231.25 380.69,231.25C384.395,231.25 387.398,234.254 387.398,237.958Z" style="fill:rgb(249,249,249);fill-rule:nonzero;"/>
            </g>
            <g transform="matrix(5.55556,0,0,5.55556,13563.5,-2834.09)">
                <rect x="86.206" y="16.964" width="329.042" height="130.977" style="fill:rgb(224,224,223);fill-rule:nonzero;"/>
            </g>
            <g transform="matrix(5.55556,0,0,5.55556,13563.5,-2834.09)">
                <rect x="84.752" y="16.964" width="329.042" height="130.977" style="fill:rgb(234,235,234);fill-rule:nonzero;"/>
            </g>
            <g transform="matrix(5.55556,0,0,5.55556,13563.5,-2834.09)">
                <rect x="93.125" y="25.337" width="312.296" height="114.23" style="fill:white;fill-rule:nonzero;"/>
            </g>
            <g transform="matrix(5.55556,0,0,5.55556,13563.5,-2834.09)">
                <path d="M129.544,72.936L118.556,91.969L140.533,91.969L129.544,72.936Z" style="fill:rgb(224,224,223);fill-rule:nonzero;"/>
            </g>
            <g transform="matrix(5.55556,0,0,5.55556,13563.5,-2834.09)">
                <rect x="168.607" y="73.48" width="17.945" height="17.945" style="fill:rgb(224,224,223);fill-rule:nonzero;"/>
            </g>
            <g transform="matrix(5.55556,0,0,5.55556,13563.5,-2834.09)">
                <path d="M225.615,70.976L213.547,79.744L218.157,93.93L233.073,93.93L237.683,79.744L225.615,70.976Z" style="fill:rgb(224,224,223);fill-rule:nonzero;"/>
            </g>
            <g transform="matrix(5.55556,0,0,5.55556,13563.5,-2834.09)">
                <path d="M279.995,71.464L267.306,71.464L260.962,82.453L267.306,93.442L279.995,93.442L286.339,82.453L279.995,71.464Z" style="fill:rgb(224,224,223);fill-rule:nonzero;"/>
            </g>
            <g transform="matrix(5.55556,0,0,5.55556,13563.5,-2834.09)">
                <path d="M321.686,70.392L311.766,75.169L309.315,85.905L316.181,94.513L327.191,94.513L334.057,85.905L331.606,75.169L321.686,70.392Z" style="fill:rgb(224,224,223);fill-rule:nonzero;"/>
            </g>
            <g transform="matrix(5.55556,0,0,5.55556,13563.5,-2834.09)">
                <path d="M374.577,70.73L364.866,70.73L357.999,77.597L357.999,87.308L364.866,94.175L374.577,94.175L381.444,87.308L381.444,77.597L374.577,70.73Z" style="fill:rgb(224,224,223);fill-rule:nonzero;"/>
            </g>
            <g transform="matrix(5.55556,0,0,5.55556,13563.5,-2834.09)">
                <path d="M443.889,361.677C443.889,367.931 357.083,373 250,373C142.918,373 56.11,367.931 56.11,361.677C56.11,355.423 142.918,350.353 250,350.353C357.083,350.353 443.889,355.423 443.889,361.677Z" style="fill:rgb(240,240,240);fill-rule:nonzero;"/>
            </g>
            <g transform="matrix(5.55556,0,0,5.55556,13563.5,-2834.09)">
                <path d="M239.408,74.945L404.062,74.945C407.575,74.945 410.27,77.819 410.052,81.331L396.629,297.662C396.411,301.175 393.358,304.05 389.845,304.05L225.192,304.05C221.679,304.05 218.983,301.175 219.201,297.662L232.625,81.331C232.842,77.819 235.895,74.945 239.408,74.945Z" style="fill:rgb(48,115,186);fill-rule:nonzero;"/>
            </g>
            <g transform="matrix(5.55556,0,0,5.55556,13563.5,-2834.09)">
                <path d="M389.845,304.05L386.063,304.05C389.576,304.05 392.628,301.175 392.847,297.662L406.27,81.331C406.488,77.819 403.792,74.945 400.279,74.945L347.006,74.945L404.062,74.945C407.444,74.945 410.069,77.609 410.065,80.943C410.064,81.072 410.06,81.201 410.052,81.331L405.919,147.941L396.629,297.662C396.411,301.175 393.358,304.05 389.845,304.05Z" style="fill:rgb(0,86,167);fill-rule:nonzero;"/>
            </g>
            <g transform="matrix(5.55556,0,0,5.55556,13563.5,-2834.09)">
                <path d="M235.625,74.945L400.279,74.945C403.792,74.945 406.488,77.819 406.27,81.331L392.847,297.662C392.628,301.175 389.576,304.05 386.063,304.05L221.41,304.05C217.897,304.05 215.201,301.175 215.418,297.662L228.842,81.331C229.06,77.819 232.113,74.945 235.625,74.945Z" style="fill:rgb(48,115,186);fill-rule:nonzero;"/>
            </g>
            <g transform="matrix(5.55556,0,0,5.55556,13563.5,-2834.09)">
                <path d="M384.605,294.291L224.343,292.369L224.475,290.248L381.959,290.248C390.811,209.197 393.59,165.05 394.829,84.77L397.606,84.77L384.605,294.291Z" style="fill:rgb(0,86,167);fill-rule:nonzero;"/>
            </g>
            <g transform="matrix(5.55556,0,0,5.55556,13563.5,-2834.09)">
                <path d="M219.661,290.248L381.959,290.248C390.904,208.342 393.648,164.123 394.868,82.217L232.569,82.217C231.35,164.123 228.606,208.342 219.661,290.248Z" style="fill:white;fill-rule:nonzero;"/>
            </g>
            <g transform="matrix(5.55556,0,0,5.55556,13563.5,-2834.09)">
                <path d="M375.485,139.191L347.54,139.191C346.971,139.191 346.427,138.956 346.037,138.541C345.646,138.126 345.445,137.568 345.48,137L347.215,109.056C347.283,107.968 348.185,107.12 349.274,107.12L377.22,107.12C377.789,107.12 378.333,107.355 378.723,107.77C379.113,108.185 379.314,108.743 379.279,109.311L377.545,137.256C377.477,138.344 376.575,139.191 375.485,139.191ZM351.214,111.247L349.735,135.064L373.546,135.064L375.024,111.247L351.214,111.247Z" style="fill:rgb(179,207,236);fill-rule:nonzero;"/>
            </g>
            <g transform="matrix(5.55556,0,0,5.55556,13563.5,-2834.09)">
                <path d="M372.844,181.758L344.899,181.758C344.33,181.758 343.786,181.522 343.396,181.107C343.006,180.692 342.805,180.135 342.84,179.566L344.573,151.621C344.642,150.533 345.543,149.685 346.633,149.685L374.578,149.685C375.147,149.685 375.691,149.921 376.081,150.336C376.472,150.751 376.673,151.309 376.638,151.877L374.903,179.822C374.835,180.91 373.934,181.758 372.844,181.758ZM348.572,153.812L347.095,177.631L370.904,177.631L372.383,153.812L348.572,153.812Z" style="fill:rgb(179,207,236);fill-rule:nonzero;"/>
            </g>
            <g transform="matrix(5.55556,0,0,5.55556,13563.5,-2834.09)">
                <path d="M370.203,224.323L342.258,224.323C341.688,224.323 341.145,224.088 340.755,223.673C340.364,223.258 340.163,222.7 340.198,222.132L341.933,194.186C342.001,193.098 342.902,192.251 343.992,192.251L371.936,192.251C372.506,192.251 373.05,192.486 373.439,192.901C373.83,193.316 374.031,193.874 373.996,194.442L372.263,222.388C372.194,223.475 371.293,224.323 370.203,224.323ZM345.932,196.378L344.453,220.196L368.264,220.196L369.741,196.378L345.932,196.378Z" style="fill:rgb(179,207,236);fill-rule:nonzero;"/>
            </g>
            <g transform="matrix(5.55556,0,0,5.55556,13563.5,-2834.09)">
                <path d="M367.562,266.889L339.617,266.889C339.048,266.889 338.504,266.653 338.114,266.238C337.724,265.823 337.522,265.265 337.558,264.697L339.291,236.752C339.359,235.664 340.261,234.816 341.351,234.816L369.296,234.816C369.865,234.816 370.409,235.052 370.799,235.467C371.189,235.882 371.391,236.439 371.355,237.008L369.621,264.953C369.553,266.041 368.651,266.889 367.562,266.889ZM343.29,238.943L341.812,262.762L365.622,262.762L367.101,238.943L343.29,238.943Z" style="fill:rgb(179,207,236);fill-rule:nonzero;"/>
            </g>
            <g transform="matrix(5.55556,0,0,5.55556,13563.5,-2834.09)">
                <path d="M323.17,119.501L259.881,119.501C257.961,119.501 256.486,117.929 256.605,116.008C256.725,114.087 258.394,112.515 260.315,112.515L323.604,112.515C325.525,112.515 327,114.087 326.88,116.008C326.761,117.929 325.092,119.501 323.17,119.501Z" style="fill:rgb(179,207,236);fill-rule:nonzero;"/>
            </g>
            <g transform="matrix(5.55556,0,0,5.55556,13563.5,-2834.09)">
                <path d="M322.284,133.797L271.03,133.797C269.108,133.797 267.634,132.226 267.753,130.304C267.873,128.383 269.542,126.811 271.463,126.811L322.717,126.811C324.638,126.811 326.113,128.383 325.993,130.304C325.874,132.226 324.205,133.797 322.284,133.797Z" style="fill:rgb(179,207,236);fill-rule:nonzero;"/>
            </g>
            <g transform="matrix(5.55556,0,0,5.55556,13563.5,-2834.09)">
                <path d="M319.642,176.362L256.354,176.362C254.433,176.362 252.958,174.791 253.077,172.869C253.196,170.948 254.866,169.377 256.786,169.377L320.076,169.377C321.997,169.377 323.471,170.948 323.352,172.869C323.233,174.791 321.564,176.362 319.642,176.362Z" style="fill:rgb(179,207,236);fill-rule:nonzero;"/>
            </g>
            <g transform="matrix(5.55556,0,0,5.55556,13563.5,-2834.09)">
                <path d="M320.529,162.066L269.275,162.066C267.354,162.066 265.88,160.494 265.999,158.573C266.119,156.652 267.788,155.08 269.709,155.08L320.963,155.08C322.884,155.08 324.358,156.652 324.239,158.573C324.12,160.494 322.451,162.066 320.529,162.066Z" style="fill:rgb(179,207,236);fill-rule:nonzero;"/>
            </g>
            <g transform="matrix(5.55556,0,0,5.55556,13563.5,-2834.09)">
                <path d="M317.888,204.632L254.6,204.632C252.678,204.632 251.204,203.06 251.323,201.139C251.442,199.218 253.112,197.645 255.033,197.645L318.322,197.645C320.243,197.645 321.717,199.218 321.598,201.139C321.479,203.06 319.81,204.632 317.888,204.632Z" style="fill:rgb(179,207,236);fill-rule:nonzero;"/>
            </g>
            <g transform="matrix(5.55556,0,0,5.55556,13563.5,-2834.09)">
                <path d="M317.001,218.928L291.536,218.928C289.615,218.928 288.141,217.356 288.26,215.435C288.379,213.514 290.048,211.942 291.97,211.942L317.435,211.942C319.356,211.942 320.83,213.514 320.711,215.435C320.592,217.356 318.922,218.928 317.001,218.928Z" style="fill:rgb(179,207,236);fill-rule:nonzero;"/>
            </g>
            <g transform="matrix(5.55556,0,0,5.55556,13563.5,-2834.09)">
                <path d="M279.177,218.928L265.747,218.928C263.826,218.928 262.352,217.356 262.471,215.435C262.59,213.514 264.259,211.942 266.181,211.942L279.611,211.942C281.532,211.942 283.006,213.514 282.887,215.435C282.768,217.356 281.099,218.928 279.177,218.928Z" style="fill:rgb(179,207,236);fill-rule:nonzero;"/>
            </g>
            <g transform="matrix(5.55556,0,0,5.55556,13563.5,-2834.09)">
                <path d="M315.247,247.197L251.958,247.197C250.037,247.197 248.563,245.625 248.682,243.704C248.801,241.783 250.471,240.211 252.392,240.211L315.68,240.211C317.602,240.211 319.076,241.783 318.956,243.704C318.837,245.625 317.168,247.197 315.247,247.197Z" style="fill:rgb(179,207,236);fill-rule:nonzero;"/>
            </g>
            <g transform="matrix(5.55556,0,0,5.55556,13563.5,-2834.09)">
                <path d="M314.36,261.493L263.106,261.493C261.185,261.493 259.709,259.922 259.829,258.001C259.949,256.079 261.618,254.508 263.54,254.508L314.793,254.508C316.714,254.508 318.189,256.079 318.07,258.001C317.951,259.922 316.281,261.493 314.36,261.493Z" style="fill:rgb(179,207,236);fill-rule:nonzero;"/>
            </g>
            <g transform="matrix(5.55556,0,0,5.55556,13563.5,-2834.09)">
                <path d="M360.113,131.543C359.712,131.543 359.307,131.426 358.951,131.183L348.184,123.827C347.243,123.184 347.001,121.901 347.645,120.96C348.286,120.019 349.567,119.776 350.512,120.421L359.711,126.705C363.068,122.654 372.651,111.669 380.621,108.115C381.657,107.652 382.881,108.118 383.346,109.16C383.81,110.2 383.342,111.421 382.301,111.885C373.6,115.763 361.854,130.605 361.736,130.755C361.331,131.27 360.727,131.543 360.113,131.543Z" style="fill:rgb(48,115,186);fill-rule:nonzero;"/>
            </g>
            <g transform="matrix(5.55556,0,0,5.55556,13563.5,-2834.09)">
                <path d="M355.097,173.282C354.58,173.282 354.064,173.089 353.665,172.704L344.292,163.669C343.472,162.878 343.447,161.572 344.238,160.752C345.03,159.932 346.336,159.909 347.155,160.698L355.135,168.39C359.08,164.861 370.151,155.455 378.492,153.174C379.591,152.872 380.726,153.521 381.026,154.62C381.327,155.719 380.68,156.853 379.58,157.154C370.458,159.648 356.65,172.59 356.512,172.721C356.114,173.095 355.605,173.282 355.097,173.282Z" style="fill:rgb(48,115,186);fill-rule:nonzero;"/>
            </g>
            <g transform="matrix(5.55556,0,0,5.55556,13553.2,-2593.65)">
                <path d="M355.097,173.282C354.58,173.282 354.064,173.089 353.665,172.704L344.292,163.669C343.472,162.878 343.447,161.572 344.238,160.752C345.03,159.932 346.336,159.909 347.155,160.698L355.135,168.39C359.08,164.861 370.151,155.455 378.492,153.174C379.591,152.872 380.726,153.521 381.026,154.62C381.327,155.719 380.68,156.853 379.58,157.154C370.458,159.648 356.65,172.59 356.512,172.721C356.114,173.095 355.605,173.282 355.097,173.282Z" style="fill:rgb(48,115,186);fill-rule:nonzero;"/>
            </g>
            <g transform="matrix(5.55556,0,0,5.55556,13534.1,-2357.18)">
                <path d="M355.097,173.282C354.58,173.282 354.064,173.089 353.665,172.704L344.292,163.669C343.472,162.878 343.447,161.572 344.238,160.752C345.03,159.932 346.336,159.909 347.155,160.698L355.135,168.39C359.08,164.861 370.151,155.455 378.492,153.174C379.591,152.872 380.726,153.521 381.026,154.62C381.327,155.719 380.68,156.853 379.58,157.154C370.458,159.648 356.65,172.59 356.512,172.721C356.114,173.095 355.605,173.282 355.097,173.282Z" style="fill:rgb(48,115,186);fill-rule:nonzero;"/>
            </g>
            <g transform="matrix(5.55556,0,0,5.55556,13563.5,-2834.09)">
                <path d="M346.683,82.217L346.019,82.217C346.034,82.133 346.047,82.048 346.059,81.963L346.82,76.325L346.787,81.138C346.784,81.506 346.749,81.867 346.683,82.217Z" style="fill:rgb(0,86,167);fill-rule:nonzero;"/>
            </g>
            <g transform="matrix(5.55556,0,0,5.55556,13563.5,-2834.09)">
                <path d="M342.612,86.888C344.339,85.917 345.665,84.192 346.019,82.217L346.683,82.217C346.273,84.408 344.686,86.191 342.612,86.888Z" style="fill:rgb(144,147,148);fill-rule:nonzero;"/>
            </g>
            <g transform="matrix(5.55556,0,0,5.55556,13563.5,-2834.09)">
                <path d="M291.55,64.827L342.613,64.827C345.78,64.827 348.022,67.418 347.595,70.586L346.059,81.963C345.631,85.131 342.689,87.723 339.521,87.723L288.459,87.723C285.291,87.723 283.05,85.131 283.477,81.963L285.013,70.586C285.441,67.418 288.383,64.827 291.55,64.827Z" style="fill:rgb(48,115,186);fill-rule:nonzero;"/>
            </g>
            <g transform="matrix(5.55556,0,0,5.55556,13563.5,-2834.09)">
                <path d="M339.521,87.723L288.459,87.723C285.551,87.723 283.424,85.539 283.425,82.73C283.425,82.479 283.442,82.223 283.477,81.963L285.013,70.586C285.441,67.418 288.383,64.827 291.55,64.827L342.613,64.827C345.52,64.827 347.648,67.011 347.647,69.819C347.647,70.07 347.63,70.326 347.595,70.586L346.059,81.963C345.631,85.131 342.689,87.723 339.521,87.723ZM318.335,67.235C317.48,67.235 316.788,67.927 316.788,68.782C316.788,69.636 317.48,70.329 318.335,70.329L341.287,70.329C342.142,70.329 342.834,69.636 342.834,68.782C342.834,67.927 342.142,67.235 341.287,67.235L318.335,67.235ZM308.22,67.235C307.365,67.235 306.673,67.927 306.673,68.782C306.673,69.636 307.365,70.329 308.22,70.329L310.642,70.329C311.496,70.329 312.188,69.636 312.188,68.782C312.188,67.927 311.496,67.235 310.642,67.235L308.22,67.235Z" style="fill:rgb(158,193,230);fill-rule:nonzero;"/>
            </g>
            <g transform="matrix(5.55556,0,0,5.55556,13563.5,-2834.09)">
                <path d="M341.287,70.329L318.335,70.329C317.48,70.329 316.788,69.636 316.788,68.782C316.788,67.927 317.48,67.235 318.335,67.235L341.287,67.235C342.142,67.235 342.834,67.927 342.834,68.782C342.834,69.636 342.142,70.329 341.287,70.329Z" style="fill:rgb(202,221,242);fill-rule:nonzero;"/>
            </g>
            <g transform="matrix(5.55556,0,0,5.55556,13563.5,-2834.09)">
                <path d="M310.642,70.329L308.22,70.329C307.365,70.329 306.673,69.636 306.673,68.782C306.673,67.927 307.365,67.235 308.22,67.235L310.642,67.235C311.496,67.235 312.188,67.927 312.188,68.782C312.188,69.636 311.496,70.329 310.642,70.329Z" style="fill:rgb(202,221,242);fill-rule:nonzero;"/>
            </g>
            <g transform="matrix(5.55556,0,0,5.55556,13563.5,-2834.09)">
                <path d="M169.461,292.093L179.331,293.976L202.663,184.254L188.172,181.489L169.461,292.093Z" style="fill:rgb(48,115,186);fill-rule:nonzero;"/>
            </g>
            <g transform="matrix(5.55556,0,0,5.55556,13563.5,-2834.09)">
                <path d="M204.152,108.075L215.968,104.193L216.787,99.901L205.776,99.562L204.152,108.075Z" style="fill:rgb(12,43,52);fill-rule:nonzero;"/>
            </g>
            <g transform="matrix(5.55556,0,0,5.55556,13563.5,-2834.09)">
                <path d="M203.854,105.577L217.313,101.2L203.481,179.962L188.991,177.197L203.854,105.577Z" style="fill:rgb(48,115,186);fill-rule:nonzero;"/>
            </g>
            <g transform="matrix(5.55556,0,0,5.55556,13563.5,-2834.09)">
                <path d="M188.761,181.601L202.074,184.142L202.893,179.85L189.58,177.309L188.761,181.601Z" style="fill:rgb(12,43,52);fill-rule:nonzero;"/>
            </g>
            <g transform="matrix(5.55556,0,0,5.55556,13563.5,-2834.09)">
                <path d="M171.235,305.079C171.111,305.729 171.383,306.328 171.843,306.415C172.303,306.503 172.776,306.047 172.9,305.396C173.024,304.747 172.752,304.148 172.292,304.06C171.833,303.973 171.36,304.429 171.235,305.079Z" style="fill:rgb(48,115,186);fill-rule:nonzero;"/>
            </g>
            <g transform="matrix(5.55556,0,0,5.55556,13563.5,-2834.09)">
                <path d="M170.56,305.161L173.498,305.722L179.331,293.976L169.461,292.093L170.56,305.161Z" style="fill:rgb(12,43,52);fill-rule:nonzero;"/>
            </g>
            <g transform="matrix(5.55556,0,0,5.55556,13563.5,-2834.09)">
                <path d="M188.339,157.256C188.164,157.256 187.984,157.218 187.814,157.139C187.191,156.849 186.922,156.107 187.212,155.484C193.408,142.2 198.44,114.441 199.116,107.84C199.315,105.893 200.558,104.2 202.359,103.425L205.629,102.016C206.261,101.743 206.993,102.033 207.265,102.665C207.537,103.297 207.246,104.029 206.615,104.301L203.344,105.711C202.371,106.13 201.7,107.043 201.593,108.094C200.883,115.026 195.886,142.777 189.468,156.537C189.257,156.989 188.808,157.256 188.339,157.256Z" style="fill:rgb(12,43,52);fill-rule:nonzero;"/>
            </g>
            <g transform="matrix(5.55556,0,0,5.55556,13563.5,-2834.09)">
                <path d="M142.273,104.23C139.781,108.496 137.263,113.024 134.901,117.467C133.728,119.705 132.592,121.952 131.496,124.202C130.442,126.462 129.392,128.72 128.492,130.981L128.322,131.393L128.3,131.402C128.279,131.426 128.251,131.503 128.229,131.612C128.177,131.829 128.157,132.18 128.162,132.591C128.173,133.42 128.337,134.461 128.584,135.526C129.101,137.675 129.864,139.997 130.78,142.284C131.67,144.592 132.692,146.903 133.751,149.216C134.786,151.532 135.945,153.862 137.043,156.118L132.294,159.362C128.755,155.209 125.634,150.897 122.876,146.094C121.533,143.675 120.229,141.183 119.233,138.329C118.736,136.894 118.287,135.383 118.032,133.612C117.905,132.724 117.847,131.764 117.913,130.681C117.949,130.14 118.016,129.569 118.151,128.958C118.206,128.665 118.308,128.334 118.395,128.026L118.557,127.515C120.195,122.183 122.296,117.173 124.614,112.304C126.962,107.423 129.473,102.787 132.399,98.122L142.273,104.23Z" style="fill:rgb(249,182,182);fill-rule:nonzero;"/>
            </g>
            <g transform="matrix(5.55556,0,0,5.55556,13563.5,-2834.09)">
                <path d="M136.351,154.689L140.818,158.168L133.993,163.805C133.993,163.805 130.878,160.794 131.359,157.114L136.351,154.689Z" style="fill:rgb(249,182,182);fill-rule:nonzero;"/>
            </g>
            <g transform="matrix(5.55556,0,0,5.55556,13563.5,-2834.09)">
                <path d="M142.638,163.248L138.092,169.099L133.993,163.805L140.818,158.168L142.638,163.248Z" style="fill:rgb(249,182,182);fill-rule:nonzero;"/>
            </g>
            <g transform="matrix(5.55556,0,0,5.55556,13563.5,-2834.09)">
                <path d="M168.042,62.547C168.166,63.153 168.586,63.578 168.982,63.497C169.377,63.417 169.599,62.861 169.476,62.255C169.353,61.65 168.932,61.224 168.536,61.305C168.14,61.385 167.919,61.942 168.042,62.547Z" style="fill:rgb(12,43,52);fill-rule:nonzero;"/>
            </g>
            <g transform="matrix(5.55556,0,0,5.55556,13563.5,-2834.09)">
                <path d="M168.53,63.589C168.53,63.589 170.617,66.802 172.475,68.18C171.607,69.397 169.693,69.31 169.693,69.31L168.53,63.589Z" style="fill:rgb(244,130,127);fill-rule:nonzero;"/>
            </g>
            <g transform="matrix(5.55556,0,0,5.55556,13563.5,-2834.09)">
                <path d="M165.142,59.635L164.896,59.538C164.749,59.403 164.739,59.173 164.876,59.026C166.238,57.552 167.892,57.814 167.963,57.826C168.16,57.859 168.293,58.046 168.259,58.245C168.226,58.441 168.036,58.573 167.843,58.541C167.788,58.533 166.496,58.343 165.408,59.519C165.337,59.596 165.24,59.635 165.142,59.635Z" style="fill:rgb(12,43,52);fill-rule:nonzero;"/>
            </g>
            <g transform="matrix(5.55556,0,0,5.55556,13563.5,-2834.09)">
                <path d="M150.795,71.063C151.894,76.667 152.99,86.935 149.069,90.674C149.069,90.674 150.601,96.359 161.014,96.359C172.463,96.359 166.486,90.674 166.486,90.674C160.237,89.182 160.398,84.546 161.486,80.192L150.795,71.063Z" style="fill:rgb(249,182,182);fill-rule:nonzero;"/>
            </g>
            <g transform="matrix(5.55556,0,0,5.55556,13563.5,-2834.09)">
                <path d="M146.854,91.095C146.021,89.118 147.805,83.119 149.704,82.533C151.792,81.886 159.733,82.247 163.674,83.896C166.476,86.736 167.286,92.633 167.286,92.633L146.854,91.095Z" style="fill:rgb(12,43,52);fill-rule:nonzero;"/>
            </g>
            <g transform="matrix(5.55556,0,0,5.55556,13563.5,-2834.09)">
                <path d="M115.394,351.739L115.607,351.809C115.751,351.878 115.841,351.979 115.883,352.119C115.979,352.445 115.859,352.549 115.819,352.582C115.407,352.933 113.877,352.609 112.8,352.179C113.531,351.921 114.713,351.592 115.394,351.739ZM114.147,352.963C114.916,353.13 115.685,353.173 116.054,352.858C116.209,352.726 116.366,352.473 116.23,352.016C116.159,351.775 116.001,351.596 115.763,351.481C114.729,350.988 112.352,351.957 112.251,351.998L112.139,352.161L112.241,352.329C112.605,352.505 113.376,352.796 114.147,352.963Z" style="fill:rgb(48,115,186);fill-rule:nonzero;"/>
            </g>
            <g transform="matrix(5.55556,0,0,5.55556,13563.5,-2834.09)">
                <path d="M114.45,349.636L114.529,349.658C114.753,349.736 114.75,349.846 114.749,349.892C114.736,350.406 113.514,351.439 112.617,351.857C112.841,351.245 113.353,350.038 114.009,349.703C114.159,349.626 114.304,349.603 114.45,349.636ZM112.282,352.344L112.371,352.34C113.237,352.087 115.09,350.771 115.112,349.902C115.116,349.745 115.062,349.459 114.648,349.315C114.38,349.222 114.11,349.244 113.844,349.38C112.82,349.902 112.173,352.023 112.146,352.114L112.191,352.294L112.282,352.344Z" style="fill:rgb(48,115,186);fill-rule:nonzero;"/>
            </g>
            <g transform="matrix(5.55556,0,0,5.55556,13563.5,-2834.09)">
                <path d="M170.658,352.763C170.786,352.763 170.904,352.775 171.009,352.805C171.176,352.85 171.292,352.933 171.364,353.058C171.493,353.283 171.446,353.395 171.399,353.459C171.043,353.954 169.107,353.966 167.683,353.765C168.393,353.4 169.763,352.763 170.658,352.763ZM169.443,354.248C170.426,354.248 171.376,354.113 171.694,353.671C171.806,353.517 171.893,353.254 171.679,352.878C171.559,352.668 171.365,352.525 171.104,352.454C169.829,352.107 167.152,353.633 167.039,353.698L166.95,353.885L167.094,354.033C167.583,354.131 168.527,354.248 169.443,354.248Z" style="fill:rgb(48,115,186);fill-rule:nonzero;"/>
            </g>
            <g transform="matrix(5.55556,0,0,5.55556,13563.5,-2834.09)">
                <path d="M168.998,350.932L169.107,350.936C169.434,350.97 169.455,351.099 169.461,351.141C169.545,351.661 168.301,352.963 167.357,353.529C167.456,352.927 167.729,351.692 168.369,351.167C168.561,351.009 168.768,350.932 168.998,350.932ZM167.129,354.037L167.204,354.02C168.128,353.605 169.959,351.949 169.819,351.083C169.787,350.88 169.642,350.627 169.144,350.576C168.771,350.538 168.435,350.643 168.138,350.887C167.164,351.687 166.957,353.751 166.949,353.838L167.023,354.003L167.129,354.037Z" style="fill:rgb(48,115,186);fill-rule:nonzero;"/>
            </g>
            <g transform="matrix(5.55556,0,0,5.55556,13563.5,-2834.09)">
                <path d="M158.706,353.855L166.366,353.855L167.129,336.116L159.469,336.116L158.706,353.855Z" style="fill:rgb(249,182,182);fill-rule:nonzero;"/>
            </g>
            <g transform="matrix(5.55556,0,0,5.55556,13563.5,-2834.09)">
                <path d="M103.426,350.308L111.118,351.93L116.545,335.407L108.854,333.786L103.426,350.308Z" style="fill:rgb(249,182,182);fill-rule:nonzero;"/>
            </g>
            <g transform="matrix(5.55556,0,0,5.55556,13563.5,-2834.09)">
                <path d="M111.949,351.178L103.539,349.357C103.232,349.291 102.921,349.446 102.791,349.73L99.87,356.064C99.567,356.722 99.969,357.492 100.679,357.634C103.626,358.219 105.09,358.355 108.789,359.156C111.064,359.649 116.201,360.9 119.343,361.581C122.417,362.246 123.569,359.243 122.343,358.683C116.848,356.172 114.552,353.962 113.065,351.901C112.797,351.53 112.397,351.275 111.949,351.178Z" style="fill:rgb(12,43,52);fill-rule:nonzero;"/>
            </g>
            <g transform="matrix(5.55556,0,0,5.55556,13563.5,-2834.09)">
                <path d="M166.316,352.969L157.951,352.968C157.637,352.968 157.366,353.185 157.298,353.491L155.785,360.3C155.628,361.006 156.164,361.675 156.887,361.663C159.905,361.611 164.265,361.434 168.058,361.434C172.493,361.434 170.771,361.677 175.971,361.677C179.116,361.677 179.989,358.497 178.672,358.209C172.68,356.898 173.339,356.758 168.161,353.565C167.598,353.218 166.977,352.969 166.316,352.969Z" style="fill:rgb(12,43,52);fill-rule:nonzero;"/>
            </g>
            <g transform="matrix(5.55556,0,0,5.55556,13563.5,-2834.09)">
                <path d="M135.354,92.406C128.175,94.051 122.255,112.379 122.255,112.379L136.672,123.368C136.672,123.368 141.964,118.379 144.319,109.211C146.787,99.606 142.695,90.723 135.354,92.406Z" style="fill:rgb(12,43,52);fill-rule:nonzero;"/>
            </g>
            <g transform="matrix(5.55556,0,0,5.55556,13563.5,-2834.09)">
                <path d="M136.669,123.37L136.199,123.008L136.672,123.368C136.67,123.369 136.669,123.37 136.669,123.37ZM141.101,117.3C142.298,115.144 143.49,112.436 144.319,109.211C144.466,108.636 144.591,108.064 144.692,107.497L144.698,107.5C144.593,108.062 144.468,108.637 144.322,109.21C143.493,112.435 142.3,115.144 141.101,117.3Z" style="fill:rgb(195,197,197);fill-rule:nonzero;"/>
            </g>
            <g transform="matrix(5.55556,0,0,5.55556,13563.5,-2834.09)">
                <path d="M136.672,123.368L136.199,123.008L136.033,122.879C136.335,116.769 137.607,109.742 141.507,105.884L144.692,107.497C144.591,108.064 144.466,108.636 144.319,109.211C143.49,112.436 142.298,115.144 141.101,117.3C138.938,121.192 136.758,123.285 136.672,123.368Z" style="fill:rgb(2,30,39);fill-rule:nonzero;"/>
            </g>
            <g transform="matrix(5.55556,0,0,5.55556,13563.5,-2834.09)">
                <path d="M178.268,92.8C178.268,92.8 186.421,102.009 178.722,159.009L137.75,159.009C137.468,152.72 141.42,122.039 135.354,92.406C135.354,92.406 142.377,90.996 149.069,90.674C154.304,90.421 161.883,90.254 166.486,90.674C172.553,91.228 178.268,92.8 178.268,92.8Z" style="fill:rgb(12,43,52);fill-rule:nonzero;"/>
            </g>
            <g transform="matrix(5.55556,0,0,5.55556,13563.5,-2834.09)">
                <path d="M166.736,345.265L166.806,343.632L166.736,345.265ZM159.076,345.265L159.072,345.265L159.464,336.121L159.469,336.121L159.076,345.265Z" style="fill:rgb(195,197,197);fill-rule:nonzero;"/>
            </g>
            <g transform="matrix(5.55556,0,0,5.55556,13563.5,-2834.09)">
                <path d="M166.736,345.265L159.076,345.265L159.469,336.121L167.127,336.121L166.806,343.632L166.736,345.265Z" style="fill:rgb(216,151,147);fill-rule:nonzero;"/>
            </g>
            <g transform="matrix(5.55556,0,0,5.55556,13563.5,-2834.09)">
                <path d="M106.054,342.308L106.049,342.306L106.61,340.601L106.615,340.602L106.054,342.308Z" style="fill:rgb(195,197,197);fill-rule:nonzero;"/>
            </g>
            <g transform="matrix(5.55556,0,0,5.55556,13563.5,-2834.09)">
                <path d="M113.744,343.928L106.054,342.308L106.615,340.602L114.291,342.264L113.744,343.928Z" style="fill:rgb(216,151,147);fill-rule:nonzero;"/>
            </g>
            <g transform="matrix(5.55556,0,0,5.55556,13563.5,-2834.09)">
                <path d="M147.587,65.369C149.555,72.711 150.334,77.109 154.865,80.163C161.681,84.755 170.167,79.484 170.433,71.702C170.672,64.696 167.414,53.864 159.534,52.384C151.77,50.926 145.619,58.025 147.587,65.369Z" style="fill:rgb(249,182,182);fill-rule:nonzero;"/>
            </g>
            <g transform="matrix(5.55556,0,0,5.55556,13563.5,-2834.09)">
                <path d="M154.907,79.312L154.809,79.312C152.406,79.315 150.145,78.177 148.743,76.226C146.439,73.02 143.212,67.452 142.842,61.022C145.758,57.939 156.733,55.909 161.62,57.022C165.692,57.95 165.1,69.543 161.248,75.805C159.9,77.997 157.48,79.301 154.907,79.312Z" style="fill:rgb(249,182,182);fill-rule:nonzero;"/>
            </g>
            <g transform="matrix(5.55556,0,0,5.55556,13563.5,-2834.09)">
                <path d="M154.8,79.312C152.4,79.312 150.143,78.175 148.743,76.226C146.439,73.02 143.212,67.452 142.842,61.022C145.207,58.521 152.875,56.714 158.294,56.714C159.557,56.714 160.697,56.812 161.62,57.022C163.532,57.458 164.416,60.247 164.416,63.731C164.417,67.665 163.291,72.485 161.248,75.805C159.9,77.997 157.48,79.301 154.907,79.312L154.8,79.312Z" style="fill:rgb(73,74,79);fill-rule:nonzero;"/>
            </g>
            <g transform="matrix(5.55556,0,0,5.55556,13563.5,-2834.09)">
                <path d="M147.286,63.633C143.835,63.386 141.883,61.215 141.258,59.356C140.386,56.758 141.314,51.272 146.536,51.106C151.758,50.939 152.314,47.966 150.703,47.356C154.12,47.606 153.036,49.995 153.036,49.995C153.953,50.05 154.814,47.55 160.008,47.745C165.203,47.939 167.786,46.828 167.12,45.662C169.592,46.162 168.897,49.162 166.814,49.966C166.814,49.966 171.758,53.716 172.925,51.662C173.758,53.162 172.12,54.955 165.87,54.142C168.363,57.626 162.461,56.844 159.947,58.428C157.433,60.011 150.737,63.88 147.286,63.633Z" style="fill:rgb(12,43,52);fill-rule:nonzero;"/>
            </g>
            <g transform="matrix(5.55556,0,0,5.55556,13563.5,-2834.09)">
                <path d="M160.081,65.024C160.581,66.952 161.847,68.609 163.172,69.595C165.166,71.078 166.654,69.619 166.513,67.363C166.385,65.331 165.194,62.114 162.995,61.512C160.829,60.918 159.509,62.821 160.081,65.024Z" style="fill:rgb(249,182,182);fill-rule:nonzero;"/>
            </g>
            <g transform="matrix(5.55556,0,0,5.55556,13563.5,-2834.09)">
                <path d="M164.187,159.009C164.187,159.009 155.495,217.548 150.722,239.479C145.496,263.495 117.473,342.953 117.473,342.953L103.76,339.984C103.76,339.984 123.356,275.231 127.742,241.656C131.111,215.866 137.75,159.009 137.75,159.009L164.187,159.009Z" style="fill:rgb(12,43,52);fill-rule:nonzero;"/>
            </g>
            <g transform="matrix(5.55556,0,0,5.55556,13563.5,-2834.09)">
                <path d="M120.756,338.375L118.2,343.334L102.773,339.994L104.073,335.356L120.756,338.375Z" style="fill:rgb(48,115,186);fill-rule:nonzero;"/>
            </g>
            <g transform="matrix(5.55556,0,0,5.55556,13563.5,-2834.09)">
                <path d="M150.915,238.601C150.915,238.597 150.914,238.592 150.914,238.587C150.941,238.462 150.968,238.336 150.995,238.208L150.998,238.208C150.971,238.34 150.943,238.472 150.915,238.601Z" style="fill:rgb(160,163,165);fill-rule:nonzero;"/>
            </g>
            <g transform="matrix(5.55556,0,0,5.55556,13563.5,-2834.09)">
                <path d="M150.998,238.208L150.995,238.208C151.186,237.3 151.384,236.339 151.586,235.331L151.589,235.331C151.387,236.34 151.19,237.3 150.998,238.208Z" style="fill:rgb(149,152,153);fill-rule:nonzero;"/>
            </g>
            <g transform="matrix(5.55556,0,0,5.55556,13563.5,-2834.09)">
                <path d="M151.589,235.331L151.586,235.331C152.558,230.483 153.643,224.537 154.757,218.127C153.644,224.539 152.56,230.483 151.589,235.331Z" style="fill:rgb(160,163,165);fill-rule:nonzero;"/>
            </g>
            <g transform="matrix(5.55556,0,0,5.55556,13563.5,-2834.09)">
                <path d="M154.757,218.127C154.761,218.104 154.765,218.081 154.769,218.058C154.765,218.08 154.761,218.104 154.757,218.127Z" style="fill:rgb(160,163,165);fill-rule:nonzero;"/>
            </g>
            <g transform="matrix(5.55556,0,0,5.55556,13563.5,-2834.09)">
                <path d="M150.914,238.587C149.705,219.304 148.645,181.836 158.693,179.866C158.96,179.813 159.217,179.788 159.465,179.788C160.003,179.788 160.499,179.909 160.956,180.138C159.19,191.476 156.925,205.639 154.769,218.058C154.765,218.081 154.761,218.104 154.757,218.127C153.643,224.537 152.558,230.483 151.586,235.331C151.384,236.339 151.186,237.3 150.995,238.208C150.968,238.336 150.941,238.462 150.914,238.587Z" style="fill:rgb(1,23,33);fill-rule:nonzero;"/>
            </g>
            <g transform="matrix(5.55556,0,0,5.55556,13563.5,-2834.09)">
                <path d="M178.722,159.009C178.722,159.009 179.776,216.281 178.943,239.641C178.077,263.937 169.59,343.494 169.59,343.494L156.614,343.494C156.614,343.494 156.137,265.357 155.56,241.495C154.931,215.48 151.79,159.009 151.79,159.009L178.722,159.009Z" style="fill:rgb(12,43,52);fill-rule:nonzero;"/>
            </g>
            <g transform="matrix(5.55556,0,0,5.55556,13563.5,-2834.09)">
                <path d="M172.087,338.325L171.355,343.713L155.57,343.713L155.143,338.904L172.087,338.325Z" style="fill:rgb(48,115,186);fill-rule:nonzero;"/>
            </g>
            <g transform="matrix(5.55556,0,0,5.55556,13563.5,-2834.09)">
                <path d="M178.456,91.785C180.466,92.622 182.395,94.113 182.974,99.058C183.531,103.812 182.452,145.44 181.147,158.733C181.056,159.655 180.385,160.517 179.461,160.557C171.268,160.912 145.897,157.483 137.336,158.99C136.354,159.163 135.475,158.072 135.526,157.07C136.2,144.116 135.231,123.224 133.647,109.945C132.613,101.279 132.605,92.211 139.884,90.669C145.263,89.53 170.635,88.527 178.456,91.785Z" style="fill:rgb(48,115,186);fill-rule:nonzero;"/>
            </g>
            <g transform="matrix(5.55556,0,0,5.55556,13563.5,-2834.09)">
                <path d="M181.629,103.293C182.086,105.488 182.583,107.883 183.13,110.162C183.69,112.46 184.249,114.752 184.886,116.998C185.51,119.246 186.186,121.459 186.954,123.568C187.704,125.67 188.556,127.714 189.505,129.36C189.964,130.17 190.459,130.899 190.842,131.319C191.029,131.532 191.18,131.664 191.215,131.71C191.22,131.723 191.202,131.797 191.414,131.863C191.768,132.016 192.549,132.147 193.44,132.117C194.338,132.089 195.353,131.974 196.402,131.799C200.612,131.032 205.262,129.477 209.662,127.896L212.573,132.856C208.412,136.084 204.101,138.761 198.847,140.697C197.526,141.175 196.131,141.583 194.587,141.848C193.042,142.101 191.331,142.279 189.274,141.931C188.275,141.773 187.102,141.39 186.024,140.826C184.992,140.261 184.176,139.619 183.477,138.981C182.084,137.695 181.129,136.415 180.271,135.153C177.052,130.111 175.354,125.228 173.761,120.284C173.008,117.814 172.318,115.349 171.745,112.862C171.161,110.356 170.621,107.944 170.193,105.303L181.629,103.293Z" style="fill:rgb(249,182,182);fill-rule:nonzero;"/>
            </g>
            <g transform="matrix(5.55556,0,0,5.55556,13563.5,-2834.09)">
                <path d="M164.779,100.29C158.557,112.803 173.34,126.942 173.34,126.942L189.82,118.336C189.82,118.336 188.079,107.655 184.19,99.016C179.387,88.343 168.357,93.094 164.779,100.29Z" style="fill:rgb(12,43,52);fill-rule:nonzero;"/>
            </g>
            <g transform="matrix(5.55556,0,0,5.55556,13563.5,-2834.09)">
                <path d="M208.139,128.635L213.729,124.961L216.054,133.323C216.054,133.323 213.545,136.249 208.969,133.059L208.139,128.635Z" style="fill:rgb(249,182,182);fill-rule:nonzero;"/>
            </g>
            <g transform="matrix(5.55556,0,0,5.55556,13563.5,-2834.09)">
                <path d="M218.598,128.342L218.42,130.096C218.334,130.943 217.925,131.725 217.277,132.277L216.054,133.323L213.729,124.961L214.444,124.776C216.692,124.194 218.832,126.031 218.598,128.342Z" style="fill:rgb(249,182,182);fill-rule:nonzero;"/>
            </g>
        </g>
    </g>
</svg>
