<?xml version="1.0" encoding="UTF-8" standalone="no"?>
<!DOCTYPE svg PUBLIC "-//W3C//DTD SVG 1.1//EN" "http://www.w3.org/Graphics/SVG/1.1/DTD/svg11.dtd">
<svg width="100%" height="100%" viewBox="0 0 2778 2778" version="1.1" xmlns="http://www.w3.org/2000/svg" xmlns:xlink="http://www.w3.org/1999/xlink" xml:space="preserve" xmlns:serif="http://www.serif.com/" style="fill-rule:evenodd;clip-rule:evenodd;stroke-linejoin:round;stroke-miterlimit:2;">
    <g transform="matrix(1,0,0,1,-13417.8,-10608.2)">
        <g id="Artboard2" transform="matrix(1,0,0,1,-145.649,13794)">
            <rect x="13563.5" y="-3185.78" width="2777.78" height="2777.78" style="fill:none;"/>
            <g transform="matrix(5.55556,0,0,5.55556,13563.5,-2834.75)">
                <rect x="0" y="327.956" width="500" height="0.25" style="fill:rgb(197,218,241);fill-rule:nonzero;"/>
            </g>
            <g transform="matrix(5.55556,0,0,5.55556,13563.5,-2834.75)">
                <rect x="422.333" y="334.39" width="23.254" height="0.25" style="fill:rgb(197,218,241);fill-rule:nonzero;"/>
            </g>
            <g transform="matrix(5.55556,0,0,5.55556,13563.5,-2834.75)">
                <rect x="250.566" y="339.821" width="110.434" height="0.25" style="fill:rgb(197,218,241);fill-rule:nonzero;"/>
            </g>
            <g transform="matrix(5.55556,0,0,5.55556,13563.5,-2834.75)">
                <rect x="192.5" y="339.946" width="10.833" height="0.25" style="fill:rgb(197,218,241);fill-rule:nonzero;"/>
            </g>
            <g transform="matrix(5.55556,0,0,5.55556,13563.5,-2834.75)">
                <rect x="78" y="336.946" width="37.557" height="0.25" style="fill:rgb(197,218,241);fill-rule:nonzero;"/>
            </g>
            <g transform="matrix(5.55556,0,0,5.55556,13563.5,-2834.75)">
                <rect x="390.667" y="334.39" width="21.984" height="0.25" style="fill:rgb(197,218,241);fill-rule:nonzero;"/>
            </g>
            <g transform="matrix(5.55556,0,0,5.55556,13563.5,-2834.75)">
                <rect x="51.646" y="336.946" width="18.187" height="0.25" style="fill:rgb(197,218,241);fill-rule:nonzero;"/>
            </g>
            <g transform="matrix(5.55556,0,0,5.55556,13563.5,-2834.75)">
                <path d="M43.915,0.761C40.905,0.761 38.457,3.209 38.457,6.218L38.457,277.649C38.457,280.659 40.905,283.107 43.915,283.107L237.014,283.107C240.022,283.107 242.471,280.659 242.471,277.649L242.471,6.218C242.471,3.209 240.022,0.761 237.014,0.761L43.915,0.761ZM237.014,283.357L43.915,283.357C40.767,283.357 38.207,280.797 38.207,277.649L38.207,6.218C38.207,3.071 40.767,0.511 43.915,0.511L237.014,0.511C240.16,0.511 242.721,3.071 242.721,6.218L242.721,277.649C242.721,280.797 240.16,283.357 237.014,283.357Z" style="fill:rgb(197,218,241);fill-rule:nonzero;"/>
            </g>
            <g transform="matrix(5.55556,0,0,5.55556,13563.5,-2834.75)">
                <path d="M260.212,0.761C257.203,0.761 254.755,3.209 254.755,6.218L254.755,277.649C254.755,280.659 257.203,283.107 260.212,283.107L453.311,283.107C456.32,283.107 458.769,280.659 458.769,277.649L458.769,6.218C458.769,3.209 456.32,0.761 453.311,0.761L260.212,0.761ZM453.311,283.357L260.212,283.357C257.065,283.357 254.505,280.797 254.505,277.649L254.505,6.218C254.505,3.071 257.065,0.511 260.212,0.511L453.311,0.511C456.458,0.511 459.019,3.071 459.019,6.218L459.019,277.649C459.019,280.797 456.458,283.357 453.311,283.357Z" style="fill:rgb(197,218,241);fill-rule:nonzero;"/>
            </g>
            <g transform="matrix(5.55556,0,0,5.55556,13563.5,-2834.75)">
                <rect x="323.564" y="19.108" width="75.575" height="131.566" style="fill:rgb(197,218,241);fill-rule:nonzero;"/>
            </g>
            <g transform="matrix(5.55556,0,0,5.55556,13563.5,-2834.75)">
                <rect x="319.481" y="19.108" width="75.574" height="131.566" style="fill:rgb(237,245,252);fill-rule:nonzero;"/>
            </g>
            <g transform="matrix(5.55556,0,0,5.55556,13563.5,-2834.75)">
                <rect x="326.811" y="25.282" width="60.915" height="119.217" style="fill:white;fill-rule:nonzero;"/>
            </g>
            <g transform="matrix(5.55556,0,0,5.55556,13563.5,-2834.75)">
                <rect x="326.811" y="25.282" width="3.086" height="119.217" style="fill:rgb(197,218,241);fill-rule:nonzero;"/>
            </g>
            <g transform="matrix(5.55556,0,0,5.55556,13563.5,-2834.75)">
                <rect x="322.513" y="107.445" width="69.51" height="8.289" style="fill:rgb(237,245,252);fill-rule:nonzero;"/>
            </g>
            <g transform="matrix(5.55556,0,0,5.55556,13563.5,-2834.75)">
                <rect x="195.14" y="19.108" width="75.574" height="131.566" style="fill:rgb(197,218,241);fill-rule:nonzero;"/>
            </g>
            <g transform="matrix(5.55556,0,0,5.55556,13563.5,-2834.75)">
                <rect x="191.057" y="19.108" width="75.574" height="131.566" style="fill:rgb(237,245,252);fill-rule:nonzero;"/>
            </g>
            <g transform="matrix(5.55556,0,0,5.55556,13563.5,-2834.75)">
                <rect x="198.387" y="25.282" width="60.914" height="119.217" style="fill:white;fill-rule:nonzero;"/>
            </g>
            <g transform="matrix(5.55556,0,0,5.55556,13563.5,-2834.75)">
                <rect x="198.387" y="25.282" width="3.087" height="119.217" style="fill:rgb(197,218,241);fill-rule:nonzero;"/>
            </g>
            <g transform="matrix(5.55556,0,0,5.55556,13563.5,-2834.75)">
                <rect x="194.088" y="107.445" width="69.511" height="8.289" style="fill:rgb(237,245,252);fill-rule:nonzero;"/>
            </g>
            <g transform="matrix(5.55556,0,0,5.55556,13563.5,-2834.75)">
                <rect x="66.715" y="19.108" width="75.575" height="131.566" style="fill:rgb(197,218,241);fill-rule:nonzero;"/>
            </g>
            <g transform="matrix(5.55556,0,0,5.55556,13563.5,-2834.75)">
                <rect x="62.632" y="19.108" width="75.575" height="131.566" style="fill:rgb(237,245,252);fill-rule:nonzero;"/>
            </g>
            <g transform="matrix(5.55556,0,0,5.55556,13563.5,-2834.75)">
                <rect x="69.962" y="25.282" width="60.915" height="119.217" style="fill:white;fill-rule:nonzero;"/>
            </g>
            <g transform="matrix(5.55556,0,0,5.55556,13563.5,-2834.75)">
                <rect x="69.962" y="25.282" width="3.087" height="119.217" style="fill:rgb(197,218,241);fill-rule:nonzero;"/>
            </g>
            <g transform="matrix(5.55556,0,0,5.55556,13563.5,-2834.75)">
                <rect x="65.664" y="107.445" width="69.511" height="8.289" style="fill:rgb(237,245,252);fill-rule:nonzero;"/>
            </g>
            <g transform="matrix(5.55556,0,0,5.55556,13563.5,-2834.75)">
                <path d="M140.021,232.075C126.395,233.954 117.962,204.34 148.06,179.262C146.434,208.292 163.776,228.8 140.021,232.075Z" style="fill:rgb(197,218,241);fill-rule:nonzero;"/>
            </g>
            <g transform="matrix(5.55556,0,0,5.55556,13563.5,-2834.75)">
                <path d="M130.016,270.867C110.259,257.021 123.781,208.628 184.929,212.135C158.472,247.754 164.46,295.007 130.016,270.867Z" style="fill:rgb(190,214,239);fill-rule:nonzero;"/>
            </g>
            <g transform="matrix(5.55556,0,0,5.55556,13563.5,-2834.75)">
                <path d="M136.987,270.541C150.121,256.396 131.428,220.807 84.181,233.803C110.852,257.232 114.09,295.2 136.987,270.541Z" style="fill:rgb(190,214,239);fill-rule:nonzero;"/>
            </g>
            <g transform="matrix(5.55556,0,0,5.55556,13563.5,-2834.75)">
                <path d="M120.145,249.915C115.604,244.386 110.235,238.164 111.54,231.591C112.886,224.956 116.092,220.116 113.506,213.113C110.408,204.719 111.009,194.695 116.247,195.533C121.475,196.375 127.358,202.513 127.201,210.651C127.105,218.528 132.252,221.044 137.095,225.238C141.922,229.395 143.811,235.545 144.677,241.593C146.205,251.132 158.551,249.323 161.834,257.612C165.215,265.6 158.46,276.257 147.651,278.706C136.801,281.163 129.142,282.681 121.773,274.252C114.276,265.287 126.86,257.84 120.145,249.915Z" style="fill:rgb(237,245,252);fill-rule:nonzero;"/>
            </g>
            <g transform="matrix(5.55556,0,0,5.55556,13563.5,-2834.75)">
                <path d="M157.328,327.956L116.724,327.956L113.659,272.638L160.392,272.638L157.328,327.956Z" style="fill:rgb(218,232,247);fill-rule:nonzero;"/>
            </g>
            <g transform="matrix(5.55556,0,0,5.55556,13563.5,-2834.75)">
                <rect x="110.633" y="271.506" width="52.785" height="5.959" style="fill:rgb(218,232,247);fill-rule:nonzero;"/>
            </g>
            <g transform="matrix(5.55556,0,0,5.55556,13563.5,-2834.75)">
                <rect x="396.74" y="201.974" width="27.318" height="118.475" style="fill:rgb(218,232,247);fill-rule:nonzero;"/>
            </g>
            <g transform="matrix(5.55556,0,0,5.55556,13563.5,-2834.75)">
                <rect x="182.658" y="320.449" width="236.155" height="7.507" style="fill:rgb(218,232,247);fill-rule:nonzero;"/>
            </g>
            <g transform="matrix(5.55556,0,0,5.55556,13563.5,-2834.75)">
                <rect x="177.412" y="201.974" width="219.328" height="118.475" style="fill:rgb(237,245,252);fill-rule:nonzero;"/>
            </g>
            <g transform="matrix(5.55556,0,0,5.55556,13563.5,-2834.75)">
                <rect x="188.152" y="216.556" width="197.848" height="38.856" style="fill:rgb(218,232,247);fill-rule:nonzero;"/>
            </g>
            <g transform="matrix(5.55556,0,0,5.55556,13563.5,-2834.75)">
                <rect x="188.152" y="267.011" width="197.848" height="38.855" style="fill:rgb(218,232,247);fill-rule:nonzero;"/>
            </g>
            <g transform="matrix(5.55556,0,0,5.55556,13563.5,-2834.75)">
                <path d="M225.535,238.648L348.618,238.648C350.083,238.648 351.282,237.45 351.282,235.984C351.282,234.519 350.083,233.32 348.618,233.32L225.535,233.32C224.069,233.32 222.871,234.519 222.871,235.984C222.871,237.45 224.069,238.648 225.535,238.648Z" style="fill:rgb(237,245,252);fill-rule:nonzero;"/>
            </g>
            <g transform="matrix(5.55556,0,0,5.55556,13563.5,-2834.75)">
                <path d="M225.535,289.102L348.618,289.102C350.083,289.102 351.282,287.903 351.282,286.438C351.282,284.972 350.083,283.773 348.618,283.773L225.535,283.773C224.069,283.773 222.871,284.972 222.871,286.438C222.871,287.903 224.069,289.102 225.535,289.102Z" style="fill:rgb(237,245,252);fill-rule:nonzero;"/>
            </g>
            <g transform="matrix(5.55556,0,0,5.55556,13563.5,-2834.75)">
                <path d="M336.187,184.687C336.187,184.687 367.494,214.345 386.071,184.563C386.071,184.563 381.131,174.996 375.92,174.174C370.709,173.352 370.497,182.456 365.896,179.648C361.295,176.84 355.966,167.231 353.048,172.362C350.13,177.493 346.12,170.179 341.748,169.762C337.376,169.344 336.187,184.687 336.187,184.687Z" style="fill:rgb(237,245,252);fill-rule:nonzero;"/>
            </g>
            <g transform="matrix(5.55556,0,0,5.55556,13563.5,-2834.75)">
                <path d="M388.063,182.641C388.063,182.641 387.375,201.974 361,201.974C334.625,201.974 333.937,182.641 333.937,182.641L388.063,182.641Z" style="fill:rgb(218,232,247);fill-rule:nonzero;"/>
            </g>
            <g transform="matrix(5.55556,0,0,5.55556,13563.5,-2834.75)">
                <path d="M254.612,172.557L269.803,172.557L269.803,201.974L225.196,201.974C225.196,185.728 238.366,172.557 254.612,172.557Z" style="fill:rgb(237,245,252);fill-rule:nonzero;"/>
            </g>
            <g transform="matrix(5.55556,0,0,5.55556,13563.5,-2834.75)">
                <rect x="269.803" y="172.557" width="14.01" height="29.417" style="fill:rgb(197,218,241);fill-rule:nonzero;"/>
            </g>
            <g transform="matrix(5.55556,0,0,5.55556,13563.5,-2834.75)">
                <path d="M443.889,361.796C443.889,368.05 357.082,373.119 250,373.119C142.918,373.119 56.111,368.05 56.111,361.796C56.111,355.542 142.918,350.472 250,350.472C357.082,350.472 443.889,355.542 443.889,361.796Z" style="fill:rgb(233,242,251);fill-rule:nonzero;"/>
            </g>
            <g transform="matrix(5.55556,0,0,5.55556,13563.5,-2834.75)">
                <path d="M218.025,143.319C217.754,143.73 217.585,143.97 217.371,144.265C217.167,144.553 216.963,144.821 216.758,145.089C216.346,145.628 215.918,146.13 215.489,146.636C214.622,147.633 213.738,148.604 212.804,149.518C210.936,151.348 208.926,153.012 206.831,154.558C204.723,156.088 202.488,157.437 200.181,158.64C199.011,159.212 197.846,159.794 196.637,160.274L194.825,160.995L194.322,161.189C194.04,161.282 193.775,161.382 193.472,161.447C192.884,161.587 192.255,161.677 191.623,161.662C190.35,161.658 189.143,161.295 188.208,160.804C187.259,160.312 186.521,159.724 185.9,159.135C184.669,157.946 183.831,156.732 183.107,155.535C181.697,153.127 180.734,150.742 179.915,148.34C178.316,143.526 177.235,138.766 176.563,133.823L180.742,132.904C181.497,135.095 182.275,137.359 183.143,139.533C183.97,141.727 184.864,143.886 185.858,145.944C186.847,147.993 187.903,150.001 189.102,151.638C189.684,152.456 190.322,153.168 190.873,153.598C191.144,153.812 191.387,153.94 191.519,153.976C191.66,154.018 191.646,153.975 191.579,153.952C191.548,153.951 191.517,153.936 191.511,153.931C191.503,153.938 191.515,153.911 191.519,153.914L191.845,153.757L193.339,153.033C194.334,152.553 195.286,151.983 196.254,151.457C198.153,150.328 199.97,149.073 201.731,147.745C203.469,146.386 205.115,144.91 206.656,143.348C207.444,142.583 208.18,141.774 208.894,140.959C209.244,140.551 209.594,140.135 209.918,139.723L210.401,139.115L210.793,138.593L218.025,143.319Z" style="fill:rgb(201,120,101);fill-rule:nonzero;"/>
            </g>
            <g transform="matrix(5.55556,0,0,5.55556,13563.5,-2834.75)">
                <path d="M205.889,142.891L210.959,155.045L207.293,157.342L201.593,146.304L205.889,142.891Z" style="fill:rgb(10,57,93);fill-rule:nonzero;"/>
            </g>
            <g transform="matrix(5.55556,0,0,5.55556,13563.5,-2834.75)">
                <path d="M220.239,132.648C211.969,132.533 203.572,143.009 203.358,143.267L209.905,158.644C209.905,158.644 224.453,146.833 225.182,142.217C225.941,137.41 225.482,132.72 220.239,132.648Z" style="fill:rgb(31,95,173);fill-rule:nonzero;"/>
            </g>
            <g transform="matrix(5.55556,0,0,5.55556,13563.5,-2834.75)">
                <path d="M180.031,131.328L174.306,126.879L173.153,135.634C173.153,135.634 178.711,137.816 181.673,135.927L181.593,134.329C181.534,133.149 180.963,132.053 180.031,131.328Z" style="fill:rgb(201,120,101);fill-rule:nonzero;"/>
            </g>
            <g transform="matrix(5.55556,0,0,5.55556,13563.5,-2834.75)">
                <path d="M166.664,126.433L167.02,133.092L173.153,135.634L174.306,126.879L166.664,126.433Z" style="fill:rgb(201,120,101);fill-rule:nonzero;"/>
            </g>
            <g transform="matrix(5.55556,0,0,5.55556,13563.5,-2834.75)">
                <path d="M291.952,130.621L300.791,128.409L294.613,122.1C294.613,122.1 288.879,124.434 290.275,129.436L291.952,130.621Z" style="fill:rgb(201,120,101);fill-rule:nonzero;"/>
            </g>
            <g transform="matrix(5.55556,0,0,5.55556,13563.5,-2834.75)">
                <path d="M305.231,126.835L304.5,119.896L294.613,122.1L300.791,128.409L305.231,126.835Z" style="fill:rgb(201,120,101);fill-rule:nonzero;"/>
            </g>
            <g transform="matrix(5.55556,0,0,5.55556,13563.5,-2834.75)">
                <path d="M263.165,353.024L254.937,353.822L248.074,334.395L256.303,333.597L263.165,353.024Z" style="fill:rgb(201,120,101);fill-rule:nonzero;"/>
            </g>
            <g transform="matrix(5.55556,0,0,5.55556,13563.5,-2834.75)">
                <path d="M351.273,312.198L345.207,318.08L329.636,305.922L335.702,300.04L351.273,312.198Z" style="fill:rgb(201,120,101);fill-rule:nonzero;"/>
            </g>
            <g transform="matrix(5.55556,0,0,5.55556,13563.5,-2834.75)">
                <path d="M343.46,316.941L348.119,308.67C348.289,308.369 348.636,308.243 348.953,308.366L356.028,311.11C356.762,311.394 357.075,312.34 356.673,313.027C354.998,315.884 354.046,317.178 351.997,320.815C350.736,323.053 348.277,328.187 346.537,331.277C344.834,334.3 341.647,332.811 342.096,331.368C344.104,324.9 343.758,321.29 343.22,318.427C343.123,317.91 343.212,317.382 343.46,316.941Z" style="fill:rgb(10,57,93);fill-rule:nonzero;"/>
            </g>
            <g transform="matrix(5.55556,0,0,5.55556,13563.5,-2834.75)">
                <path d="M253.304,351.301L263.327,351.301C263.692,351.301 264.021,351.553 264.119,351.91L266.299,359.841C266.524,360.663 265.919,361.442 265.076,361.428C261.573,361.367 259.862,361.162 255.454,361.162C252.742,361.162 243.909,361.443 240.164,361.443C236.5,361.443 235.734,357.74 237.25,357.405C244.046,355.901 249.787,353.827 251.884,351.848C252.262,351.492 252.77,351.301 253.304,351.301Z" style="fill:rgb(10,57,93);fill-rule:nonzero;"/>
            </g>
            <g transform="matrix(5.55556,0,0,5.55556,13563.5,-2834.75)">
                <path d="M248.078,334.4L251.613,344.414L260.127,344.414L256.311,333.602L248.078,334.4Z" style="fill:rgb(182,104,87);fill-rule:nonzero;"/>
            </g>
            <g transform="matrix(5.55556,0,0,5.55556,13563.5,-2834.75)">
                <path d="M335.707,300.042L329.639,305.926L337.668,312.19L343.737,306.305L335.707,300.042Z" style="fill:rgb(182,104,87);fill-rule:nonzero;"/>
            </g>
            <g transform="matrix(5.55556,0,0,5.55556,13563.5,-2834.75)">
                <path d="M212.188,135.321C212.188,135.321 208.792,137.907 231.696,182.614C244.656,178.43 258.049,174.107 264.355,172.072C259.517,158.957 256.855,150.766 254.403,121.437C254.403,121.437 247.08,122.157 239.945,124.086C230.287,126.698 225.673,128.636 225.116,128.874C218.934,131.511 212.188,135.321 212.188,135.321Z" style="fill:rgb(31,95,173);fill-rule:nonzero;"/>
            </g>
            <g transform="matrix(5.55556,0,0,5.55556,13563.5,-2834.75)">
                <path d="M233.086,107.862C233.69,112.936 235.579,121.98 239.945,124.086C239.945,124.086 240.203,129.347 231.337,132.21C221.588,135.356 225.116,128.874 225.116,128.874C230.026,125.886 228.615,121.982 226.491,118.574L233.086,107.862Z" style="fill:rgb(201,120,101);fill-rule:nonzero;"/>
            </g>
            <g transform="matrix(5.55556,0,0,5.55556,13563.5,-2834.75)">
                <path d="M216.701,132.895C219.112,131.644 222.181,130.127 225.116,128.871C229.807,126.866 234.371,125.593 239.948,124.083C242.802,123.307 245.682,122.723 248.112,122.32C248.339,122.997 247.646,124.757 245.957,127.184C240.61,131.632 229.202,137.398 220.789,137.186C217.157,135.82 216.242,134.372 216.701,132.895Z" style="fill:rgb(201,120,101);fill-rule:nonzero;"/>
            </g>
            <g transform="matrix(5.55556,0,0,5.55556,13563.5,-2834.75)">
                <path d="M245.957,127.184C243.642,130.511 239.444,135.099 233.077,139.942C227.276,139.077 223.358,138.152 220.789,137.186C229.202,137.398 240.61,131.632 245.957,127.184Z" style="fill:rgb(10,57,93);fill-rule:nonzero;"/>
            </g>
            <g transform="matrix(5.55556,0,0,5.55556,13563.5,-2834.75)">
                <path d="M230.398,112.232L226.494,118.568C227,119.374 227.46,120.208 227.801,121.053C229.739,120.103 232.214,117.293 231.743,115.095C231.508,113.999 230.731,112.67 230.398,112.232Z" style="fill:rgb(182,104,87);fill-rule:nonzero;"/>
            </g>
            <g transform="matrix(5.55556,0,0,5.55556,13563.5,-2834.75)">
                <path d="M235.069,98.474C235.574,106.845 235.966,110.377 232.29,115.154C226.761,122.34 216.369,121.129 213.374,113.077C210.678,105.829 210.306,93.358 218.035,89.059C225.65,84.822 234.565,90.103 235.069,98.474Z" style="fill:rgb(201,120,101);fill-rule:nonzero;"/>
            </g>
            <g transform="matrix(5.55556,0,0,5.55556,13563.5,-2834.75)">
                <path d="M251.973,80.045C251.973,88.575 245.058,95.489 236.529,95.489C227.999,95.489 221.084,88.575 221.084,80.045C221.084,71.515 227.999,64.601 236.529,64.601C245.058,64.601 251.973,71.515 251.973,80.045Z" style="fill:rgb(18,39,75);fill-rule:nonzero;"/>
            </g>
            <g transform="matrix(5.55556,0,0,5.55556,13563.5,-2834.75)">
                <path d="M232.687,86.76C235.871,88.857 237.453,92.074 236.221,93.946C234.988,95.817 231.408,95.633 228.224,93.535C225.039,91.438 223.457,88.22 224.69,86.349C225.922,84.478 229.503,84.662 232.687,86.76Z" style="fill:rgb(148,188,228);fill-rule:nonzero;"/>
            </g>
            <g transform="matrix(5.55556,0,0,5.55556,13563.5,-2834.75)">
                <path d="M231.021,104.184C231.854,102.268 228.956,96.566 229.583,94.433C227.917,92.891 211.094,98.372 212.449,94.364C213.746,90.53 217.849,85.433 227.208,87.564C237.246,89.85 238.083,98.497 236.958,101.256C235.833,104.016 234.25,106.889 234.25,106.889L231.021,104.184Z" style="fill:rgb(18,39,75);fill-rule:nonzero;"/>
            </g>
            <g transform="matrix(5.55556,0,0,5.55556,13563.5,-2834.75)">
                <path d="M237.275,105.813C237.315,107.552 236.549,109.146 235.545,110.163C234.036,111.693 232.218,110.6 231.748,108.619C231.323,106.836 231.598,103.891 233.541,103.104C235.455,102.328 237.229,103.826 237.275,105.813Z" style="fill:rgb(201,120,101);fill-rule:nonzero;"/>
            </g>
            <g transform="matrix(5.55556,0,0,5.55556,13563.5,-2834.75)">
                <path d="M231.696,182.614C231.696,182.614 216.558,256.455 225,280.807C233.781,306.137 248.074,341.501 248.074,341.501L261.42,340.735C261.42,340.735 250.393,296.053 247.709,275.876C244.01,248.058 259.887,173.514 259.887,173.514L231.696,182.614Z" style="fill:rgb(148,188,228);fill-rule:nonzero;"/>
            </g>
            <g transform="matrix(5.55556,0,0,5.55556,13563.5,-2834.75)">
                <path d="M262.475,341.057L247.02,341.943L244.542,335.87L261.583,334.099L262.475,341.057Z" style="fill:rgb(31,95,173);fill-rule:nonzero;"/>
            </g>
            <g transform="matrix(5.55556,0,0,5.55556,13563.5,-2834.75)">
                <path d="M247.71,188.301C245.39,196.881 247.33,209.741 251.71,218.761C252.78,211.751 253.92,204.98 255,198.911C252.75,194.601 250.27,190.701 247.71,188.301Z" style="fill:rgb(113,170,220);fill-rule:nonzero;"/>
            </g>
            <g transform="matrix(5.55556,0,0,5.55556,13563.5,-2834.75)">
                <path d="M240.321,179.83C240.321,179.83 262.803,233.515 277.686,263.057C289.706,286.918 334.223,311.887 334.223,311.887L342.195,303.409C342.195,303.409 308.918,273.857 300.62,257.677C274.061,205.887 279.521,183.27 264.355,172.072L240.321,179.83Z" style="fill:rgb(148,188,228);fill-rule:nonzero;"/>
            </g>
            <g transform="matrix(5.55556,0,0,5.55556,13563.5,-2834.75)">
                <path d="M343.706,302.198L332.712,313.888L325.75,310.224L338.417,297.307L343.706,302.198Z" style="fill:rgb(31,95,173);fill-rule:nonzero;"/>
            </g>
            <g transform="matrix(5.55556,0,0,5.55556,13563.5,-2834.75)">
                <path d="M264.226,169.997L266.642,172.446C266.829,172.635 266.636,172.953 266.258,173.075L232.008,184.131C231.713,184.226 231.423,184.16 231.345,183.981L230.106,181.153C230.021,180.957 230.221,180.703 230.543,180.599L263.614,169.924C263.857,169.845 264.104,169.875 264.226,169.997Z" style="fill:rgb(10,57,93);fill-rule:nonzero;"/>
            </g>
            <g transform="matrix(5.55556,0,0,5.55556,13563.5,-2834.75)">
                <path d="M260.978,175.129L261.863,174.843C262.04,174.786 262.145,174.652 262.096,174.545L260.454,170.881C260.407,170.774 260.224,170.732 260.047,170.789L259.161,171.075C258.984,171.132 258.88,171.266 258.928,171.374L260.569,175.038C260.617,175.145 260.801,175.186 260.978,175.129Z" style="fill:rgb(148,188,228);fill-rule:nonzero;"/>
            </g>
            <g transform="matrix(5.55556,0,0,5.55556,13563.5,-2834.75)">
                <path d="M234.599,183.644L235.485,183.358C235.662,183.301 235.767,183.167 235.718,183.059L234.077,179.395C234.029,179.288 233.846,179.247 233.669,179.304L232.783,179.59C232.607,179.647 232.502,179.781 232.55,179.888L234.191,183.553C234.239,183.659 234.423,183.7 234.599,183.644Z" style="fill:rgb(148,188,228);fill-rule:nonzero;"/>
            </g>
            <g transform="matrix(5.55556,0,0,5.55556,13563.5,-2834.75)">
                <path d="M247.789,179.386L248.674,179.1C248.851,179.044 248.956,178.909 248.908,178.802L247.266,175.138C247.218,175.031 247.035,174.99 246.858,175.047L245.973,175.332C245.796,175.389 245.691,175.524 245.739,175.631L247.38,179.295C247.428,179.402 247.612,179.443 247.789,179.386Z" style="fill:rgb(148,188,228);fill-rule:nonzero;"/>
            </g>
            <g transform="matrix(5.55556,0,0,5.55556,13563.5,-2834.75)">
                <path d="M222.75,102.335C222.833,103.012 222.542,103.604 222.099,103.658C221.657,103.712 221.231,103.207 221.149,102.531C221.066,101.854 221.358,101.262 221.8,101.208C222.242,101.154 222.667,101.658 222.75,102.335Z" style="fill:rgb(18,39,75);fill-rule:nonzero;"/>
            </g>
            <g transform="matrix(5.55556,0,0,5.55556,13563.5,-2834.75)">
                <path d="M215.104,103.269C215.186,103.945 214.895,104.537 214.452,104.592C214.01,104.645 213.584,104.141 213.502,103.464C213.419,102.788 213.711,102.196 214.153,102.141C214.595,102.088 215.021,102.592 215.104,103.269Z" style="fill:rgb(18,39,75);fill-rule:nonzero;"/>
            </g>
            <g transform="matrix(5.55556,0,0,5.55556,13563.5,-2834.75)">
                <path d="M214.353,102.155L212.671,101.885C212.671,101.885 213.66,103.053 214.353,102.155Z" style="fill:rgb(18,39,75);fill-rule:nonzero;"/>
            </g>
            <g transform="matrix(5.55556,0,0,5.55556,13563.5,-2834.75)">
                <path d="M217.266,104.184C217.266,104.184 216.474,107.237 215.382,108.797C216.376,109.521 217.849,108.955 217.849,108.955L217.266,104.184Z" style="fill:rgb(183,83,67);fill-rule:nonzero;"/>
            </g>
            <g transform="matrix(5.55556,0,0,5.55556,13563.5,-2834.75)">
                <path d="M220.53,111.33C220.431,111.33 220.345,111.255 220.332,111.154C220.319,111.044 220.397,110.945 220.506,110.931C223.467,110.57 224.609,108.325 224.621,108.303C224.67,108.203 224.79,108.161 224.889,108.212C224.988,108.261 225.029,108.38 224.98,108.479C224.931,108.579 223.738,110.94 220.555,111.328C220.547,111.329 220.539,111.33 220.53,111.33Z" style="fill:rgb(18,39,75);fill-rule:nonzero;"/>
            </g>
            <g transform="matrix(5.55556,0,0,5.55556,13563.5,-2834.75)">
                <path d="M223.698,99.934C223.605,99.934 223.512,99.902 223.436,99.837C222.098,98.682 220.705,99.051 220.647,99.068C220.435,99.127 220.214,99.004 220.153,98.792C220.093,98.58 220.215,98.36 220.426,98.299C220.503,98.277 222.283,97.785 223.959,99.231C224.126,99.375 224.145,99.628 224.001,99.796C223.921,99.887 223.81,99.934 223.698,99.934Z" style="fill:rgb(18,39,75);fill-rule:nonzero;"/>
            </g>
            <g transform="matrix(5.55556,0,0,5.55556,13563.5,-2834.75)">
                <path d="M211.152,100.173C211.092,100.173 211.031,100.159 210.973,100.13C210.775,100.031 210.696,99.79 210.795,99.593C211.79,97.614 213.624,97.387 213.702,97.378C213.921,97.359 214.119,97.512 214.144,97.732C214.168,97.95 214.011,98.148 213.793,98.174C213.732,98.181 212.304,98.373 211.51,99.952C211.44,100.092 211.299,100.173 211.152,100.173Z" style="fill:rgb(18,39,75);fill-rule:nonzero;"/>
            </g>
            <g transform="matrix(5.55556,0,0,5.55556,13563.5,-2834.75)">
                <path d="M260.975,129.247L261.351,129.725L261.82,130.294C262.139,130.677 262.475,131.069 262.818,131.451C263.513,132.216 264.232,132.974 264.997,133.696C266.498,135.164 268.091,136.562 269.769,137.859C271.469,139.126 273.213,140.345 275.035,141.449C275.95,141.992 276.882,142.514 277.817,143.03L279.246,143.757L279.944,144.11C280.112,144.185 280.283,144.271 280.442,144.327C281.1,144.591 281.617,144.662 282.053,144.656C282.486,144.64 282.92,144.507 283.452,144.138C284.529,143.417 285.664,141.81 286.541,140.013C287.449,138.205 288.173,136.167 288.767,134.072C289.397,131.995 289.889,129.774 290.301,127.672L294.572,127.942C294.617,132.831 294.116,137.544 292.492,142.46C292.078,143.689 291.537,144.91 290.839,146.136C290.136,147.352 289.252,148.596 287.995,149.692C286.76,150.786 285.061,151.715 283.212,152.037C281.371,152.377 279.543,152.153 278.027,151.677C277.636,151.565 277.276,151.428 276.911,151.291L276.04,150.93L274.337,150.215C273.214,149.71 272.101,149.174 271.009,148.599C268.826,147.444 266.716,146.145 264.7,144.704C262.698,143.243 260.76,141.685 258.95,139.963C258.045,139.103 257.181,138.193 256.334,137.253C255.911,136.778 255.494,136.301 255.088,135.793L254.483,135.012C254.271,134.731 254.105,134.506 253.831,134.107L260.975,129.247Z" style="fill:rgb(201,120,101);fill-rule:nonzero;"/>
            </g>
            <g transform="matrix(5.55556,0,0,5.55556,13563.5,-2834.75)">
                <path d="M268.086,134.517L261.834,145.028L258.776,142.142L264.556,131.622L268.086,134.517Z" style="fill:rgb(10,57,93);fill-rule:nonzero;"/>
            </g>
            <g transform="matrix(5.55556,0,0,5.55556,13563.5,-2834.75)">
                <path d="M254.403,121.437C257.996,121.376 266.736,131.699 266.736,131.699L259.143,144.929C259.143,144.929 249.463,136.396 249.473,131.723C249.483,126.856 250.303,121.507 254.403,121.437Z" style="fill:rgb(31,95,173);fill-rule:nonzero;"/>
            </g>
            <g transform="matrix(5.55556,0,0,5.55556,13563.5,-2834.75)">
                <path d="M343.631,318.446C342.566,319.047 341.218,319.985 341.167,320.552C341.161,320.623 341.171,320.718 341.307,320.821C341.557,321.013 341.791,321.069 342.027,320.992C342.577,320.81 343.164,319.872 343.631,318.446ZM341.821,321.427C341.567,321.427 341.313,321.331 341.063,321.139C340.792,320.932 340.753,320.686 340.769,320.516C340.864,319.441 343.566,318.017 343.874,317.859C343.945,317.824 344.031,317.832 344.093,317.883C344.154,317.933 344.181,318.015 344.158,318.093C343.847,319.173 343.172,321.036 342.152,321.372C342.042,321.409 341.932,321.427 341.821,321.427Z" style="fill:rgb(71,115,184);fill-rule:nonzero;"/>
            </g>
            <g transform="matrix(5.55556,0,0,5.55556,13563.5,-2834.75)">
                <path d="M341.244,317.345C341.088,317.345 340.944,317.365 340.819,317.408C340.622,317.476 340.488,317.601 340.41,317.789C340.313,318.027 340.384,318.131 340.457,318.193C340.905,318.58 342.568,318.416 343.522,318.031C342.925,317.738 341.955,317.345 341.244,317.345ZM341.446,318.811C340.921,318.811 340.457,318.721 340.196,318.497C340.056,318.376 339.848,318.102 340.041,317.636C340.163,317.341 340.381,317.136 340.688,317.029C341.849,316.633 343.975,317.811 344.063,317.862C344.126,317.897 344.165,317.963 344.166,318.034C344.167,318.105 344.13,318.172 344.069,318.209C343.557,318.516 342.4,318.811 341.446,318.811Z" style="fill:rgb(71,115,184);fill-rule:nonzero;"/>
            </g>
            <g transform="matrix(5.55556,0,0,5.55556,13563.5,-2834.75)">
                <path d="M247.261,351.225C247.089,351.225 246.954,351.252 246.867,351.31C246.826,351.339 246.784,351.384 246.791,351.501C246.807,351.783 246.922,352.002 247.142,352.168C247.929,352.762 249.812,352.537 250.906,352.339C249.674,351.803 248.064,351.225 247.261,351.225ZM248.858,352.955C248.083,352.955 247.361,352.836 246.9,352.487C246.585,352.249 246.415,351.925 246.392,351.524C246.375,351.225 246.519,351.063 246.643,350.979C247.554,350.362 250.966,351.915 251.641,352.231C251.718,352.267 251.764,352.348 251.755,352.434C251.745,352.519 251.683,352.589 251.599,352.607C250.872,352.768 249.824,352.955 248.858,352.955Z" style="fill:rgb(71,115,184);fill-rule:nonzero;"/>
            </g>
            <g transform="matrix(5.55556,0,0,5.55556,13563.5,-2834.75)">
                <path d="M249.063,349.22C249.019,349.22 248.974,349.222 248.928,349.227C248.718,349.253 248.605,349.315 248.592,349.413C248.518,349.962 250.094,351.407 251.246,352.04C250.983,351.166 250.263,349.22 249.063,349.22ZM251.556,352.612C251.53,352.612 251.504,352.607 251.479,352.597C250.348,352.135 248.067,350.304 248.195,349.359C248.223,349.152 248.365,348.892 248.88,348.831C250.869,348.571 251.716,352.214 251.751,352.367C251.768,352.44 251.742,352.516 251.686,352.564C251.648,352.595 251.603,352.612 251.556,352.612Z" style="fill:rgb(71,115,184);fill-rule:nonzero;"/>
            </g>
            <g transform="matrix(5.55556,0,0,5.55556,13563.5,-2834.75)">
                <path d="M222,101.221L220.318,100.951C220.318,100.951 221.306,102.119 222,101.221Z" style="fill:rgb(18,39,75);fill-rule:nonzero;"/>
            </g>
            <g transform="matrix(5.55556,0,0,5.55556,13563.5,-2834.75)">
                <path d="M159.444,31.336C157.667,33.558 147.917,36.168 140.167,35.446C137.5,52.963 146.833,73.141 146.833,73.141C146.833,73.141 167.083,70.724 167.583,62.391C168.083,54.058 159.444,31.336 159.444,31.336Z" style="fill:rgb(113,170,220);fill-rule:nonzero;"/>
            </g>
            <g transform="matrix(5.55556,0,0,5.55556,13563.5,-2834.75)">
                <path d="M312.729,18.011C314.541,20.557 323.742,23.09 330.84,21.766C334.652,42.509 327.594,67.143 327.594,67.143C327.594,67.143 308.716,65.468 307.611,55.553C306.508,45.64 312.729,18.011 312.729,18.011Z" style="fill:rgb(113,170,220);fill-rule:nonzero;"/>
            </g>
            <g transform="matrix(5.55556,0,0,5.55556,13563.5,-2834.75)">
                <path d="M180.011,197.628C179.403,197.713 178.841,197.29 178.755,196.682L154.951,28.218C154.865,27.61 155.288,27.048 155.896,26.962C156.503,26.876 157.065,27.299 157.151,27.907L180.956,196.371C181.042,196.979 180.619,197.542 180.011,197.628Z" style="fill:rgb(31,95,173);fill-rule:nonzero;"/>
            </g>
            <g transform="matrix(5.55556,0,0,5.55556,13563.5,-2834.75)">
                <path d="M293.174,185.105C293.781,185.19 294.343,184.767 294.429,184.16L318.233,15.695C318.319,15.088 317.896,14.525 317.289,14.439C316.681,14.354 316.119,14.777 316.033,15.384L292.229,183.849C292.143,184.456 292.565,185.019 293.174,185.105Z" style="fill:rgb(31,95,173);fill-rule:nonzero;"/>
            </g>
            <g transform="matrix(5.55556,0,0,5.55556,13563.5,-2834.75)">
                <path d="M154.055,31.781L158.546,64.854C158.667,65.744 159.549,66.318 160.413,66.071C170.471,63.192 226.38,48.828 312.337,57.97C313.098,58.051 313.796,57.545 313.941,56.794C315.562,48.415 318.354,24.547 319.058,18.44C319.15,17.637 318.58,16.913 317.779,16.811C306.236,15.349 227.466,6.616 155.062,30.173C154.383,30.394 153.959,31.073 154.055,31.781Z" style="fill:rgb(148,188,228);fill-rule:nonzero;"/>
            </g>
            <g transform="matrix(5.55556,0,0,5.55556,13563.5,-2834.75)">
                <path d="M168.477,37.512L173.219,36.551L176.575,45.262L177.424,35.698L182.15,34.74L186.301,43.278L186.364,33.886L191.081,32.93L190.464,49.832L185.568,50.824L180.88,41.212L179.912,51.971L175.016,52.963L168.477,37.512Z" style="fill:white;fill-rule:nonzero;"/>
            </g>
            <g transform="matrix(5.55556,0,0,5.55556,13563.5,-2834.75)">
                <path d="M193.403,32.675L206.895,30.695L207.335,34.182L198.888,35.423L199.216,38.019L207.052,36.869L207.472,40.2L199.637,41.35L200.044,44.57L208.734,43.294L209.201,46.993L195.465,49.01L193.403,32.675Z" style="fill:white;fill-rule:nonzero;"/>
            </g>
            <g transform="matrix(5.55556,0,0,5.55556,13563.5,-2834.75)">
                <path d="M210.325,30.283L215.379,29.738L216.462,42.11L224.353,41.259L224.706,45.301L211.761,46.697L210.325,30.283Z" style="fill:white;fill-rule:nonzero;"/>
            </g>
            <g transform="matrix(5.55556,0,0,5.55556,13563.5,-2834.75)">
                <path d="M237.063,37.62L241.573,38.651C241.339,39.922 240.923,41 240.325,41.885C239.726,42.769 238.963,43.46 238.034,43.954C237.105,44.449 235.906,44.749 234.437,44.854C232.654,44.981 231.184,44.825 230.028,44.385C228.871,43.947 227.849,43.101 226.961,41.85C226.073,40.599 225.577,38.953 225.472,36.909C225.332,34.186 225.945,32.041 227.313,30.474C228.681,28.909 230.685,28.031 233.326,27.843C235.392,27.695 237.037,27.998 238.263,28.752C239.487,29.507 240.433,30.732 241.096,32.428L236.673,33.747C236.49,33.257 236.307,32.902 236.124,32.681C235.82,32.313 235.458,32.038 235.037,31.857C234.616,31.677 234.152,31.605 233.645,31.641C232.496,31.723 231.64,32.251 231.076,33.222C230.649,33.943 230.473,35.04 230.549,36.513C230.643,38.338 230.983,39.569 231.57,40.207C232.157,40.844 232.949,41.127 233.95,41.055C234.918,40.987 235.637,40.66 236.106,40.078C236.574,39.496 236.892,38.677 237.063,37.62Z" style="fill:white;fill-rule:nonzero;"/>
            </g>
            <g transform="matrix(5.55556,0,0,5.55556,13563.5,-2834.75)">
                <path d="M248.495,35.569C248.517,37.235 248.84,38.421 249.466,39.129C250.092,39.837 250.934,40.174 251.995,40.138C253.085,40.103 253.924,39.719 254.513,38.988C255.101,38.255 255.383,36.966 255.359,35.12C255.339,33.567 255.012,32.442 254.38,31.746C253.747,31.05 252.896,30.719 251.829,30.754C250.805,30.787 249.989,31.178 249.378,31.926C248.768,32.674 248.473,33.888 248.495,35.569ZM243.421,35.713C243.386,33.018 244.105,30.897 245.58,29.348C247.054,27.799 249.124,26.98 251.79,26.893C254.523,26.804 256.639,27.472 258.135,28.898C259.634,30.324 260.4,32.365 260.435,35.022C260.459,36.951 260.156,38.542 259.525,39.797C258.896,41.053 257.975,42.044 256.764,42.77C255.551,43.496 254.033,43.889 252.212,43.948C250.36,44.01 248.823,43.763 247.602,43.209C246.381,42.657 245.385,41.751 244.614,40.492C243.843,39.234 243.446,37.64 243.421,35.713Z" style="fill:white;fill-rule:nonzero;"/>
            </g>
            <g transform="matrix(5.55556,0,0,5.55556,13563.5,-2834.75)">
                <path d="M263.511,26.846L270.183,26.9L272.481,36.965L275.31,26.941L281.978,26.994L281.526,43.502L277.372,43.468L277.715,30.88L274.17,43.443L270.41,43.413L267.559,30.799L267.215,43.387L263.061,43.355L263.511,26.846Z" style="fill:white;fill-rule:nonzero;"/>
            </g>
            <g transform="matrix(5.55556,0,0,5.55556,13563.5,-2834.75)">
                <path d="M285.639,27.141L299.211,27.744L298.988,31.265L290.491,30.887L290.325,33.509L298.207,33.86L297.993,37.223L290.112,36.873L289.906,40.123L298.648,40.513L298.412,44.248L284.594,43.633L285.639,27.141Z" style="fill:white;fill-rule:nonzero;"/>
            </g>
        </g>
    </g>
</svg>
