<?xml version="1.0" encoding="UTF-8" standalone="no"?>
<!DOCTYPE svg PUBLIC "-//W3C//DTD SVG 1.1//EN" "http://www.w3.org/Graphics/SVG/1.1/DTD/svg11.dtd">
<svg width="100%" height="100%" viewBox="0 0 2778 2778" version="1.1" xmlns="http://www.w3.org/2000/svg" xmlns:xlink="http://www.w3.org/1999/xlink" xml:space="preserve" xmlns:serif="http://www.serif.com/" style="fill-rule:evenodd;clip-rule:evenodd;stroke-linejoin:round;stroke-miterlimit:2;">
    <g transform="matrix(1,0,0,1,-13417.8,0)">
        <g id="Artboard2" transform="matrix(1,0,0,1,-145.649,3185.78)">
            <rect x="13563.5" y="-3185.78" width="2777.78" height="2777.78" style="fill:none;"/>
            <clipPath id="_clip1">
                <rect x="13563.5" y="-3185.78" width="2777.78" height="2777.78"/>
            </clipPath>
            <g clip-path="url(#_clip1)">
                <g transform="matrix(5.55556,0,0,5.55556,13563.5,-2834.09)">
                    <rect x="0" y="327.837" width="500" height="0.25" style="fill:rgb(229,229,228);fill-rule:nonzero;"/>
                </g>
                <g transform="matrix(5.55556,0,0,5.55556,13563.5,-2834.09)">
                    <rect x="428.222" y="343.933" width="21.679" height="0.25" style="fill:rgb(229,229,228);fill-rule:nonzero;"/>
                </g>
                <g transform="matrix(5.55556,0,0,5.55556,13563.5,-2834.09)">
                    <rect x="310.558" y="338.744" width="34.109" height="0.25" style="fill:rgb(229,229,228);fill-rule:nonzero;"/>
                </g>
                <g transform="matrix(5.55556,0,0,5.55556,13563.5,-2834.09)">
                    <rect x="396.586" y="334.647" width="44.525" height="0.25" style="fill:rgb(229,229,228);fill-rule:nonzero;"/>
                </g>
                <g transform="matrix(5.55556,0,0,5.55556,13563.5,-2834.09)">
                    <rect x="161.877" y="339.688" width="11.137" height="0.25" style="fill:rgb(229,229,228);fill-rule:nonzero;"/>
                </g>
                <g transform="matrix(5.55556,0,0,5.55556,13563.5,-2834.09)">
                    <rect x="114.585" y="339.688" width="38.388" height="0.25" style="fill:rgb(229,229,228);fill-rule:nonzero;"/>
                </g>
                <g transform="matrix(5.55556,0,0,5.55556,13563.5,-2834.09)">
                    <rect x="66.306" y="335.466" width="27.696" height="0.25" style="fill:rgb(229,229,228);fill-rule:nonzero;"/>
                </g>
                <g transform="matrix(5.55556,0,0,5.55556,13563.5,-2834.09)">
                    <path d="M43.915,0.642C40.905,0.642 38.457,3.09 38.457,6.099L38.457,277.53C38.457,280.54 40.905,282.988 43.915,282.988L237.014,282.988C240.023,282.988 242.471,280.54 242.471,277.53L242.471,6.099C242.471,3.09 240.023,0.642 237.014,0.642L43.915,0.642ZM237.014,283.238L43.915,283.238C40.767,283.238 38.206,280.678 38.206,277.53L38.206,6.099C38.206,2.952 40.767,0.391 43.915,0.391L237.014,0.391C240.16,0.391 242.721,2.952 242.721,6.099L242.721,277.53C242.721,280.678 240.16,283.238 237.014,283.238Z" style="fill:rgb(229,229,228);fill-rule:nonzero;"/>
                </g>
                <g transform="matrix(5.55556,0,0,5.55556,13563.5,-2834.09)">
                    <path d="M260.212,0.642C257.203,0.642 254.755,3.09 254.755,6.099L254.755,277.53C254.755,280.54 257.203,282.988 260.212,282.988L453.31,282.988C456.32,282.988 458.769,280.54 458.769,277.53L458.769,6.099C458.769,3.09 456.32,0.642 453.31,0.642L260.212,0.642ZM453.31,283.238L260.212,283.238C257.065,283.238 254.505,280.678 254.505,277.53L254.505,6.099C254.505,2.952 257.065,0.391 260.212,0.391L453.31,0.391C456.458,0.391 459.019,2.952 459.019,6.099L459.019,277.53C459.019,280.678 456.458,283.238 453.31,283.238Z" style="fill:rgb(229,229,228);fill-rule:nonzero;"/>
                </g>
                <g transform="matrix(5.55556,0,0,5.55556,13563.5,-2834.09)">
                    <path d="M114.978,120.065C126.527,120.065 135.889,110.703 135.889,99.155C135.889,87.607 126.527,78.245 114.978,78.245L112.413,78.245L112.413,120.065L114.978,120.065Z" style="fill:rgb(215,217,217);fill-rule:nonzero;"/>
                </g>
                <g transform="matrix(5.55556,0,0,5.55556,13563.5,-2834.09)">
                    <path d="M91.502,99.155C91.502,110.703 100.865,120.065 112.413,120.065C123.962,120.065 133.324,110.703 133.324,99.155C133.324,87.607 123.962,78.245 112.413,78.245C100.865,78.245 91.502,87.607 91.502,99.155Z" style="fill:rgb(240,240,240);fill-rule:nonzero;"/>
                </g>
                <g transform="matrix(5.55556,0,0,5.55556,13563.5,-2834.09)">
                    <path d="M111.455,101.783C96.02,101.783 83.464,89.227 83.464,73.793L83.464,57.068C83.464,55.617 84.641,54.44 86.092,54.44C87.543,54.44 88.72,55.617 88.72,57.068L88.72,73.793C88.72,86.328 98.919,96.527 111.455,96.527C112.906,96.527 114.083,97.704 114.083,99.155C114.083,100.606 112.906,101.783 111.455,101.783Z" style="fill:rgb(215,217,217);fill-rule:nonzero;"/>
                </g>
                <g transform="matrix(5.55556,0,0,5.55556,13563.5,-2834.09)">
                    <path d="M62.832,71.791L109.354,71.791C112.542,71.791 114.865,68.772 114.049,65.69L110.014,50.455C109.449,48.325 107.522,46.841 105.318,46.841L66.867,46.841C64.663,46.841 62.736,48.325 62.172,50.455L58.136,65.69C57.32,68.772 59.644,71.791 62.832,71.791Z" style="fill:rgb(240,240,240);fill-rule:nonzero;"/>
                </g>
                <g transform="matrix(5.55556,0,0,5.55556,13563.5,-2834.09)">
                    <path d="M410.277,120.065C421.826,120.065 431.188,110.703 431.188,99.155C431.188,87.607 421.826,78.245 410.277,78.245L407.712,78.245L407.712,120.065L410.277,120.065Z" style="fill:rgb(215,217,217);fill-rule:nonzero;"/>
                </g>
                <g transform="matrix(5.55556,0,0,5.55556,13563.5,-2834.09)">
                    <path d="M386.802,99.155C386.802,110.703 396.164,120.065 407.712,120.065C419.261,120.065 428.623,110.703 428.623,99.155C428.623,87.607 419.261,78.245 407.712,78.245C396.164,78.245 386.802,87.607 386.802,99.155Z" style="fill:rgb(240,240,240);fill-rule:nonzero;"/>
                </g>
                <g transform="matrix(5.55556,0,0,5.55556,13563.5,-2834.09)">
                    <path d="M406.754,101.783C391.32,101.783 378.763,89.227 378.763,73.793L378.763,57.068C378.763,55.617 379.94,54.44 381.391,54.44C382.843,54.44 384.02,55.617 384.02,57.068L384.02,73.793C384.02,86.328 394.218,96.527 406.754,96.527C408.205,96.527 409.382,97.703 409.382,99.155C409.382,100.606 408.205,101.783 406.754,101.783Z" style="fill:rgb(215,217,217);fill-rule:nonzero;"/>
                </g>
                <g transform="matrix(5.55556,0,0,5.55556,13563.5,-2834.09)">
                    <path d="M358.131,71.791L404.652,71.791C407.84,71.791 410.164,68.772 409.348,65.69L405.313,50.455C404.748,48.325 402.821,46.841 400.617,46.841L362.166,46.841C359.963,46.841 358.035,48.325 357.471,50.455L353.436,65.69C352.619,68.772 354.943,71.791 358.131,71.791Z" style="fill:rgb(240,240,240);fill-rule:nonzero;"/>
                </g>
                <g transform="matrix(5.55556,0,0,5.55556,13563.5,-2834.09)">
                    <rect x="133.981" y="202.362" width="15.207" height="58.93" style="fill:rgb(224,224,223);fill-rule:nonzero;"/>
                </g>
                <g transform="matrix(5.55556,0,0,5.55556,13563.5,-2834.09)">
                    <path d="M92.751,261.292L143.221,261.292L150.843,192.319L100.373,192.319L92.751,261.292Z" style="fill:rgb(234,235,234);fill-rule:nonzero;"/>
                </g>
                <g transform="matrix(5.55556,0,0,5.55556,13563.5,-2834.09)">
                    <path d="M87.284,261.292L139.416,261.292L147.038,192.319L94.906,192.319L87.284,261.292Z" style="fill:rgb(240,240,240);fill-rule:nonzero;"/>
                </g>
                <g transform="matrix(5.55556,0,0,5.55556,13563.5,-2834.09)">
                    <path d="M135.649,255.856L142.07,197.754L98.673,197.754L92.252,255.856L135.649,255.856Z" style="fill:white;fill-rule:nonzero;"/>
                </g>
                <g transform="matrix(5.55556,0,0,5.55556,13563.5,-2834.09)">
                    <path d="M126.687,241.773L126.949,239.405C128.559,224.829 119.458,211.837 107.636,211.837L107.374,214.205C105.763,228.782 114.865,241.773 126.687,241.773Z" style="fill:rgb(240,240,240);fill-rule:nonzero;"/>
                </g>
                <g transform="matrix(5.55556,0,0,5.55556,13563.5,-2834.09)">
                    <rect x="59.084" y="261.292" width="44.839" height="66.545" style="fill:rgb(224,224,223);fill-rule:nonzero;"/>
                </g>
                <g transform="matrix(5.55556,0,0,5.55556,13563.5,-2834.09)">
                    <path d="M63.594,327.837L59.084,327.837L59.084,315.008L68.323,315.008L63.594,327.837Z" style="fill:rgb(234,235,234);fill-rule:nonzero;"/>
                </g>
                <g transform="matrix(5.55556,0,0,5.55556,13563.5,-2834.09)">
                    <rect x="184.754" y="261.292" width="44.839" height="66.545" style="fill:rgb(224,224,223);fill-rule:nonzero;"/>
                </g>
                <g transform="matrix(5.55556,0,0,5.55556,13563.5,-2834.09)">
                    <rect x="59.084" y="261.292" width="129.606" height="58.673" style="fill:rgb(234,235,234);fill-rule:nonzero;"/>
                </g>
                <g transform="matrix(5.55556,0,0,5.55556,13563.5,-2834.09)">
                    <path d="M184.18,327.837L188.69,327.837L188.69,315.008L179.451,315.008L184.18,327.837Z" style="fill:rgb(234,235,234);fill-rule:nonzero;"/>
                </g>
                <g transform="matrix(5.55556,0,0,5.55556,13563.5,-2834.09)">
                    <rect x="62.582" y="264.962" width="122.609" height="23.675" style="fill:rgb(224,224,223);fill-rule:nonzero;"/>
                </g>
                <g transform="matrix(5.55556,0,0,5.55556,13563.5,-2834.09)">
                    <path d="M115.71,280.396L132.063,280.396C139.166,280.396 145.957,277.475 150.843,272.319L96.93,272.319C101.816,277.475 108.607,280.396 115.71,280.396Z" style="fill:rgb(234,235,234);fill-rule:nonzero;"/>
                </g>
                <g transform="matrix(5.55556,0,0,5.55556,13563.5,-2834.09)">
                    <rect x="62.582" y="292.463" width="122.609" height="23.675" style="fill:rgb(224,224,223);fill-rule:nonzero;"/>
                </g>
                <g transform="matrix(5.55556,0,0,5.55556,13563.5,-2834.09)">
                    <path d="M115.71,307.897L132.063,307.897C139.166,307.897 145.957,304.977 150.843,299.82L96.93,299.82C101.816,304.977 108.607,307.897 115.71,307.897Z" style="fill:rgb(234,235,234);fill-rule:nonzero;"/>
                </g>
                <g transform="matrix(5.55556,0,0,5.55556,13563.5,-2834.09)">
                    <path d="M180.48,258.579L181.638,258.579C181.626,256.191 181.643,250.138 181.759,236.266C181.968,211.122 182.367,209.589 182.367,209.589L179.609,221.196C177.861,234.05 180.115,246.966 180.48,258.579Z" style="fill:rgb(224,224,223);fill-rule:nonzero;"/>
                </g>
                <g transform="matrix(5.55556,0,0,5.55556,13563.5,-2834.09)">
                    <path d="M178.19,219.467C174.22,214.735 165.739,213.358 157.055,212.181C153.646,211.718 166.014,219.509 172.059,225.042C176.756,229.341 179.758,230.529 181.048,234.813C181.719,229.471 181.61,223.544 178.19,219.467Z" style="fill:rgb(224,224,223);fill-rule:nonzero;"/>
                </g>
                <g transform="matrix(5.55556,0,0,5.55556,13563.5,-2834.09)">
                    <path d="M183.456,227.923C187.425,223.192 195.907,221.815 204.591,220.637C208,220.175 195.632,227.966 189.586,233.499C184.89,237.797 181.887,238.985 180.598,243.269C179.926,237.927 180.035,232 183.456,227.923Z" style="fill:rgb(224,224,223);fill-rule:nonzero;"/>
                </g>
                <g transform="matrix(5.55556,0,0,5.55556,13563.5,-2834.09)">
                    <path d="M181.756,208.477C184.732,202.822 192.222,197.498 200.626,195.478C203.926,194.685 192.983,205.921 188.824,213.165C185.593,218.793 181.308,225.404 180.642,230.153C179.637,220.744 178.78,214.132 181.756,208.477Z" style="fill:rgb(224,224,223);fill-rule:nonzero;"/>
                </g>
                <g transform="matrix(5.55556,0,0,5.55556,13563.5,-2834.09)">
                    <path d="M181.405,261.292C177.859,261.292 174.929,259.515 174.725,257.241L174.134,253.355L188.676,253.355L188.085,257.241C187.881,259.515 184.951,261.292 181.405,261.292Z" style="fill:rgb(234,235,234);fill-rule:nonzero;"/>
                </g>
                <g transform="matrix(5.55556,0,0,5.55556,13563.5,-2834.09)">
                    <path d="M189.617,254.85L173.193,254.85L172.722,250.522L190.087,250.522L189.617,254.85Z" style="fill:rgb(234,235,234);fill-rule:nonzero;"/>
                </g>
                <g transform="matrix(5.55556,0,0,5.55556,13563.5,-2834.09)">
                    <rect x="169.54" y="26.03" width="160.206" height="146.131" style="fill:rgb(224,224,223);fill-rule:nonzero;"/>
                </g>
                <g transform="matrix(5.55556,0,0,5.55556,13563.5,-2834.09)">
                    <rect x="165.935" y="26.03" width="162.244" height="146.131" style="fill:rgb(240,240,240);fill-rule:nonzero;"/>
                </g>
                <g transform="matrix(5.55556,0,0,5.55556,13563.5,-2834.09)">
                    <rect x="172.406" y="32.577" width="149.302" height="133.038" style="fill:rgb(249,249,249);fill-rule:nonzero;"/>
                </g>
                <g transform="matrix(5.55556,0,0,5.55556,13563.5,-2834.09)">
                    <path d="M303.388,165.615L244.626,32.577L224.667,32.577L283.429,165.615L303.388,165.615Z" style="fill:white;fill-rule:nonzero;"/>
                </g>
                <g transform="matrix(5.55556,0,0,5.55556,13563.5,-2834.09)">
                    <path d="M277.771,165.615L219.009,32.577L205.266,32.577L264.027,165.615L277.771,165.615Z" style="fill:white;fill-rule:nonzero;"/>
                </g>
                <g transform="matrix(5.55556,0,0,5.55556,13563.5,-2834.09)">
                    <rect x="220.123" y="32.577" width="7.721" height="133.038" style="fill:rgb(224,224,223);fill-rule:nonzero;"/>
                </g>
                <g transform="matrix(5.55556,0,0,5.55556,13563.5,-2834.09)">
                    <rect x="271.442" y="32.577" width="7.721" height="133.038" style="fill:rgb(224,224,223);fill-rule:nonzero;"/>
                </g>
                <g transform="matrix(5.55556,0,0,5.55556,13563.5,-2834.09)">
                    <rect x="216.692" y="27.709" width="9.76" height="142.06" style="fill:rgb(240,240,240);fill-rule:nonzero;"/>
                </g>
                <g transform="matrix(5.55556,0,0,5.55556,13563.5,-2834.09)">
                    <rect x="268.012" y="27.709" width="9.759" height="142.06" style="fill:rgb(240,240,240);fill-rule:nonzero;"/>
                </g>
                <g transform="matrix(5.55556,0,0,5.55556,13563.5,-2834.09)">
                    <rect x="172.406" y="32.577" width="0.687" height="133.038" style="fill:rgb(224,224,223);fill-rule:nonzero;"/>
                </g>
                <g transform="matrix(5.55556,0,0,5.55556,13563.5,-2834.09)">
                    <path d="M163.217,17.611L336.783,17.611C337.242,17.611 337.617,17.987 337.617,18.446C337.617,18.905 337.242,19.281 336.783,19.281L163.217,19.281C162.758,19.281 162.383,18.905 162.383,18.446C162.383,17.987 162.758,17.611 163.217,17.611Z" style="fill:rgb(224,224,223);fill-rule:nonzero;"/>
                </g>
                <g transform="matrix(5.55556,0,0,5.55556,13563.5,-2834.09)">
                    <path d="M329.746,23.12C330.366,23.12 330.873,22.613 330.873,21.993L330.873,19.573C330.873,18.953 330.366,18.446 329.746,18.446C329.126,18.446 328.619,18.953 328.619,19.573L328.619,21.993C328.619,22.613 329.126,23.12 329.746,23.12Z" style="fill:rgb(224,224,223);fill-rule:nonzero;"/>
                </g>
                <g transform="matrix(5.55556,0,0,5.55556,13563.5,-2834.09)">
                    <path d="M175.804,23.12C176.424,23.12 176.931,22.613 176.931,21.993L176.931,19.573C176.931,18.953 176.424,18.446 175.804,18.446C175.185,18.446 174.678,18.953 174.678,19.573L174.678,21.993C174.678,22.613 175.185,23.12 175.804,23.12Z" style="fill:rgb(224,224,223);fill-rule:nonzero;"/>
                </g>
                <g transform="matrix(5.55556,0,0,5.55556,13563.5,-2834.09)">
                    <path d="M165.935,70.394L163.484,70.394L163.484,19.281L174.716,19.281C174.691,19.374 174.678,19.472 174.678,19.573L174.678,21.993C174.678,22.613 175.185,23.12 175.804,23.12C176.424,23.12 176.931,22.613 176.931,21.993L176.931,19.573C176.931,19.472 176.918,19.374 176.893,19.281L242.471,19.281L242.471,26.03L165.935,26.03L165.935,70.394ZM325.61,26.03L254.755,26.03L254.755,19.281L325.61,19.281L325.61,26.03ZM254.505,26.03L242.721,26.03L242.721,19.281L254.505,19.281L254.505,26.03Z" style="fill:rgb(230,231,229);fill-rule:nonzero;"/>
                </g>
                <g transform="matrix(5.55556,0,0,5.55556,13563.5,-2834.09)">
                    <rect x="242.471" y="19.281" width="0.25" height="6.749" style="fill:rgb(220,221,221);fill-rule:nonzero;"/>
                </g>
                <g transform="matrix(5.55556,0,0,5.55556,13563.5,-2834.09)">
                    <rect x="254.505" y="19.281" width="0.25" height="6.749" style="fill:rgb(220,221,221);fill-rule:nonzero;"/>
                </g>
                <g transform="matrix(5.55556,0,0,5.55556,13563.5,-2834.09)">
                    <path d="M325.61,113.003C324.638,112.846 323.543,112.682 322.365,112.529C322.348,112.462 322.33,112.396 322.312,112.329C322.25,112.107 322.048,111.961 321.829,111.961C321.789,111.961 321.748,111.966 321.708,111.976L321.708,32.577L277.771,32.577L277.771,27.709L268.012,27.709L268.012,32.577L226.452,32.577L226.452,27.709L216.692,27.709L216.692,32.577L172.406,32.577L172.406,70.394L165.935,70.394L165.935,26.03L325.61,26.03L325.61,113.003Z" style="fill:rgb(225,226,226);fill-rule:nonzero;"/>
                </g>
                <g transform="matrix(5.55556,0,0,5.55556,13563.5,-2834.09)">
                    <path d="M268.012,132.883L264.746,132.883L264.188,122.054L268.012,130.71L268.012,132.883ZM284.973,123.924L279.163,110.77L279.163,32.577L277.771,32.577L321.708,32.577L321.708,111.976C321.704,111.977 321.701,111.978 321.697,111.979C321.496,112.034 321.357,112.205 321.333,112.4C319.502,112.181 317.515,111.994 315.514,111.898C312.312,111.744 309.432,111.619 306.637,111.619C304.434,111.619 302.284,111.696 300.066,111.899C298.125,112.076 296.108,112.333 294.226,112.608C294.181,112.585 294.138,112.563 294.094,112.543C293.708,112.36 293.351,112.268 293.027,112.268C292.807,112.268 292.602,112.311 292.413,112.396C292.203,112.491 292.09,112.713 292.124,112.93C288.57,113.499 285.907,114.044 285.907,114.044C285.907,114.044 284.617,114.499 284.973,123.924ZM268.012,85.522L244.626,32.577L226.452,32.577L268.012,32.577L268.012,85.522ZM241.37,70.394L235.713,70.394L227.844,52.578L227.844,39.769L241.37,70.394ZM216.692,70.394L173.093,70.394L173.093,32.577L172.406,32.577L172.406,70.394L172.406,32.577L216.692,32.577L205.266,32.577L216.692,58.446L216.692,70.394Z" style="fill:rgb(228,228,228);fill-rule:nonzero;"/>
                </g>
                <g transform="matrix(5.55556,0,0,5.55556,13563.5,-2834.09)">
                    <path d="M285.602,132.883L279.163,132.883L279.163,110.77L284.973,123.924C285.063,126.297 285.257,129.237 285.602,132.883ZM268.012,130.71L264.188,122.054L261.902,77.693C261.694,73.662 258.258,70.394 254.227,70.394L241.37,70.394L227.844,39.769L227.844,32.577L226.452,32.577L244.626,32.577L268.012,85.522L268.012,130.71Z" style="fill:rgb(230,231,229);fill-rule:nonzero;"/>
                </g>
                <g transform="matrix(5.55556,0,0,5.55556,13563.5,-2834.09)">
                    <path d="M235.713,70.394L227.844,70.394L227.844,52.578L235.713,70.394ZM216.692,58.446L205.266,32.577L216.692,32.577L216.692,58.446Z" style="fill:rgb(230,231,229);fill-rule:nonzero;"/>
                </g>
                <g transform="matrix(5.55556,0,0,5.55556,13563.5,-2834.09)">
                    <path d="M227.844,70.394L226.452,70.394L226.452,32.577L227.844,32.577L227.844,70.394Z" style="fill:rgb(218,219,219);fill-rule:nonzero;"/>
                </g>
                <g transform="matrix(5.55556,0,0,5.55556,13563.5,-2834.09)">
                    <path d="M279.163,132.883L277.771,132.883L277.771,32.577L279.163,32.577L279.163,132.883Z" style="fill:rgb(218,219,219);fill-rule:nonzero;"/>
                </g>
                <g transform="matrix(5.55556,0,0,5.55556,13563.5,-2834.09)">
                    <path d="M226.452,70.394L216.692,70.394L216.692,27.709L226.452,27.709L226.452,70.394Z" style="fill:rgb(225,226,226);fill-rule:nonzero;"/>
                </g>
                <g transform="matrix(5.55556,0,0,5.55556,13563.5,-2834.09)">
                    <path d="M277.771,132.883L268.012,132.883L268.012,27.709L277.771,27.709L277.771,132.883Z" style="fill:rgb(225,226,226);fill-rule:nonzero;"/>
                </g>
                <g transform="matrix(5.55556,0,0,5.55556,13563.5,-2834.09)">
                    <rect x="172.406" y="32.577" width="0.687" height="37.817" style="fill:rgb(218,219,219);fill-rule:nonzero;"/>
                </g>
                <g transform="matrix(5.55556,0,0,5.55556,13563.5,-2834.09)">
                    <path d="M325.61,19.281L176.893,19.281C176.763,18.802 176.323,18.446 175.804,18.446L325.61,18.446L325.61,19.281ZM174.716,19.281L163.484,19.281L163.484,18.446L175.804,18.446C175.285,18.446 174.846,18.802 174.716,19.281Z" style="fill:rgb(218,219,219);fill-rule:nonzero;"/>
                </g>
                <g transform="matrix(5.55556,0,0,5.55556,13563.5,-2834.09)">
                    <path d="M175.804,23.12C175.185,23.12 174.678,22.613 174.678,21.993L174.678,19.573C174.678,19.472 174.691,19.374 174.716,19.281C174.846,18.802 175.285,18.446 175.804,18.446C176.323,18.446 176.763,18.802 176.893,19.281C176.918,19.374 176.931,19.472 176.931,19.573L176.931,21.993C176.931,22.613 176.424,23.12 175.804,23.12Z" style="fill:rgb(218,219,219);fill-rule:nonzero;"/>
                </g>
                <g transform="matrix(5.55556,0,0,5.55556,13563.5,-2834.09)">
                    <path d="M340.286,229.11L312.335,229.11C309.363,229.11 306.953,226.701 306.953,223.728L306.953,210.791C306.953,207.818 309.363,205.409 312.335,205.409L340.286,205.409C343.258,205.409 345.668,207.818 345.668,210.791L345.668,223.728C345.668,226.701 343.258,229.11 340.286,229.11Z" style="fill:rgb(249,249,249);fill-rule:nonzero;"/>
                </g>
                <g transform="matrix(5.55556,0,0,5.55556,13563.5,-2834.09)">
                    <path d="M343.861,206.106L308.76,206.106C307.762,206.106 306.953,205.297 306.953,204.299L306.953,202.838C306.953,201.84 307.762,201.031 308.76,201.031L343.861,201.031C344.859,201.031 345.668,201.84 345.668,202.838L345.668,204.299C345.668,205.297 344.859,206.106 343.861,206.106Z" style="fill:rgb(224,224,223);fill-rule:nonzero;"/>
                </g>
                <g transform="matrix(5.55556,0,0,5.55556,13563.5,-2834.09)">
                    <path d="M307.523,255.393C307.523,255.393 308.03,272.056 327.45,272.056C346.87,272.056 347.377,255.393 347.377,255.393L307.523,255.393Z" style="fill:rgb(234,235,234);fill-rule:nonzero;"/>
                </g>
                <g transform="matrix(5.55556,0,0,5.55556,13563.5,-2834.09)">
                    <path d="M351.804,255.393C351.804,255.393 352.311,272.056 371.731,272.056C391.152,272.056 391.658,255.393 391.658,255.393L351.804,255.393Z" style="fill:rgb(234,235,234);fill-rule:nonzero;"/>
                </g>
                <g transform="matrix(5.55556,0,0,5.55556,13563.5,-2834.09)">
                    <path d="M382.048,229.11L343.637,229.11C339.552,229.11 336.241,225.799 336.241,221.714L336.241,202.07C336.241,197.985 339.552,194.674 343.637,194.674L382.048,194.674C386.133,194.674 389.444,197.985 389.444,202.07L389.444,221.714C389.444,225.799 386.133,229.11 382.048,229.11Z" style="fill:rgb(234,235,234);fill-rule:nonzero;"/>
                </g>
                <g transform="matrix(5.55556,0,0,5.55556,13563.5,-2834.09)">
                    <path d="M386.961,195.633L338.724,195.633C337.352,195.633 336.241,194.521 336.241,193.15L336.241,191.141C336.241,189.769 337.352,188.658 338.724,188.658L386.961,188.658C388.333,188.658 389.444,189.769 389.444,191.141L389.444,193.15C389.444,194.521 388.333,195.633 386.961,195.633Z" style="fill:rgb(240,240,240);fill-rule:nonzero;"/>
                </g>
                <g transform="matrix(5.55556,0,0,5.55556,13563.5,-2834.09)">
                    <rect x="292.896" y="245.193" width="5.038" height="82.643" style="fill:rgb(224,224,223);fill-rule:nonzero;"/>
                </g>
                <g transform="matrix(5.55556,0,0,5.55556,13563.5,-2834.09)">
                    <rect x="411.128" y="229.11" width="27.29" height="16.083" style="fill:rgb(224,224,223);fill-rule:nonzero;"/>
                </g>
                <g transform="matrix(5.55556,0,0,5.55556,13563.5,-2834.09)">
                    <rect x="275.447" y="229.11" width="135.68" height="16.083" style="fill:rgb(240,240,240);fill-rule:nonzero;"/>
                </g>
                <g transform="matrix(5.55556,0,0,5.55556,13563.5,-2834.09)">
                    <rect x="411.128" y="272.057" width="27.29" height="16.083" style="fill:rgb(224,224,223);fill-rule:nonzero;"/>
                </g>
                <g transform="matrix(5.55556,0,0,5.55556,13563.5,-2834.09)">
                    <rect x="275.447" y="272.057" width="135.681" height="16.083" style="fill:rgb(240,240,240);fill-rule:nonzero;"/>
                </g>
                <g transform="matrix(5.55556,0,0,5.55556,13563.5,-2834.09)">
                    <rect x="428.577" y="245.193" width="5.038" height="82.643" style="fill:rgb(224,224,223);fill-rule:nonzero;"/>
                </g>
                <g transform="matrix(5.55556,0,0,5.55556,13563.5,-2834.09)">
                    <rect x="406.089" y="245.193" width="5.039" height="82.643" style="fill:rgb(240,240,240);fill-rule:nonzero;"/>
                </g>
                <g transform="matrix(5.55556,0,0,5.55556,13563.5,-2834.09)">
                    <rect x="275.447" y="245.193" width="5.038" height="82.643" style="fill:rgb(240,240,240);fill-rule:nonzero;"/>
                </g>
                <g transform="matrix(5.55556,0,0,5.55556,13563.5,-2834.09)">
                    <path d="M443.889,361.676C443.889,367.93 357.082,373 250,373C142.918,373 56.111,367.93 56.111,361.676C56.111,355.423 142.918,350.353 250,350.353C357.082,350.353 443.889,355.423 443.889,361.676Z" style="fill:rgb(240,240,240);fill-rule:nonzero;"/>
                </g>
                <g transform="matrix(5.55556,0,0,5.55556,13563.5,-2834.09)">
                    <path d="M260.414,310.934L132.84,310.934C128.625,310.934 125.032,307.517 124.815,303.302L113.397,81.752C113.18,77.537 116.421,74.12 120.635,74.12L248.209,74.12C252.424,74.12 256.017,77.537 256.234,81.752L267.652,303.302C267.87,307.517 264.629,310.934 260.414,310.934Z" style="fill:rgb(48,115,186);fill-rule:nonzero;"/>
                </g>
                <g transform="matrix(5.55556,0,0,5.55556,13563.5,-2834.09)">
                    <path d="M260.414,310.934L132.84,310.934C130.35,310.934 128.076,309.742 126.589,307.897C125.558,306.619 124.904,305.028 124.815,303.302L115.361,119.859L113.397,81.752C113.39,81.62 113.387,81.489 113.387,81.359C113.383,77.327 116.552,74.12 120.635,74.12L126.041,74.12C125.501,75.176 125.225,76.395 125.292,77.693L136.212,289.583C136.42,293.615 139.856,296.883 143.888,296.883L265.899,296.883C266.386,296.883 266.859,296.835 267.314,296.744L267.652,303.302C267.659,303.434 267.663,303.565 267.663,303.695C267.666,307.728 264.497,310.934 260.414,310.934Z" style="fill:rgb(202,221,242);fill-rule:nonzero;"/>
                </g>
                <g transform="matrix(5.55556,0,0,5.55556,13563.5,-2834.09)">
                    <rect x="221.507" y="66.894" width="14.112" height="1" style="fill:rgb(48,115,186);fill-rule:nonzero;"/>
                </g>
                <g transform="matrix(5.55556,0,0,5.55556,13563.5,-2834.09)">
                    <rect x="211.452" y="66.894" width="5.167" height="1" style="fill:rgb(48,115,186);fill-rule:nonzero;"/>
                </g>
                <g transform="matrix(5.55556,0,0,5.55556,13563.5,-2834.09)">
                    <path d="M265.899,296.883L143.888,296.883C139.856,296.883 136.42,293.615 136.212,289.583L125.292,77.693C125.085,73.662 128.184,70.394 132.215,70.394L254.227,70.394C258.258,70.394 261.694,73.662 261.902,77.693L272.822,289.583C273.03,293.615 269.93,296.883 265.899,296.883Z" style="fill:rgb(48,115,186);fill-rule:nonzero;"/>
                </g>
                <g transform="matrix(5.55556,0,0,5.55556,13563.5,-2834.09)">
                    <path d="M132.215,75.519C131.538,75.519 131.117,75.812 130.882,76.058C130.647,76.306 130.375,76.745 130.41,77.429L141.331,289.32C141.397,290.619 142.592,291.758 143.888,291.758L265.899,291.758C266.577,291.758 266.997,291.465 267.23,291.219C267.466,290.972 267.739,290.533 267.704,289.847L256.784,77.957C256.717,76.658 255.522,75.519 254.227,75.519L132.215,75.519ZM265.899,292.008L143.888,292.008C142.466,292.008 141.154,290.758 141.081,289.333L130.16,77.442C130.121,76.669 130.433,76.169 130.701,75.886C130.968,75.604 131.449,75.269 132.215,75.269L254.227,75.269C255.648,75.269 256.959,76.519 257.034,77.944L267.954,289.834C267.993,290.608 267.681,291.108 267.412,291.391C267.145,291.672 266.666,292.008 265.899,292.008Z" style="fill:white;fill-rule:nonzero;"/>
                </g>
                <g transform="matrix(5.55556,0,0,5.55556,13563.5,-2834.09)">
                    <path d="M197.993,162.988C177.594,162.988 160.205,146.451 159.153,126.052C158.102,105.653 173.787,89.117 194.186,89.117C214.585,89.117 231.974,105.653 233.025,126.052C234.077,146.451 218.392,162.988 197.993,162.988Z" style="fill:rgb(102,152,208);fill-rule:nonzero;"/>
                </g>
                <g transform="matrix(5.55556,0,0,5.55556,13563.5,-2834.09)">
                    <path d="M225.973,126.052C226.239,131.213 225.179,136.059 223.095,140.287C218.534,149.601 208.99,155.936 197.63,155.936C186.269,155.936 176.072,149.601 170.551,140.287C168.031,136.059 166.472,131.213 166.206,126.052C165.355,109.545 178.043,96.169 194.549,96.169C211.056,96.169 225.122,109.545 225.973,126.052Z" style="fill:white;fill-rule:nonzero;"/>
                </g>
                <g transform="matrix(5.55556,0,0,5.55556,13563.5,-2834.09)">
                    <path d="M223.095,140.287C218.534,149.601 208.99,155.936 197.63,155.936C186.269,155.936 176.072,149.601 170.551,140.287C177.815,135.261 186.692,132.327 196.413,132.327C206.133,132.327 215.313,135.261 223.095,140.287Z" style="fill:rgb(48,115,186);fill-rule:nonzero;"/>
                </g>
                <g transform="matrix(5.55556,0,0,5.55556,13563.5,-2834.09)">
                    <path d="M208.874,115.829C209.253,123.18 203.601,129.14 196.249,129.14C188.897,129.14 182.63,123.18 182.252,115.829C181.873,108.477 187.525,102.517 194.877,102.517C202.229,102.517 208.496,108.477 208.874,115.829Z" style="fill:rgb(48,115,186);fill-rule:nonzero;"/>
                </g>
                <g transform="matrix(5.55556,0,0,5.55556,13563.5,-2834.09)">
                    <path d="M248.413,214.46L152.879,214.46C151.173,214.46 149.719,213.077 149.631,211.371L148.908,197.333C148.82,195.627 150.131,194.244 151.837,194.244L247.371,194.244C249.077,194.244 250.531,195.627 250.619,197.333L251.343,211.371C251.43,213.077 250.119,214.46 248.413,214.46Z" style="fill:white;fill-rule:nonzero;"/>
                </g>
                <g transform="matrix(5.55556,0,0,5.55556,13563.5,-2834.09)">
                    <path d="M219.156,186.535L179.257,186.535C177.551,186.535 176.097,185.152 176.009,183.446L175.856,180.465C175.768,178.759 177.079,177.377 178.785,177.377L218.685,177.377C220.391,177.377 221.845,178.759 221.933,180.465L222.086,183.446C222.174,185.152 220.862,186.535 219.156,186.535Z" style="fill:rgb(13,96,174);fill-rule:nonzero;"/>
                </g>
                <g transform="matrix(5.55556,0,0,5.55556,13563.5,-2834.09)">
                    <path d="M233.994,281.745L174.233,281.745C171.328,281.745 168.852,279.391 168.702,276.485L168.347,269.593C168.197,266.688 170.431,264.333 173.336,264.333L233.097,264.333C236.002,264.333 238.478,266.688 238.628,269.593L238.983,276.485C239.133,279.391 236.899,281.745 233.994,281.745Z" style="fill:rgb(13,96,174);fill-rule:nonzero;"/>
                </g>
                <g transform="matrix(5.55556,0,0,5.55556,13563.5,-2834.09)">
                    <path d="M250.157,248.295L154.623,248.295C152.917,248.295 151.463,246.912 151.375,245.206L150.651,231.168C150.563,229.462 151.875,228.079 153.581,228.079L249.115,228.079C250.821,228.079 252.275,229.462 252.363,231.168L253.086,245.206C253.174,246.912 251.863,248.295 250.157,248.295Z" style="fill:white;fill-rule:nonzero;"/>
                </g>
                <g transform="matrix(5.55556,0,0,5.55556,13563.5,-2834.09)">
                    <path d="M165.028,204.352C165.125,206.24 163.673,207.771 161.785,207.771C159.896,207.771 158.286,206.24 158.189,204.352C158.092,202.463 159.544,200.932 161.432,200.932C163.321,200.932 164.93,202.463 165.028,204.352Z" style="fill:rgb(12,43,52);fill-rule:nonzero;"/>
                </g>
                <g transform="matrix(5.55556,0,0,5.55556,13563.5,-2834.09)">
                    <path d="M175.535,204.352C175.632,206.24 174.18,207.771 172.292,207.771C170.403,207.771 168.793,206.24 168.696,204.352C168.599,202.463 170.051,200.932 171.939,200.932C173.828,200.932 175.438,202.463 175.535,204.352Z" style="fill:rgb(12,43,52);fill-rule:nonzero;"/>
                </g>
                <g transform="matrix(5.55556,0,0,5.55556,13563.5,-2834.09)">
                    <path d="M186.042,204.352C186.139,206.24 184.687,207.771 182.799,207.771C180.91,207.771 179.301,206.24 179.203,204.352C179.106,202.463 180.558,200.932 182.447,200.932C184.335,200.932 185.945,202.463 186.042,204.352Z" style="fill:rgb(12,43,52);fill-rule:nonzero;"/>
                </g>
                <g transform="matrix(5.55556,0,0,5.55556,13563.5,-2834.09)">
                    <path d="M196.549,204.352C196.647,206.24 195.195,207.771 193.306,207.771C191.418,207.771 189.808,206.24 189.711,204.352C189.613,202.463 191.065,200.932 192.954,200.932C194.842,200.932 196.452,202.463 196.549,204.352Z" style="fill:rgb(12,43,52);fill-rule:nonzero;"/>
                </g>
                <g transform="matrix(5.55556,0,0,5.55556,13563.5,-2834.09)">
                    <path d="M166.771,238.187C166.869,240.076 165.417,241.607 163.528,241.607C161.64,241.607 160.03,240.076 159.933,238.187C159.835,236.299 161.287,234.768 163.176,234.768C165.064,234.768 166.674,236.299 166.771,238.187Z" style="fill:rgb(12,43,52);fill-rule:nonzero;"/>
                </g>
                <g transform="matrix(5.55556,0,0,5.55556,13563.5,-2834.09)">
                    <path d="M177.279,238.187C177.376,240.076 175.924,241.607 174.035,241.607C172.147,241.607 170.537,240.076 170.44,238.187C170.342,236.299 171.795,234.768 173.683,234.768C175.572,234.768 177.181,236.299 177.279,238.187Z" style="fill:rgb(12,43,52);fill-rule:nonzero;"/>
                </g>
                <g transform="matrix(5.55556,0,0,5.55556,13563.5,-2834.09)">
                    <path d="M187.786,238.187C187.883,240.076 186.431,241.607 184.543,241.607C182.654,241.607 181.044,240.076 180.947,238.187C180.85,236.299 182.302,234.768 184.19,234.768C186.079,234.768 187.689,236.299 187.786,238.187Z" style="fill:rgb(12,43,52);fill-rule:nonzero;"/>
                </g>
                <g transform="matrix(5.55556,0,0,5.55556,13563.5,-2834.09)">
                    <path d="M198.293,238.187C198.39,240.076 196.938,241.607 195.05,241.607C193.161,241.607 191.552,240.076 191.454,238.187C191.357,236.299 192.809,234.768 194.697,234.768C196.586,234.768 198.196,236.299 198.293,238.187Z" style="fill:rgb(12,43,52);fill-rule:nonzero;"/>
                </g>
                <g transform="matrix(5.55556,0,0,5.55556,13563.5,-2834.09)">
                    <path d="M208.8,238.187C208.898,240.076 207.446,241.607 205.557,241.607C203.669,241.607 202.059,240.076 201.961,238.187C201.864,236.299 203.316,234.768 205.205,234.768C207.093,234.768 208.703,236.299 208.8,238.187Z" style="fill:rgb(12,43,52);fill-rule:nonzero;"/>
                </g>
                <g transform="matrix(5.55556,0,0,5.55556,13563.5,-2834.09)">
                    <path d="M219.308,238.187C219.405,240.076 217.953,241.607 216.064,241.607C214.176,241.607 212.566,240.076 212.469,238.187C212.371,236.299 213.823,234.768 215.712,234.768C217.6,234.768 219.21,236.299 219.308,238.187Z" style="fill:rgb(12,43,52);fill-rule:nonzero;"/>
                </g>
                <g transform="matrix(5.55556,0,0,5.55556,13563.5,-2834.09)">
                    <path d="M333.031,122.063C333.282,122.434 333.409,122.638 333.574,122.905L334.021,123.653C334.311,124.148 334.565,124.642 334.821,125.136C335.321,126.125 335.794,127.115 336.217,128.115C337.074,130.115 337.777,132.157 338.385,134.213C339.617,138.323 340.37,142.535 340.756,146.748L340.834,147.538C340.848,147.651 340.858,147.829 340.866,148.015L340.888,148.553C340.901,149.264 340.866,149.967 340.767,150.632C340.579,151.973 340.218,153.211 339.775,154.356C338.876,156.636 337.641,158.573 336.316,160.336C333.604,163.847 330.525,166.657 327.007,169.148L324.252,165.922C326.724,163.063 329.119,159.895 330.893,156.732C331.798,155.155 332.49,153.528 332.92,152.012C333.122,151.254 333.231,150.525 333.248,149.868C333.271,149.536 333.247,149.229 333.215,148.938L333.184,148.725C333.177,148.66 333.169,148.587 333.143,148.452L333.018,147.748C332.364,143.995 331.471,140.307 330.3,136.745C329.725,134.959 329.014,133.233 328.293,131.537C327.936,130.686 327.541,129.861 327.137,129.056L326.517,127.881L326.209,127.324L325.955,126.887L333.031,122.063Z" style="fill:rgb(141,61,63);fill-rule:nonzero;"/>
                </g>
                <g transform="matrix(5.55556,0,0,5.55556,13563.5,-2834.09)">
                    <path d="M323.696,169.212L327.317,176.857L330.189,170.392C330.189,170.392 327.644,164.792 324.2,165.305L323.696,169.212Z" style="fill:rgb(139,61,62);fill-rule:nonzero;"/>
                </g>
                <g transform="matrix(5.55556,0,0,5.55556,13563.5,-2834.09)">
                    <path d="M329.912,177.236L332.787,172.522L330.189,170.392L327.317,176.857L329.912,177.236Z" style="fill:rgb(139,61,62);fill-rule:nonzero;"/>
                </g>
                <g transform="matrix(5.55556,0,0,5.55556,13563.5,-2834.09)">
                    <path d="M315.285,353.072C313.826,353.364 312.73,353.313 312.306,352.926C312.125,352.762 312.059,352.531 312.102,352.221C312.126,352.053 312.203,351.998 312.267,351.969C312.782,351.733 314.248,352.445 315.285,353.072ZM313.634,353.656C314.408,353.656 315.254,353.496 315.846,353.355L315.996,353.197L315.909,352.997C315.623,352.808 313.078,351.166 312.104,351.607C311.95,351.677 311.756,351.83 311.709,352.165C311.647,352.609 311.757,352.964 312.038,353.22C312.395,353.545 312.99,353.656 313.634,353.656Z" style="fill:rgb(48,115,186);fill-rule:nonzero;"/>
                </g>
                <g transform="matrix(5.55556,0,0,5.55556,13563.5,-2834.09)">
                    <path d="M314.375,349.966C314.538,349.966 314.682,350.023 314.814,350.14C315.357,350.621 315.544,351.975 315.59,352.777C314.793,352.142 313.843,350.784 313.958,350.208C313.977,350.114 314.031,350.002 314.285,349.971L314.375,349.966ZM315.8,353.361L315.9,353.334L315.999,353.163C315.999,353.06 315.987,350.649 315.077,349.843C314.835,349.628 314.551,349.538 314.237,349.578C313.74,349.638 313.605,349.95 313.569,350.131C313.38,351.075 314.903,352.882 315.703,353.335L315.8,353.361Z" style="fill:rgb(48,115,186);fill-rule:nonzero;"/>
                </g>
                <g transform="matrix(5.55556,0,0,5.55556,13563.5,-2834.09)">
                    <path d="M299.534,350.209C299.98,349.726 301.958,349.596 303.444,349.62C301.886,350.675 300.6,351.179 299.948,350.976C299.719,350.905 299.565,350.747 299.475,350.495C299.44,350.396 299.449,350.319 299.504,350.244L299.534,350.209ZM304.19,349.575L304.235,349.384L304.054,349.242C303.639,349.222 300.045,349.073 299.235,349.948L299.186,350.007C299.051,350.189 299.021,350.404 299.101,350.627C299.234,351.001 299.479,351.246 299.83,351.355C300.994,351.717 303.043,350.411 304.161,349.601L304.19,349.575Z" style="fill:rgb(48,115,186);fill-rule:nonzero;"/>
                </g>
                <g transform="matrix(5.55556,0,0,5.55556,13563.5,-2834.09)">
                    <path d="M300.599,347.57L300.789,347.425C301.05,347.272 301.324,347.237 301.626,347.318C302.495,347.553 303.313,348.664 303.675,349.22C302.493,349.085 300.681,348.354 300.528,347.798C300.518,347.765 300.496,347.682 300.599,347.57ZM304.19,349.575L304.216,349.54L304.217,349.343C304.17,349.26 303.053,347.292 301.729,346.935C301.325,346.826 300.94,346.876 300.588,347.083C300.112,347.362 300.085,347.684 300.145,347.903C300.401,348.83 302.95,349.646 304.046,349.639L304.19,349.575Z" style="fill:rgb(48,115,186);fill-rule:nonzero;"/>
                </g>
                <g transform="matrix(5.55556,0,0,5.55556,13563.5,-2834.09)">
                    <path d="M315.199,92.769C314.225,97.739 312.036,108.581 315.514,111.898C315.514,111.898 314.155,116.94 304.919,116.94C294.764,116.94 300.066,111.899 300.066,111.899C305.609,110.575 305.466,106.463 304.5,102.601L315.199,92.769Z" style="fill:rgb(139,61,62);fill-rule:nonzero;"/>
                </g>
                <g transform="matrix(5.55556,0,0,5.55556,13563.5,-2834.09)">
                    <path d="M298.275,81.047L298.453,81.005C298.648,80.906 298.728,80.668 298.63,80.472C297.647,78.51 295.829,78.282 295.752,78.273C295.535,78.247 295.338,78.405 295.313,78.623C295.288,78.84 295.444,79.036 295.66,79.061C295.72,79.069 297.136,79.261 297.92,80.828C297.99,80.966 298.13,81.047 298.275,81.047Z" style="fill:rgb(12,43,52);fill-rule:nonzero;"/>
                </g>
                <g transform="matrix(5.55556,0,0,5.55556,13563.5,-2834.09)">
                    <path d="M295.247,85.391C295.247,85.391 293.752,88.137 292.327,89.374C293.11,90.31 294.662,90.119 294.662,90.119L295.247,85.391Z" style="fill:rgb(110,13,15);fill-rule:nonzero;"/>
                </g>
                <g transform="matrix(5.55556,0,0,5.55556,13563.5,-2834.09)">
                    <path d="M295.99,84.313C295.907,84.983 295.484,85.483 295.046,85.429C294.607,85.374 294.319,84.787 294.402,84.116C294.485,83.446 294.908,82.946 295.346,83.001C295.784,83.055 296.072,83.642 295.99,84.313Z" style="fill:rgb(12,43,52);fill-rule:nonzero;"/>
                </g>
                <g transform="matrix(5.55556,0,0,5.55556,13563.5,-2834.09)">
                    <path d="M295.535,83.062L293.982,82.398C293.982,82.398 294.653,83.758 295.535,83.062Z" style="fill:rgb(12,43,52);fill-rule:nonzero;"/>
                </g>
                <g transform="matrix(5.55556,0,0,5.55556,13563.5,-2834.09)">
                    <path d="M313.016,347.675L304.859,349.58L299.902,330.818L308.059,328.913L313.016,347.675Z" style="fill:rgb(139,61,62);fill-rule:nonzero;"/>
                </g>
                <g transform="matrix(5.55556,0,0,5.55556,13563.5,-2834.09)">
                    <path d="M325.541,353.162L317.165,353.162L317.822,333.765L326.198,333.765L325.541,353.162Z" style="fill:rgb(139,61,62);fill-rule:nonzero;"/>
                </g>
                <g transform="matrix(5.55556,0,0,5.55556,13563.5,-2834.09)">
                    <path d="M316.501,352.193L325.912,352.193C326.254,352.193 326.532,352.431 326.58,352.765L327.652,360.21C327.764,360.983 327.099,361.714 326.31,361.7C323.029,361.643 321.448,361.451 317.309,361.451C314.763,361.451 311.044,361.715 307.528,361.715C304.089,361.715 303.825,358.239 305.289,357.924C311.853,356.512 312.89,354.565 315.101,352.708C315.5,352.373 316,352.193 316.501,352.193Z" style="fill:rgb(12,43,52);fill-rule:nonzero;"/>
                </g>
                <g transform="matrix(5.55556,0,0,5.55556,13563.5,-2834.09)">
                    <path d="M304.136,348.33L312.685,344.398C312.996,344.255 313.348,344.354 313.532,344.638L317.617,350.954C318.041,351.609 317.743,352.551 317.02,352.869C314.016,354.188 312.499,354.674 308.739,356.404C306.426,357.468 301.753,359.909 298.559,361.378C295.435,362.815 293.741,359.767 294.94,358.87C300.313,354.844 301.847,351.995 303.079,349.384C303.302,348.913 303.681,348.54 304.136,348.33Z" style="fill:rgb(12,43,52);fill-rule:nonzero;"/>
                </g>
                <g transform="matrix(5.55556,0,0,5.55556,13563.5,-2834.09)">
                    <path d="M310.615,338.589L309.24,333.383L309.244,333.381L310.619,338.588L310.615,338.589Z" style="fill:rgb(195,197,197);fill-rule:nonzero;"/>
                </g>
                <g transform="matrix(5.55556,0,0,5.55556,13563.5,-2834.09)">
                    <path d="M302.559,340.874L301.337,336.246L309.24,333.383L310.615,338.589L302.559,340.874Z" style="fill:rgb(109,44,45);fill-rule:nonzero;"/>
                </g>
                <g transform="matrix(5.55556,0,0,5.55556,13563.5,-2834.09)">
                    <path d="M325.865,343.769L325.859,343.769L325.925,341.833L325.93,341.833L325.865,343.769Z" style="fill:rgb(195,197,197);fill-rule:nonzero;"/>
                </g>
                <g transform="matrix(5.55556,0,0,5.55556,13563.5,-2834.09)">
                    <path d="M325.859,343.769L317.485,343.769L317.55,341.833L325.925,341.833L325.859,343.769Z" style="fill:rgb(109,44,45);fill-rule:nonzero;"/>
                </g>
                <g transform="matrix(5.55556,0,0,5.55556,13563.5,-2834.09)">
                    <path d="M329.96,113.801C333.439,114.564 337.156,127.082 337.156,127.082L327.317,137.544C327.317,137.544 319.154,125.787 320.817,121.463C322.549,116.961 325.847,112.9 329.96,113.801Z" style="fill:rgb(12,43,52);fill-rule:nonzero;"/>
                </g>
                <g transform="matrix(5.55556,0,0,5.55556,13563.5,-2834.09)">
                    <path d="M326.534,136.378C326.269,135.968 325.949,135.465 325.596,134.892C325.597,134.889 325.597,134.887 325.598,134.885C325.95,135.458 326.27,135.96 326.536,136.371C326.536,136.373 326.535,136.376 326.534,136.378Z" style="fill:rgb(137,141,142);fill-rule:nonzero;"/>
                </g>
                <g transform="matrix(5.55556,0,0,5.55556,13563.5,-2834.09)">
                    <path d="M326.536,136.371C326.27,135.96 325.95,135.458 325.598,134.885C326.004,132.474 326.491,129.858 327.071,126.985C327.694,130.383 327.09,134.151 326.536,136.371Z" style="fill:rgb(0,12,25);fill-rule:nonzero;"/>
                </g>
                <g transform="matrix(5.55556,0,0,5.55556,13563.5,-2834.09)">
                    <path d="M285.907,114.044C285.907,114.044 281.917,115.45 289.91,164.599L323.929,164.599C323.358,150.754 323.342,142.216 329.96,113.801C329.96,113.801 322.832,112.251 315.514,111.898C309.789,111.622 305.099,111.439 300.066,111.899C293.431,112.504 285.907,114.044 285.907,114.044Z" style="fill:rgb(12,43,52);fill-rule:nonzero;"/>
                </g>
                <g transform="matrix(5.55556,0,0,5.55556,13563.5,-2834.09)">
                    <path d="M286.395,140.227C286.068,137.549 285.812,135.15 285.612,132.995C285.818,135.152 286.075,137.552 286.395,140.227Z" style="fill:rgb(144,147,148);fill-rule:nonzero;"/>
                </g>
                <g transform="matrix(5.55556,0,0,5.55556,13563.5,-2834.09)">
                    <path d="M286.494,141.028C286.461,140.758 286.428,140.491 286.395,140.227C286.075,137.552 285.818,135.152 285.612,132.995C285.61,132.966 285.607,132.937 285.604,132.908C286.974,130.908 288.774,128.668 290.724,127.219C291.558,131.383 289.28,138.519 286.494,141.028Z" style="fill:rgb(0,12,25);fill-rule:nonzero;"/>
                </g>
                <g transform="matrix(5.55556,0,0,5.55556,13563.5,-2834.09)">
                    <path d="M289.235,125.457C287.384,130.132 285.346,134.575 283.052,139.012C280.762,143.443 278.317,147.797 275.067,152.007L274.427,152.795L274.108,153.187C273.998,153.32 273.912,153.436 273.735,153.618C273.117,154.3 272.447,154.885 271.76,155.375C270.383,156.357 268.959,156.982 267.579,157.463C264.815,158.393 262.144,158.723 259.539,158.879C254.312,159.091 249.367,158.607 244.38,157.533L244.935,153.328C247.233,153.34 249.644,153.288 251.968,153.142C254.304,153.02 256.616,152.77 258.834,152.374C261.047,152.003 263.188,151.44 264.973,150.663C265.854,150.268 266.62,149.795 267.183,149.316C267.467,149.077 267.689,148.833 267.867,148.6C267.905,148.566 267.994,148.434 268.071,148.327L268.304,147.997L268.772,147.34C271.236,143.695 273.399,139.46 275.465,135.227C277.494,130.975 279.452,126.565 281.289,122.262L289.235,125.457Z" style="fill:rgb(141,61,63);fill-rule:nonzero;"/>
                </g>
                <g transform="matrix(5.55556,0,0,5.55556,13563.5,-2834.09)">
                    <path d="M285.907,114.044C281.744,115.059 276.621,126.489 276.621,126.489L285.262,139.184C285.262,139.184 296.767,124.701 295.399,120.275C293.974,115.666 290.958,112.813 285.907,114.044Z" style="fill:rgb(12,43,52);fill-rule:nonzero;"/>
                </g>
                <g transform="matrix(5.55556,0,0,5.55556,13563.5,-2834.09)">
                    <path d="M247.331,153.951L240.123,150.623L239.399,157.788C239.399,157.788 245.423,159.561 248.393,157.745L247.331,153.951Z" style="fill:rgb(139,61,62);fill-rule:nonzero;"/>
                </g>
                <g transform="matrix(5.55556,0,0,5.55556,13563.5,-2834.09)">
                    <path d="M235.806,149.899L235.118,155.355L239.399,157.788L240.123,150.623L235.806,149.899Z" style="fill:rgb(139,61,62);fill-rule:nonzero;"/>
                </g>
                <g transform="matrix(5.55556,0,0,5.55556,13563.5,-2834.09)">
                    <path d="M318.819,84.8C317.294,92.973 316.823,96.464 312.141,100.176C305.099,105.759 295.394,102.1 294.447,93.637C293.593,86.02 296.23,73.935 304.696,71.655C313.037,69.409 320.343,76.628 318.819,84.8Z" style="fill:rgb(139,61,62);fill-rule:nonzero;"/>
                </g>
                <g transform="matrix(5.55556,0,0,5.55556,13563.5,-2834.09)">
                    <path d="M300.868,86.522C300.401,90.689 300.221,101.515 309.375,101.855C320.594,102.272 323.952,92.689 322.952,88.856C328.785,84.106 329.629,75.939 323.07,69.689C316.511,63.439 302.07,66.932 298.035,73.022C293.035,80.569 300.868,86.522 300.868,86.522Z" style="fill:rgb(12,43,52);fill-rule:nonzero;"/>
                </g>
                <g transform="matrix(5.55556,0,0,5.55556,13563.5,-2834.09)">
                    <path d="M312.101,72.117C311.559,67.722 311.98,64.689 316.091,64.689C320.202,64.689 325.827,66.182 327.889,70.394C329.952,74.606 330.118,81.189 324.368,80.522C318.618,79.856 312.75,77.378 312.101,72.117Z" style="fill:rgb(48,115,186);fill-rule:nonzero;"/>
                </g>
                <g transform="matrix(5.55556,0,0,5.55556,13563.5,-2834.09)">
                    <path d="M318.477,71.061C317.498,65.818 322.168,51.065 333.563,50.106C338.841,49.661 341.285,55.341 338.521,56.277C343.507,56.217 346.721,62.826 342.058,63.821C345.745,66.176 344.827,71.022 339.577,73.397C335.706,75.148 319.833,78.316 318.477,71.061Z" style="fill:rgb(12,43,52);fill-rule:nonzero;"/>
                </g>
                <g transform="matrix(5.55556,0,0,5.55556,13563.5,-2834.09)">
                    <path d="M330.65,76.691C326.984,76.691 323.15,76.152 320.775,74.562C319.333,73.596 318.542,72.315 318.424,70.755C318.414,70.618 318.517,70.498 318.654,70.487C318.8,70.477 318.912,70.58 318.923,70.718C319.028,72.117 319.745,73.27 321.053,74.146C325.578,77.176 336.037,76.196 339.314,75.126C342.133,74.206 344.042,72.423 344.421,70.356C344.699,68.841 344.104,67.404 342.747,66.311C342.639,66.224 342.622,66.067 342.708,65.96C342.795,65.852 342.953,65.836 343.06,65.922C344.545,67.117 345.22,68.767 344.913,70.447C344.5,72.697 342.465,74.624 339.469,75.601C337.753,76.161 334.284,76.691 330.65,76.691Z" style="fill:rgb(12,43,52);fill-rule:nonzero;"/>
                </g>
                <g transform="matrix(5.55556,0,0,5.55556,13563.5,-2834.09)">
                    <path d="M298.317,85.418C297.312,86.808 297.024,88.538 297.245,89.932C297.578,92.03 299.623,92.169 301.103,90.824C302.436,89.614 303.868,87.065 302.777,85.326C301.702,83.613 299.465,83.828 298.317,85.418Z" style="fill:rgb(139,61,62);fill-rule:nonzero;"/>
                </g>
                <g transform="matrix(5.55556,0,0,5.55556,13563.5,-2834.09)">
                    <path d="M298.894,164.599C298.894,164.599 303.755,222.09 308.799,254.491C312.873,280.661 316.085,341.833 316.085,341.833L327.508,341.833C327.508,341.833 331.57,282.489 329.502,256.605C324.27,191.107 335.939,185.772 323.929,164.599L298.894,164.599Z" style="fill:rgb(48,115,186);fill-rule:nonzero;"/>
                </g>
                <g transform="matrix(5.55556,0,0,5.55556,13563.5,-2834.09)">
                    <path d="M306.185,235.555C306.052,234.492 305.919,233.421 305.788,232.343L305.788,232.342C305.92,233.421 306.052,234.491 306.185,235.555Z" style="fill:rgb(137,141,142);fill-rule:nonzero;"/>
                </g>
                <g transform="matrix(5.55556,0,0,5.55556,13563.5,-2834.09)">
                    <path d="M307.073,242.428C306.774,240.188 306.477,237.891 306.185,235.555C306.052,234.491 305.92,233.421 305.788,232.342C309.134,222.586 312.064,214.665 314.384,207.445C313.769,221.415 310.593,233.541 307.073,242.428Z" style="fill:rgb(0,86,167);fill-rule:nonzero;"/>
                </g>
                <g transform="matrix(5.55556,0,0,5.55556,13563.5,-2834.09)">
                    <path d="M290.899,164.236C290.899,164.236 280.353,227.025 278.687,255.327C282.829,281.498 299.77,336.813 299.77,336.813L310.16,333.05C310.16,333.05 304.412,272.73 298.127,256.216C312.197,208.844 322.538,196.871 319.529,164.599C312.353,164.599 290.899,164.236 290.899,164.236Z" style="fill:rgb(48,115,186);fill-rule:nonzero;"/>
                </g>
                <g transform="matrix(5.55556,0,0,5.55556,13563.5,-2834.09)">
                    <path d="M298.376,339.577L312.416,335.765L311.621,330.169L296.588,334.234L298.376,339.577Z" style="fill:rgb(12,43,52);fill-rule:nonzero;"/>
                </g>
                <g transform="matrix(5.55556,0,0,5.55556,13563.5,-2834.09)">
                    <path d="M314.522,342.059L329.071,342.059L329.835,336.955L314.439,336.434L314.522,342.059Z" style="fill:rgb(12,43,52);fill-rule:nonzero;"/>
                </g>
                <g transform="matrix(5.55556,0,0,5.55556,13563.5,-2834.09)">
                    <path d="M324.439,162.603L325.973,165.648C326.092,165.884 325.812,166.125 325.419,166.125L289.742,166.125C289.435,166.125 289.181,165.975 289.162,165.782L288.855,162.737C288.834,162.526 289.099,162.347 289.435,162.347L323.885,162.347C324.138,162.347 324.362,162.451 324.439,162.603Z" style="fill:rgb(48,115,186);fill-rule:nonzero;"/>
                </g>
                <g transform="matrix(5.55556,0,0,5.55556,13563.5,-2834.09)">
                    <path d="M306.036,166.125L289.742,166.125C289.435,166.125 289.181,165.975 289.162,165.782L288.855,162.737C288.854,162.728 288.854,162.72 288.854,162.712C288.854,162.512 289.113,162.347 289.435,162.347L303.92,162.347C304.426,163.763 305.119,165.04 306.036,166.125ZM325.882,165.98C325.919,165.928 325.956,165.875 325.992,165.822C325.976,165.88 325.937,165.934 325.882,165.98Z" style="fill:rgb(23,71,129);fill-rule:nonzero;"/>
                </g>
                <g transform="matrix(5.55556,0,0,5.55556,13563.5,-2834.09)">
                    <path d="M319.812,166.455L320.734,166.455C320.918,166.455 321.058,166.36 321.046,166.244L320.613,162.288C320.6,162.172 320.44,162.078 320.256,162.078L319.333,162.078C319.149,162.078 319.009,162.172 319.022,162.288L319.455,166.244C319.467,166.36 319.628,166.455 319.812,166.455Z" style="fill:rgb(48,115,186);fill-rule:nonzero;"/>
                </g>
                <g transform="matrix(5.55556,0,0,5.55556,13563.5,-2834.09)">
                    <path d="M307.427,137.313C307.202,137.313 307.003,137.162 306.945,136.944C303.682,124.89 296.901,114.976 293.667,113.447C293.304,113.276 293.004,113.227 292.824,113.308C292.57,113.422 292.275,113.308 292.162,113.057C292.049,112.806 292.161,112.509 292.413,112.396C292.879,112.185 293.444,112.236 294.094,112.543C297.546,114.175 304.386,123.975 307.808,136.311C310.26,136.28 314.043,135.974 314.956,135.897C316.099,134.54 324.484,124.058 321.347,112.593C321.274,112.327 321.431,112.051 321.697,111.979C321.961,111.906 322.238,112.062 322.312,112.329C325.804,125.091 315.677,136.597 315.574,136.712C315.489,136.807 315.372,136.865 315.245,136.876C315.195,136.881 310.208,137.313 307.427,137.313Z" style="fill:rgb(48,115,186);fill-rule:nonzero;"/>
                </g>
                <g transform="matrix(5.55556,0,0,5.55556,13563.5,-2834.09)">
                    <path d="M323.992,144.382C318.541,134.164 316.312,133.45 315.337,130.165C315.337,130.165 316.215,127.685 318.445,125.174C317.776,124.988 316.361,124.705 315.473,124.534C315.574,124.086 315.677,123.644 315.778,123.22C315.042,123.016 313.512,123.227 312.73,123.358L312.695,122.349C312.695,122.349 309.931,121.795 308.82,122.103C308.931,122.568 309.043,123.052 309.155,123.543C308.181,123.731 306.629,124.041 305.896,124.245C308.019,126.636 308.785,129.189 308.95,129.819C306.015,134.864 294.591,167.329 313.166,169.77C331.753,172.213 329.442,154.601 323.992,144.382Z" style="fill:rgb(48,115,186);fill-rule:nonzero;"/>
                </g>
                <g transform="matrix(5.55556,0,0,5.55556,13563.5,-2834.09)">
                    <path d="M316.467,170C315.448,170 314.349,169.926 313.166,169.77C305.248,168.73 302.781,162.234 302.784,154.731C302.788,144.634 307.266,132.714 308.95,129.819C308.785,129.189 308.019,126.636 305.896,124.245C306.629,124.041 308.181,123.731 309.155,123.543C309.043,123.052 308.931,122.568 308.82,122.103C309.062,122.036 309.382,122.01 309.735,122.01C311.003,122.01 312.695,122.349 312.695,122.349L312.73,123.358C313.278,123.266 314.192,123.135 314.944,123.135C315.265,123.135 315.557,123.159 315.778,123.22C315.677,123.644 315.574,124.086 315.473,124.534C316.361,124.705 317.776,124.988 318.445,125.174C316.215,127.685 315.337,130.165 315.337,130.165C316.312,133.45 318.541,134.164 323.992,144.382C326.199,148.522 327.892,153.874 327.889,158.615C327.886,164.833 324.966,170 316.467,170Z" style="fill:rgb(118,166,217);fill-rule:nonzero;"/>
                </g>
                <g transform="matrix(5.55556,0,0,5.55556,13563.5,-2834.09)">
                    <path d="M308.257,128.853C308.12,129.101 308.132,130.041 308.112,130.416C308.091,130.791 309.091,131.041 310.216,131.145C311.341,131.249 315.987,131.436 315.841,130.916C315.695,130.395 316.07,129.686 316.091,129.249C316.112,128.811 314.237,128.791 312.674,128.853C311.112,128.916 308.57,128.291 308.257,128.853Z" style="fill:rgb(48,115,186);fill-rule:nonzero;"/>
                </g>
                <g transform="matrix(5.55556,0,0,5.55556,13563.5,-2834.09)">
                    <path d="M297.448,166.455L298.371,166.455C298.554,166.455 298.694,166.36 298.682,166.244L298.249,162.288C298.236,162.172 298.076,162.078 297.892,162.078L296.969,162.078C296.786,162.078 296.646,162.172 296.658,162.288L297.091,166.244C297.104,166.36 297.264,166.455 297.448,166.455Z" style="fill:rgb(48,115,186);fill-rule:nonzero;"/>
                </g>
            </g>
        </g>
    </g>
</svg>
